%TF.GenerationSoftware,KiCad,Pcbnew,(5.1.6)-1*%
%TF.CreationDate,2020-07-20T22:25:38-05:00*%
%TF.ProjectId,Project 3 - BACEE_2_layer,50726f6a-6563-4742-9033-202d20424143,1*%
%TF.SameCoordinates,Original*%
%TF.FileFunction,Soldermask,Top*%
%TF.FilePolarity,Negative*%
%FSLAX46Y46*%
G04 Gerber Fmt 4.6, Leading zero omitted, Abs format (unit mm)*
G04 Created by KiCad (PCBNEW (5.1.6)-1) date 2020-07-20 22:25:38*
%MOMM*%
%LPD*%
G01*
G04 APERTURE LIST*
%ADD10R,1.800000X1.800000*%
%ADD11O,1.800000X1.800000*%
%ADD12R,1.800000X0.750000*%
%ADD13R,0.650000X1.600000*%
%ADD14R,1.600000X0.650000*%
%ADD15R,1.100000X1.900000*%
%ADD16R,3.600000X2.500000*%
G04 APERTURE END LIST*
D10*
%TO.C,BT1*%
X54610000Y-95758000D03*
D11*
X54610000Y-98298000D03*
%TD*%
%TO.C,C1*%
G36*
G01*
X67946000Y-100554262D02*
X67946000Y-99597738D01*
G75*
G02*
X68217738Y-99326000I271738J0D01*
G01*
X68924262Y-99326000D01*
G75*
G02*
X69196000Y-99597738I0J-271738D01*
G01*
X69196000Y-100554262D01*
G75*
G02*
X68924262Y-100826000I-271738J0D01*
G01*
X68217738Y-100826000D01*
G75*
G02*
X67946000Y-100554262I0J271738D01*
G01*
G37*
G36*
G01*
X69996000Y-100554262D02*
X69996000Y-99597738D01*
G75*
G02*
X70267738Y-99326000I271738J0D01*
G01*
X70974262Y-99326000D01*
G75*
G02*
X71246000Y-99597738I0J-271738D01*
G01*
X71246000Y-100554262D01*
G75*
G02*
X70974262Y-100826000I-271738J0D01*
G01*
X70267738Y-100826000D01*
G75*
G02*
X69996000Y-100554262I0J271738D01*
G01*
G37*
%TD*%
%TO.C,C2*%
G36*
G01*
X69996000Y-97252262D02*
X69996000Y-96295738D01*
G75*
G02*
X70267738Y-96024000I271738J0D01*
G01*
X70974262Y-96024000D01*
G75*
G02*
X71246000Y-96295738I0J-271738D01*
G01*
X71246000Y-97252262D01*
G75*
G02*
X70974262Y-97524000I-271738J0D01*
G01*
X70267738Y-97524000D01*
G75*
G02*
X69996000Y-97252262I0J271738D01*
G01*
G37*
G36*
G01*
X67946000Y-97252262D02*
X67946000Y-96295738D01*
G75*
G02*
X68217738Y-96024000I271738J0D01*
G01*
X68924262Y-96024000D01*
G75*
G02*
X69196000Y-96295738I0J-271738D01*
G01*
X69196000Y-97252262D01*
G75*
G02*
X68924262Y-97524000I-271738J0D01*
G01*
X68217738Y-97524000D01*
G75*
G02*
X67946000Y-97252262I0J271738D01*
G01*
G37*
%TD*%
%TO.C,C3*%
G36*
G01*
X82306000Y-105761262D02*
X82306000Y-104804738D01*
G75*
G02*
X82577738Y-104533000I271738J0D01*
G01*
X83284262Y-104533000D01*
G75*
G02*
X83556000Y-104804738I0J-271738D01*
G01*
X83556000Y-105761262D01*
G75*
G02*
X83284262Y-106033000I-271738J0D01*
G01*
X82577738Y-106033000D01*
G75*
G02*
X82306000Y-105761262I0J271738D01*
G01*
G37*
G36*
G01*
X84356000Y-105761262D02*
X84356000Y-104804738D01*
G75*
G02*
X84627738Y-104533000I271738J0D01*
G01*
X85334262Y-104533000D01*
G75*
G02*
X85606000Y-104804738I0J-271738D01*
G01*
X85606000Y-105761262D01*
G75*
G02*
X85334262Y-106033000I-271738J0D01*
G01*
X84627738Y-106033000D01*
G75*
G02*
X84356000Y-105761262I0J271738D01*
G01*
G37*
%TD*%
%TO.C,D1*%
G36*
G01*
X87241000Y-109653262D02*
X87241000Y-108696738D01*
G75*
G02*
X87512738Y-108425000I271738J0D01*
G01*
X88219262Y-108425000D01*
G75*
G02*
X88491000Y-108696738I0J-271738D01*
G01*
X88491000Y-109653262D01*
G75*
G02*
X88219262Y-109925000I-271738J0D01*
G01*
X87512738Y-109925000D01*
G75*
G02*
X87241000Y-109653262I0J271738D01*
G01*
G37*
G36*
G01*
X89291000Y-109653262D02*
X89291000Y-108696738D01*
G75*
G02*
X89562738Y-108425000I271738J0D01*
G01*
X90269262Y-108425000D01*
G75*
G02*
X90541000Y-108696738I0J-271738D01*
G01*
X90541000Y-109653262D01*
G75*
G02*
X90269262Y-109925000I-271738J0D01*
G01*
X89562738Y-109925000D01*
G75*
G02*
X89291000Y-109653262I0J271738D01*
G01*
G37*
%TD*%
D10*
%TO.C,J1*%
X66294000Y-116078000D03*
D11*
X68834000Y-116078000D03*
X71374000Y-116078000D03*
X73914000Y-116078000D03*
X76454000Y-116078000D03*
X78994000Y-116078000D03*
X81534000Y-116078000D03*
X84074000Y-116078000D03*
X86614000Y-116078000D03*
%TD*%
%TO.C,Serial*%
X74041000Y-91059000D03*
X71501000Y-91059000D03*
X68961000Y-91059000D03*
D10*
X66421000Y-91059000D03*
%TD*%
%TO.C,J3*%
X57150000Y-105791000D03*
D11*
X54610000Y-105791000D03*
X57150000Y-108331000D03*
X54610000Y-108331000D03*
X57150000Y-110871000D03*
X54610000Y-110871000D03*
%TD*%
D10*
%TO.C,J4*%
X78232000Y-91059000D03*
D11*
X80772000Y-91059000D03*
X83312000Y-91059000D03*
X85852000Y-91059000D03*
%TD*%
%TO.C,R1*%
G36*
G01*
X82424000Y-109698262D02*
X82424000Y-108741738D01*
G75*
G02*
X82695738Y-108470000I271738J0D01*
G01*
X83402262Y-108470000D01*
G75*
G02*
X83674000Y-108741738I0J-271738D01*
G01*
X83674000Y-109698262D01*
G75*
G02*
X83402262Y-109970000I-271738J0D01*
G01*
X82695738Y-109970000D01*
G75*
G02*
X82424000Y-109698262I0J271738D01*
G01*
G37*
G36*
G01*
X84474000Y-109698262D02*
X84474000Y-108741738D01*
G75*
G02*
X84745738Y-108470000I271738J0D01*
G01*
X85452262Y-108470000D01*
G75*
G02*
X85724000Y-108741738I0J-271738D01*
G01*
X85724000Y-109698262D01*
G75*
G02*
X85452262Y-109970000I-271738J0D01*
G01*
X84745738Y-109970000D01*
G75*
G02*
X84474000Y-109698262I0J271738D01*
G01*
G37*
%TD*%
%TO.C,R2*%
G36*
G01*
X59827000Y-92387262D02*
X59827000Y-91430738D01*
G75*
G02*
X60098738Y-91159000I271738J0D01*
G01*
X60805262Y-91159000D01*
G75*
G02*
X61077000Y-91430738I0J-271738D01*
G01*
X61077000Y-92387262D01*
G75*
G02*
X60805262Y-92659000I-271738J0D01*
G01*
X60098738Y-92659000D01*
G75*
G02*
X59827000Y-92387262I0J271738D01*
G01*
G37*
G36*
G01*
X57777000Y-92387262D02*
X57777000Y-91430738D01*
G75*
G02*
X58048738Y-91159000I271738J0D01*
G01*
X58755262Y-91159000D01*
G75*
G02*
X59027000Y-91430738I0J-271738D01*
G01*
X59027000Y-92387262D01*
G75*
G02*
X58755262Y-92659000I-271738J0D01*
G01*
X58048738Y-92659000D01*
G75*
G02*
X57777000Y-92387262I0J271738D01*
G01*
G37*
%TD*%
%TO.C,U1*%
G36*
G01*
X82495000Y-96187000D02*
X82495000Y-95837000D01*
G75*
G02*
X82670000Y-95662000I175000J0D01*
G01*
X84320000Y-95662000D01*
G75*
G02*
X84495000Y-95837000I0J-175000D01*
G01*
X84495000Y-96187000D01*
G75*
G02*
X84320000Y-96362000I-175000J0D01*
G01*
X82670000Y-96362000D01*
G75*
G02*
X82495000Y-96187000I0J175000D01*
G01*
G37*
G36*
G01*
X82495000Y-97457000D02*
X82495000Y-97107000D01*
G75*
G02*
X82670000Y-96932000I175000J0D01*
G01*
X84320000Y-96932000D01*
G75*
G02*
X84495000Y-97107000I0J-175000D01*
G01*
X84495000Y-97457000D01*
G75*
G02*
X84320000Y-97632000I-175000J0D01*
G01*
X82670000Y-97632000D01*
G75*
G02*
X82495000Y-97457000I0J175000D01*
G01*
G37*
G36*
G01*
X82495000Y-98727000D02*
X82495000Y-98377000D01*
G75*
G02*
X82670000Y-98202000I175000J0D01*
G01*
X84320000Y-98202000D01*
G75*
G02*
X84495000Y-98377000I0J-175000D01*
G01*
X84495000Y-98727000D01*
G75*
G02*
X84320000Y-98902000I-175000J0D01*
G01*
X82670000Y-98902000D01*
G75*
G02*
X82495000Y-98727000I0J175000D01*
G01*
G37*
G36*
G01*
X82495000Y-99997000D02*
X82495000Y-99647000D01*
G75*
G02*
X82670000Y-99472000I175000J0D01*
G01*
X84320000Y-99472000D01*
G75*
G02*
X84495000Y-99647000I0J-175000D01*
G01*
X84495000Y-99997000D01*
G75*
G02*
X84320000Y-100172000I-175000J0D01*
G01*
X82670000Y-100172000D01*
G75*
G02*
X82495000Y-99997000I0J175000D01*
G01*
G37*
G36*
G01*
X89495000Y-99997000D02*
X89495000Y-99647000D01*
G75*
G02*
X89670000Y-99472000I175000J0D01*
G01*
X91320000Y-99472000D01*
G75*
G02*
X91495000Y-99647000I0J-175000D01*
G01*
X91495000Y-99997000D01*
G75*
G02*
X91320000Y-100172000I-175000J0D01*
G01*
X89670000Y-100172000D01*
G75*
G02*
X89495000Y-99997000I0J175000D01*
G01*
G37*
G36*
G01*
X89495000Y-98727000D02*
X89495000Y-98377000D01*
G75*
G02*
X89670000Y-98202000I175000J0D01*
G01*
X91320000Y-98202000D01*
G75*
G02*
X91495000Y-98377000I0J-175000D01*
G01*
X91495000Y-98727000D01*
G75*
G02*
X91320000Y-98902000I-175000J0D01*
G01*
X89670000Y-98902000D01*
G75*
G02*
X89495000Y-98727000I0J175000D01*
G01*
G37*
G36*
G01*
X89495000Y-97457000D02*
X89495000Y-97107000D01*
G75*
G02*
X89670000Y-96932000I175000J0D01*
G01*
X91320000Y-96932000D01*
G75*
G02*
X91495000Y-97107000I0J-175000D01*
G01*
X91495000Y-97457000D01*
G75*
G02*
X91320000Y-97632000I-175000J0D01*
G01*
X89670000Y-97632000D01*
G75*
G02*
X89495000Y-97457000I0J175000D01*
G01*
G37*
G36*
G01*
X89495000Y-96187000D02*
X89495000Y-95837000D01*
G75*
G02*
X89670000Y-95662000I175000J0D01*
G01*
X91320000Y-95662000D01*
G75*
G02*
X91495000Y-95837000I0J-175000D01*
G01*
X91495000Y-96187000D01*
G75*
G02*
X91320000Y-96362000I-175000J0D01*
G01*
X89670000Y-96362000D01*
G75*
G02*
X89495000Y-96187000I0J175000D01*
G01*
G37*
%TD*%
D12*
%TO.C,U2*%
X80358000Y-104902000D03*
X80358000Y-106172000D03*
X80358000Y-107442000D03*
X80358000Y-108712000D03*
X73058000Y-108712000D03*
X73058000Y-107442000D03*
X73058000Y-106172000D03*
X73058000Y-104902000D03*
%TD*%
%TO.C,U3*%
X73058000Y-96139000D03*
X73058000Y-97409000D03*
X73058000Y-98679000D03*
X73058000Y-99949000D03*
X80358000Y-99949000D03*
X80358000Y-98679000D03*
X80358000Y-97409000D03*
X80358000Y-96139000D03*
%TD*%
D13*
%TO.C,U4*%
X62986000Y-110753000D03*
D14*
X61586000Y-103753000D03*
X61586000Y-104553000D03*
X61586000Y-105353000D03*
X61586000Y-106153000D03*
X61586000Y-106953000D03*
X61586000Y-107753000D03*
X61586000Y-108553000D03*
X61586000Y-109353000D03*
D13*
X63786000Y-110753000D03*
X64586000Y-110753000D03*
X65386000Y-110753000D03*
X66186000Y-110753000D03*
X66986000Y-110753000D03*
X67786000Y-110753000D03*
X68586000Y-110753000D03*
D14*
X69986000Y-109353000D03*
X69986000Y-108553000D03*
X69986000Y-107753000D03*
X69986000Y-106953000D03*
X69986000Y-106153000D03*
X69986000Y-105353000D03*
X69986000Y-104553000D03*
X69986000Y-103753000D03*
D13*
X68586000Y-102353000D03*
X67786000Y-102353000D03*
X66986000Y-102353000D03*
X66186000Y-102353000D03*
X65386000Y-102353000D03*
X64586000Y-102353000D03*
X63786000Y-102353000D03*
X62986000Y-102353000D03*
%TD*%
D15*
%TO.C,Y1*%
X86888000Y-105033000D03*
X89388000Y-105033000D03*
%TD*%
D16*
%TO.C,Y2*%
X59503000Y-95885000D03*
X64703000Y-95885000D03*
%TD*%
M02*
