%TF.GenerationSoftware,KiCad,Pcbnew,(5.1.6)-1*%
%TF.CreationDate,2020-07-20T22:25:38-05:00*%
%TF.ProjectId,Project 3 - BACEE_2_layer,50726f6a-6563-4742-9033-202d20424143,1*%
%TF.SameCoordinates,Original*%
%TF.FileFunction,Legend,Top*%
%TF.FilePolarity,Positive*%
%FSLAX46Y46*%
G04 Gerber Fmt 4.6, Leading zero omitted, Abs format (unit mm)*
G04 Created by KiCad (PCBNEW (5.1.6)-1) date 2020-07-20 22:25:38*
%MOMM*%
%LPD*%
G01*
G04 APERTURE LIST*
%ADD10C,0.150000*%
%ADD11C,0.120000*%
%ADD12C,0.100000*%
G04 APERTURE END LIST*
D10*
X96899428Y-101273285D02*
X96928000Y-101301857D01*
X96956571Y-101359000D01*
X96956571Y-101501857D01*
X96928000Y-101559000D01*
X96899428Y-101587571D01*
X96842285Y-101616142D01*
X96785142Y-101616142D01*
X96699428Y-101587571D01*
X96356571Y-101244714D01*
X96356571Y-101616142D01*
X96356571Y-101901857D02*
X96356571Y-102016142D01*
X96385142Y-102073285D01*
X96413714Y-102101857D01*
X96499428Y-102159000D01*
X96613714Y-102187571D01*
X96842285Y-102187571D01*
X96899428Y-102159000D01*
X96928000Y-102130428D01*
X96956571Y-102073285D01*
X96956571Y-101959000D01*
X96928000Y-101901857D01*
X96899428Y-101873285D01*
X96842285Y-101844714D01*
X96699428Y-101844714D01*
X96642285Y-101873285D01*
X96613714Y-101901857D01*
X96585142Y-101959000D01*
X96585142Y-102073285D01*
X96613714Y-102130428D01*
X96642285Y-102159000D01*
X96699428Y-102187571D01*
X96413714Y-102444714D02*
X96385142Y-102473285D01*
X96356571Y-102444714D01*
X96385142Y-102416142D01*
X96413714Y-102444714D01*
X96356571Y-102444714D01*
X96956571Y-102673285D02*
X96956571Y-103073285D01*
X96356571Y-102816142D01*
X96356571Y-103616142D02*
X96356571Y-103273285D01*
X96356571Y-103444714D02*
X96956571Y-103444714D01*
X96870857Y-103387571D01*
X96813714Y-103330428D01*
X96785142Y-103273285D01*
X96699428Y-103959000D02*
X96728000Y-103901857D01*
X96756571Y-103873285D01*
X96813714Y-103844714D01*
X96842285Y-103844714D01*
X96899428Y-103873285D01*
X96928000Y-103901857D01*
X96956571Y-103959000D01*
X96956571Y-104073285D01*
X96928000Y-104130428D01*
X96899428Y-104159000D01*
X96842285Y-104187571D01*
X96813714Y-104187571D01*
X96756571Y-104159000D01*
X96728000Y-104130428D01*
X96699428Y-104073285D01*
X96699428Y-103959000D01*
X96670857Y-103901857D01*
X96642285Y-103873285D01*
X96585142Y-103844714D01*
X96470857Y-103844714D01*
X96413714Y-103873285D01*
X96385142Y-103901857D01*
X96356571Y-103959000D01*
X96356571Y-104073285D01*
X96385142Y-104130428D01*
X96413714Y-104159000D01*
X96470857Y-104187571D01*
X96585142Y-104187571D01*
X96642285Y-104159000D01*
X96670857Y-104130428D01*
X96699428Y-104073285D01*
X96356571Y-104901857D02*
X96756571Y-104901857D01*
X96699428Y-104901857D02*
X96728000Y-104930428D01*
X96756571Y-104987571D01*
X96756571Y-105073285D01*
X96728000Y-105130428D01*
X96670857Y-105159000D01*
X96356571Y-105159000D01*
X96670857Y-105159000D02*
X96728000Y-105187571D01*
X96756571Y-105244714D01*
X96756571Y-105330428D01*
X96728000Y-105387571D01*
X96670857Y-105416142D01*
X96356571Y-105416142D01*
X96356571Y-105701857D02*
X96756571Y-105701857D01*
X96699428Y-105701857D02*
X96728000Y-105730428D01*
X96756571Y-105787571D01*
X96756571Y-105873285D01*
X96728000Y-105930428D01*
X96670857Y-105959000D01*
X96356571Y-105959000D01*
X96670857Y-105959000D02*
X96728000Y-105987571D01*
X96756571Y-106044714D01*
X96756571Y-106130428D01*
X96728000Y-106187571D01*
X96670857Y-106216142D01*
X96356571Y-106216142D01*
D11*
X95758000Y-88900000D02*
X95758000Y-118618000D01*
X91694000Y-88900000D02*
X96344421Y-88900000D01*
X91694000Y-118618000D02*
X96344421Y-118618000D01*
X95758000Y-118618000D02*
X95171579Y-117491496D01*
X95758000Y-118618000D02*
X96344421Y-117491496D01*
X95758000Y-88900000D02*
X95171579Y-90026504D01*
X95758000Y-88900000D02*
X96344421Y-90026504D01*
D10*
X69832986Y-85460346D02*
X69830470Y-85860338D01*
X69691569Y-85230881D02*
X69546019Y-85658546D01*
X69917440Y-85660882D01*
X70262806Y-85263046D02*
X70319948Y-85263405D01*
X70376910Y-85292335D01*
X70405301Y-85321086D01*
X70433513Y-85378407D01*
X70461365Y-85492870D01*
X70460466Y-85635725D01*
X70431177Y-85749829D01*
X70402247Y-85806791D01*
X70373496Y-85835182D01*
X70316175Y-85863393D01*
X70259033Y-85863034D01*
X70202071Y-85834104D01*
X70173680Y-85805353D01*
X70145468Y-85748032D01*
X70117616Y-85633569D01*
X70118515Y-85490714D01*
X70147804Y-85376610D01*
X70176734Y-85319648D01*
X70205485Y-85291257D01*
X70262806Y-85263046D01*
X70716526Y-85808767D02*
X70744917Y-85837518D01*
X70716167Y-85865909D01*
X70687776Y-85837158D01*
X70716526Y-85808767D01*
X70716167Y-85865909D01*
X70948507Y-85267358D02*
X71319928Y-85269694D01*
X71118495Y-85497003D01*
X71204207Y-85497542D01*
X71261169Y-85526473D01*
X71289561Y-85555223D01*
X71317772Y-85612545D01*
X71316874Y-85755399D01*
X71287943Y-85812361D01*
X71259193Y-85840752D01*
X71201871Y-85868964D01*
X71030446Y-85867886D01*
X70973484Y-85838955D01*
X70945093Y-85810205D01*
X71661162Y-85528988D02*
X71604199Y-85500058D01*
X71575808Y-85471308D01*
X71547597Y-85413986D01*
X71547777Y-85385415D01*
X71576707Y-85328453D01*
X71605457Y-85300062D01*
X71662779Y-85271851D01*
X71777062Y-85272569D01*
X71834024Y-85301500D01*
X71862415Y-85330250D01*
X71890627Y-85387572D01*
X71890447Y-85416142D01*
X71861517Y-85473104D01*
X71832766Y-85501496D01*
X71775445Y-85529707D01*
X71661162Y-85528988D01*
X71603840Y-85557200D01*
X71575090Y-85585591D01*
X71546159Y-85642553D01*
X71545441Y-85756837D01*
X71573652Y-85814158D01*
X71602043Y-85842908D01*
X71659005Y-85871839D01*
X71773289Y-85872557D01*
X71830610Y-85844346D01*
X71859361Y-85815955D01*
X71888291Y-85758993D01*
X71889010Y-85644709D01*
X71860798Y-85587388D01*
X71832407Y-85558637D01*
X71775445Y-85529707D01*
X72091342Y-85274546D02*
X72491334Y-85277062D01*
X72230422Y-85875433D01*
X73173261Y-85881362D02*
X73175777Y-85481370D01*
X73175417Y-85538512D02*
X73204168Y-85510121D01*
X73261489Y-85481909D01*
X73347202Y-85482448D01*
X73404164Y-85511379D01*
X73432375Y-85568700D01*
X73430399Y-85882980D01*
X73432375Y-85568700D02*
X73461306Y-85511738D01*
X73518627Y-85483527D01*
X73604340Y-85484066D01*
X73661302Y-85512996D01*
X73689513Y-85570317D01*
X73687537Y-85884597D01*
X73973245Y-85886394D02*
X73975761Y-85486402D01*
X73975401Y-85543543D02*
X74004152Y-85515152D01*
X74061473Y-85486941D01*
X74147186Y-85487480D01*
X74204148Y-85516410D01*
X74232360Y-85573731D01*
X74230383Y-85888011D01*
X74232360Y-85573731D02*
X74261290Y-85516769D01*
X74318611Y-85488558D01*
X74404324Y-85489097D01*
X74461286Y-85518027D01*
X74489497Y-85575349D01*
X74487521Y-85889628D01*
D11*
X51833662Y-86345735D02*
X92219662Y-86599735D01*
X51816000Y-89154000D02*
X51837350Y-85759325D01*
X92202000Y-89408000D02*
X92223350Y-86013325D01*
X92219662Y-86599735D02*
X91089492Y-87179059D01*
X92219662Y-86599735D02*
X91096869Y-86006241D01*
X51833662Y-86345735D02*
X52956455Y-86939229D01*
X51833662Y-86345735D02*
X52963832Y-85766411D01*
D10*
X59961428Y-106860857D02*
X59361428Y-106860857D01*
X59790000Y-106660857D01*
X59361428Y-106460857D01*
X59961428Y-106460857D01*
X59961428Y-106175142D02*
X59361428Y-106175142D01*
X59932857Y-105918000D02*
X59961428Y-105832285D01*
X59961428Y-105689428D01*
X59932857Y-105632285D01*
X59904285Y-105603714D01*
X59847142Y-105575142D01*
X59790000Y-105575142D01*
X59732857Y-105603714D01*
X59704285Y-105632285D01*
X59675714Y-105689428D01*
X59647142Y-105803714D01*
X59618571Y-105860857D01*
X59590000Y-105889428D01*
X59532857Y-105918000D01*
X59475714Y-105918000D01*
X59418571Y-105889428D01*
X59390000Y-105860857D01*
X59361428Y-105803714D01*
X59361428Y-105660857D01*
X59390000Y-105575142D01*
X59361428Y-105203714D02*
X59361428Y-105089428D01*
X59390000Y-105032285D01*
X59447142Y-104975142D01*
X59561428Y-104946571D01*
X59761428Y-104946571D01*
X59875714Y-104975142D01*
X59932857Y-105032285D01*
X59961428Y-105089428D01*
X59961428Y-105203714D01*
X59932857Y-105260857D01*
X59875714Y-105318000D01*
X59761428Y-105346571D01*
X59561428Y-105346571D01*
X59447142Y-105318000D01*
X59390000Y-105260857D01*
X59361428Y-105203714D01*
X59932857Y-109229428D02*
X59961428Y-109143714D01*
X59961428Y-109000857D01*
X59932857Y-108943714D01*
X59904285Y-108915142D01*
X59847142Y-108886571D01*
X59790000Y-108886571D01*
X59732857Y-108915142D01*
X59704285Y-108943714D01*
X59675714Y-109000857D01*
X59647142Y-109115142D01*
X59618571Y-109172285D01*
X59590000Y-109200857D01*
X59532857Y-109229428D01*
X59475714Y-109229428D01*
X59418571Y-109200857D01*
X59390000Y-109172285D01*
X59361428Y-109115142D01*
X59361428Y-108972285D01*
X59390000Y-108886571D01*
X59904285Y-108286571D02*
X59932857Y-108315142D01*
X59961428Y-108400857D01*
X59961428Y-108458000D01*
X59932857Y-108543714D01*
X59875714Y-108600857D01*
X59818571Y-108629428D01*
X59704285Y-108658000D01*
X59618571Y-108658000D01*
X59504285Y-108629428D01*
X59447142Y-108600857D01*
X59390000Y-108543714D01*
X59361428Y-108458000D01*
X59361428Y-108400857D01*
X59390000Y-108315142D01*
X59418571Y-108286571D01*
X59961428Y-108029428D02*
X59361428Y-108029428D01*
X59961428Y-107686571D02*
X59618571Y-107943714D01*
X59361428Y-107686571D02*
X59704285Y-108029428D01*
X59961428Y-111580571D02*
X59675714Y-111780571D01*
X59961428Y-111923428D02*
X59361428Y-111923428D01*
X59361428Y-111694857D01*
X59390000Y-111637714D01*
X59418571Y-111609142D01*
X59475714Y-111580571D01*
X59561428Y-111580571D01*
X59618571Y-111609142D01*
X59647142Y-111637714D01*
X59675714Y-111694857D01*
X59675714Y-111923428D01*
X59932857Y-111352000D02*
X59961428Y-111266285D01*
X59961428Y-111123428D01*
X59932857Y-111066285D01*
X59904285Y-111037714D01*
X59847142Y-111009142D01*
X59790000Y-111009142D01*
X59732857Y-111037714D01*
X59704285Y-111066285D01*
X59675714Y-111123428D01*
X59647142Y-111237714D01*
X59618571Y-111294857D01*
X59590000Y-111323428D01*
X59532857Y-111352000D01*
X59475714Y-111352000D01*
X59418571Y-111323428D01*
X59390000Y-111294857D01*
X59361428Y-111237714D01*
X59361428Y-111094857D01*
X59390000Y-111009142D01*
X59361428Y-110837714D02*
X59361428Y-110494857D01*
X59961428Y-110666285D02*
X59361428Y-110666285D01*
X87815714Y-110958285D02*
X87787142Y-110986857D01*
X87701428Y-111015428D01*
X87644285Y-111015428D01*
X87558571Y-110986857D01*
X87501428Y-110929714D01*
X87472857Y-110872571D01*
X87444285Y-110758285D01*
X87444285Y-110672571D01*
X87472857Y-110558285D01*
X87501428Y-110501142D01*
X87558571Y-110444000D01*
X87644285Y-110415428D01*
X87701428Y-110415428D01*
X87787142Y-110444000D01*
X87815714Y-110472571D01*
X85899714Y-113463428D02*
X86099714Y-114063428D01*
X86299714Y-113463428D01*
X86756857Y-114034857D02*
X86699714Y-114063428D01*
X86585428Y-114063428D01*
X86528285Y-114034857D01*
X86499714Y-114006285D01*
X86471142Y-113949142D01*
X86471142Y-113777714D01*
X86499714Y-113720571D01*
X86528285Y-113692000D01*
X86585428Y-113663428D01*
X86699714Y-113663428D01*
X86756857Y-113692000D01*
X87271142Y-114034857D02*
X87214000Y-114063428D01*
X87099714Y-114063428D01*
X87042571Y-114034857D01*
X87014000Y-114006285D01*
X86985428Y-113949142D01*
X86985428Y-113777714D01*
X87014000Y-113720571D01*
X87042571Y-113692000D01*
X87099714Y-113663428D01*
X87214000Y-113663428D01*
X87271142Y-113692000D01*
X83616857Y-113492000D02*
X83559714Y-113463428D01*
X83474000Y-113463428D01*
X83388285Y-113492000D01*
X83331142Y-113549142D01*
X83302571Y-113606285D01*
X83274000Y-113720571D01*
X83274000Y-113806285D01*
X83302571Y-113920571D01*
X83331142Y-113977714D01*
X83388285Y-114034857D01*
X83474000Y-114063428D01*
X83531142Y-114063428D01*
X83616857Y-114034857D01*
X83645428Y-114006285D01*
X83645428Y-113806285D01*
X83531142Y-113806285D01*
X83902571Y-114063428D02*
X83902571Y-113463428D01*
X84245428Y-114063428D01*
X84245428Y-113463428D01*
X84531142Y-114063428D02*
X84531142Y-113463428D01*
X84674000Y-113463428D01*
X84759714Y-113492000D01*
X84816857Y-113549142D01*
X84845428Y-113606285D01*
X84874000Y-113720571D01*
X84874000Y-113806285D01*
X84845428Y-113920571D01*
X84816857Y-113977714D01*
X84759714Y-114034857D01*
X84674000Y-114063428D01*
X84531142Y-114063428D01*
X81091142Y-114063428D02*
X81091142Y-113463428D01*
X81234000Y-113463428D01*
X81319714Y-113492000D01*
X81376857Y-113549142D01*
X81405428Y-113606285D01*
X81434000Y-113720571D01*
X81434000Y-113806285D01*
X81405428Y-113920571D01*
X81376857Y-113977714D01*
X81319714Y-114034857D01*
X81234000Y-114063428D01*
X81091142Y-114063428D01*
X81776857Y-113720571D02*
X81719714Y-113692000D01*
X81691142Y-113663428D01*
X81662571Y-113606285D01*
X81662571Y-113577714D01*
X81691142Y-113520571D01*
X81719714Y-113492000D01*
X81776857Y-113463428D01*
X81891142Y-113463428D01*
X81948285Y-113492000D01*
X81976857Y-113520571D01*
X82005428Y-113577714D01*
X82005428Y-113606285D01*
X81976857Y-113663428D01*
X81948285Y-113692000D01*
X81891142Y-113720571D01*
X81776857Y-113720571D01*
X81719714Y-113749142D01*
X81691142Y-113777714D01*
X81662571Y-113834857D01*
X81662571Y-113949142D01*
X81691142Y-114006285D01*
X81719714Y-114034857D01*
X81776857Y-114063428D01*
X81891142Y-114063428D01*
X81948285Y-114034857D01*
X81976857Y-114006285D01*
X82005428Y-113949142D01*
X82005428Y-113834857D01*
X81976857Y-113777714D01*
X81948285Y-113749142D01*
X81891142Y-113720571D01*
X78551142Y-114063428D02*
X78551142Y-113463428D01*
X78694000Y-113463428D01*
X78779714Y-113492000D01*
X78836857Y-113549142D01*
X78865428Y-113606285D01*
X78894000Y-113720571D01*
X78894000Y-113806285D01*
X78865428Y-113920571D01*
X78836857Y-113977714D01*
X78779714Y-114034857D01*
X78694000Y-114063428D01*
X78551142Y-114063428D01*
X79094000Y-113463428D02*
X79494000Y-113463428D01*
X79236857Y-114063428D01*
X76011142Y-114063428D02*
X76011142Y-113463428D01*
X76154000Y-113463428D01*
X76239714Y-113492000D01*
X76296857Y-113549142D01*
X76325428Y-113606285D01*
X76354000Y-113720571D01*
X76354000Y-113806285D01*
X76325428Y-113920571D01*
X76296857Y-113977714D01*
X76239714Y-114034857D01*
X76154000Y-114063428D01*
X76011142Y-114063428D01*
X76868285Y-113463428D02*
X76754000Y-113463428D01*
X76696857Y-113492000D01*
X76668285Y-113520571D01*
X76611142Y-113606285D01*
X76582571Y-113720571D01*
X76582571Y-113949142D01*
X76611142Y-114006285D01*
X76639714Y-114034857D01*
X76696857Y-114063428D01*
X76811142Y-114063428D01*
X76868285Y-114034857D01*
X76896857Y-114006285D01*
X76925428Y-113949142D01*
X76925428Y-113806285D01*
X76896857Y-113749142D01*
X76868285Y-113720571D01*
X76811142Y-113692000D01*
X76696857Y-113692000D01*
X76639714Y-113720571D01*
X76611142Y-113749142D01*
X76582571Y-113806285D01*
X73471142Y-114063428D02*
X73471142Y-113463428D01*
X73614000Y-113463428D01*
X73699714Y-113492000D01*
X73756857Y-113549142D01*
X73785428Y-113606285D01*
X73814000Y-113720571D01*
X73814000Y-113806285D01*
X73785428Y-113920571D01*
X73756857Y-113977714D01*
X73699714Y-114034857D01*
X73614000Y-114063428D01*
X73471142Y-114063428D01*
X74356857Y-113463428D02*
X74071142Y-113463428D01*
X74042571Y-113749142D01*
X74071142Y-113720571D01*
X74128285Y-113692000D01*
X74271142Y-113692000D01*
X74328285Y-113720571D01*
X74356857Y-113749142D01*
X74385428Y-113806285D01*
X74385428Y-113949142D01*
X74356857Y-114006285D01*
X74328285Y-114034857D01*
X74271142Y-114063428D01*
X74128285Y-114063428D01*
X74071142Y-114034857D01*
X74042571Y-114006285D01*
X70931142Y-114063428D02*
X70931142Y-113463428D01*
X71074000Y-113463428D01*
X71159714Y-113492000D01*
X71216857Y-113549142D01*
X71245428Y-113606285D01*
X71274000Y-113720571D01*
X71274000Y-113806285D01*
X71245428Y-113920571D01*
X71216857Y-113977714D01*
X71159714Y-114034857D01*
X71074000Y-114063428D01*
X70931142Y-114063428D01*
X71788285Y-113663428D02*
X71788285Y-114063428D01*
X71645428Y-113434857D02*
X71502571Y-113863428D01*
X71874000Y-113863428D01*
X68391142Y-114063428D02*
X68391142Y-113463428D01*
X68534000Y-113463428D01*
X68619714Y-113492000D01*
X68676857Y-113549142D01*
X68705428Y-113606285D01*
X68734000Y-113720571D01*
X68734000Y-113806285D01*
X68705428Y-113920571D01*
X68676857Y-113977714D01*
X68619714Y-114034857D01*
X68534000Y-114063428D01*
X68391142Y-114063428D01*
X68934000Y-113463428D02*
X69305428Y-113463428D01*
X69105428Y-113692000D01*
X69191142Y-113692000D01*
X69248285Y-113720571D01*
X69276857Y-113749142D01*
X69305428Y-113806285D01*
X69305428Y-113949142D01*
X69276857Y-114006285D01*
X69248285Y-114034857D01*
X69191142Y-114063428D01*
X69019714Y-114063428D01*
X68962571Y-114034857D01*
X68934000Y-114006285D01*
X65851142Y-114063428D02*
X65851142Y-113463428D01*
X65994000Y-113463428D01*
X66079714Y-113492000D01*
X66136857Y-113549142D01*
X66165428Y-113606285D01*
X66194000Y-113720571D01*
X66194000Y-113806285D01*
X66165428Y-113920571D01*
X66136857Y-113977714D01*
X66079714Y-114034857D01*
X65994000Y-114063428D01*
X65851142Y-114063428D01*
X66422571Y-113520571D02*
X66451142Y-113492000D01*
X66508285Y-113463428D01*
X66651142Y-113463428D01*
X66708285Y-113492000D01*
X66736857Y-113520571D01*
X66765428Y-113577714D01*
X66765428Y-113634857D01*
X66736857Y-113720571D01*
X66394000Y-114063428D01*
X66765428Y-114063428D01*
X82583428Y-93714857D02*
X82669142Y-93743428D01*
X82812000Y-93743428D01*
X82869142Y-93714857D01*
X82897714Y-93686285D01*
X82926285Y-93629142D01*
X82926285Y-93572000D01*
X82897714Y-93514857D01*
X82869142Y-93486285D01*
X82812000Y-93457714D01*
X82697714Y-93429142D01*
X82640571Y-93400571D01*
X82612000Y-93372000D01*
X82583428Y-93314857D01*
X82583428Y-93257714D01*
X82612000Y-93200571D01*
X82640571Y-93172000D01*
X82697714Y-93143428D01*
X82840571Y-93143428D01*
X82926285Y-93172000D01*
X83183428Y-93743428D02*
X83183428Y-93143428D01*
X83326285Y-93143428D01*
X83412000Y-93172000D01*
X83469142Y-93229142D01*
X83497714Y-93286285D01*
X83526285Y-93400571D01*
X83526285Y-93486285D01*
X83497714Y-93600571D01*
X83469142Y-93657714D01*
X83412000Y-93714857D01*
X83326285Y-93743428D01*
X83183428Y-93743428D01*
X83754857Y-93572000D02*
X84040571Y-93572000D01*
X83697714Y-93743428D02*
X83897714Y-93143428D01*
X84097714Y-93743428D01*
X80057714Y-93143428D02*
X80257714Y-93743428D01*
X80457714Y-93143428D01*
X80914857Y-93714857D02*
X80857714Y-93743428D01*
X80743428Y-93743428D01*
X80686285Y-93714857D01*
X80657714Y-93686285D01*
X80629142Y-93629142D01*
X80629142Y-93457714D01*
X80657714Y-93400571D01*
X80686285Y-93372000D01*
X80743428Y-93343428D01*
X80857714Y-93343428D01*
X80914857Y-93372000D01*
X81429142Y-93714857D02*
X81372000Y-93743428D01*
X81257714Y-93743428D01*
X81200571Y-93714857D01*
X81172000Y-93686285D01*
X81143428Y-93629142D01*
X81143428Y-93457714D01*
X81172000Y-93400571D01*
X81200571Y-93372000D01*
X81257714Y-93343428D01*
X81372000Y-93343428D01*
X81429142Y-93372000D01*
X85080571Y-93714857D02*
X85166285Y-93743428D01*
X85309142Y-93743428D01*
X85366285Y-93714857D01*
X85394857Y-93686285D01*
X85423428Y-93629142D01*
X85423428Y-93572000D01*
X85394857Y-93514857D01*
X85366285Y-93486285D01*
X85309142Y-93457714D01*
X85194857Y-93429142D01*
X85137714Y-93400571D01*
X85109142Y-93372000D01*
X85080571Y-93314857D01*
X85080571Y-93257714D01*
X85109142Y-93200571D01*
X85137714Y-93172000D01*
X85194857Y-93143428D01*
X85337714Y-93143428D01*
X85423428Y-93172000D01*
X86023428Y-93686285D02*
X85994857Y-93714857D01*
X85909142Y-93743428D01*
X85852000Y-93743428D01*
X85766285Y-93714857D01*
X85709142Y-93657714D01*
X85680571Y-93600571D01*
X85652000Y-93486285D01*
X85652000Y-93400571D01*
X85680571Y-93286285D01*
X85709142Y-93229142D01*
X85766285Y-93172000D01*
X85852000Y-93143428D01*
X85909142Y-93143428D01*
X85994857Y-93172000D01*
X86023428Y-93200571D01*
X86280571Y-93743428D02*
X86280571Y-93143428D01*
X86623428Y-93743428D02*
X86366285Y-93400571D01*
X86623428Y-93143428D02*
X86280571Y-93486285D01*
X77774857Y-93172000D02*
X77717714Y-93143428D01*
X77632000Y-93143428D01*
X77546285Y-93172000D01*
X77489142Y-93229142D01*
X77460571Y-93286285D01*
X77432000Y-93400571D01*
X77432000Y-93486285D01*
X77460571Y-93600571D01*
X77489142Y-93657714D01*
X77546285Y-93714857D01*
X77632000Y-93743428D01*
X77689142Y-93743428D01*
X77774857Y-93714857D01*
X77803428Y-93686285D01*
X77803428Y-93486285D01*
X77689142Y-93486285D01*
X78060571Y-93743428D02*
X78060571Y-93143428D01*
X78403428Y-93743428D01*
X78403428Y-93143428D01*
X78689142Y-93743428D02*
X78689142Y-93143428D01*
X78832000Y-93143428D01*
X78917714Y-93172000D01*
X78974857Y-93229142D01*
X79003428Y-93286285D01*
X79032000Y-93400571D01*
X79032000Y-93486285D01*
X79003428Y-93600571D01*
X78974857Y-93657714D01*
X78917714Y-93714857D01*
X78832000Y-93743428D01*
X78689142Y-93743428D01*
X73456857Y-93143428D02*
X73799714Y-93143428D01*
X73628285Y-93743428D02*
X73628285Y-93143428D01*
X73942571Y-93143428D02*
X74342571Y-93743428D01*
X74342571Y-93143428D02*
X73942571Y-93743428D01*
X71274000Y-93743428D02*
X71074000Y-93457714D01*
X70931142Y-93743428D02*
X70931142Y-93143428D01*
X71159714Y-93143428D01*
X71216857Y-93172000D01*
X71245428Y-93200571D01*
X71274000Y-93257714D01*
X71274000Y-93343428D01*
X71245428Y-93400571D01*
X71216857Y-93429142D01*
X71159714Y-93457714D01*
X70931142Y-93457714D01*
X71474000Y-93143428D02*
X71874000Y-93743428D01*
X71874000Y-93143428D02*
X71474000Y-93743428D01*
X68119714Y-93143428D02*
X68319714Y-93743428D01*
X68519714Y-93143428D01*
X68976857Y-93714857D02*
X68919714Y-93743428D01*
X68805428Y-93743428D01*
X68748285Y-93714857D01*
X68719714Y-93686285D01*
X68691142Y-93629142D01*
X68691142Y-93457714D01*
X68719714Y-93400571D01*
X68748285Y-93372000D01*
X68805428Y-93343428D01*
X68919714Y-93343428D01*
X68976857Y-93372000D01*
X69491142Y-93714857D02*
X69434000Y-93743428D01*
X69319714Y-93743428D01*
X69262571Y-93714857D01*
X69234000Y-93686285D01*
X69205428Y-93629142D01*
X69205428Y-93457714D01*
X69234000Y-93400571D01*
X69262571Y-93372000D01*
X69319714Y-93343428D01*
X69434000Y-93343428D01*
X69491142Y-93372000D01*
X65836857Y-93172000D02*
X65779714Y-93143428D01*
X65694000Y-93143428D01*
X65608285Y-93172000D01*
X65551142Y-93229142D01*
X65522571Y-93286285D01*
X65494000Y-93400571D01*
X65494000Y-93486285D01*
X65522571Y-93600571D01*
X65551142Y-93657714D01*
X65608285Y-93714857D01*
X65694000Y-93743428D01*
X65751142Y-93743428D01*
X65836857Y-93714857D01*
X65865428Y-93686285D01*
X65865428Y-93486285D01*
X65751142Y-93486285D01*
X66122571Y-93743428D02*
X66122571Y-93143428D01*
X66465428Y-93743428D01*
X66465428Y-93143428D01*
X66751142Y-93743428D02*
X66751142Y-93143428D01*
X66894000Y-93143428D01*
X66979714Y-93172000D01*
X67036857Y-93229142D01*
X67065428Y-93286285D01*
X67094000Y-93400571D01*
X67094000Y-93486285D01*
X67065428Y-93600571D01*
X67036857Y-93657714D01*
X66979714Y-93714857D01*
X66894000Y-93743428D01*
X66751142Y-93743428D01*
X56599142Y-99296285D02*
X56627714Y-99210571D01*
X56656285Y-99182000D01*
X56713428Y-99153428D01*
X56799142Y-99153428D01*
X56856285Y-99182000D01*
X56884857Y-99210571D01*
X56913428Y-99267714D01*
X56913428Y-99496285D01*
X56313428Y-99496285D01*
X56313428Y-99296285D01*
X56342000Y-99239142D01*
X56370571Y-99210571D01*
X56427714Y-99182000D01*
X56484857Y-99182000D01*
X56542000Y-99210571D01*
X56570571Y-99239142D01*
X56599142Y-99296285D01*
X56599142Y-99496285D01*
X56913428Y-98639142D02*
X56599142Y-98639142D01*
X56542000Y-98667714D01*
X56513428Y-98724857D01*
X56513428Y-98839142D01*
X56542000Y-98896285D01*
X56884857Y-98639142D02*
X56913428Y-98696285D01*
X56913428Y-98839142D01*
X56884857Y-98896285D01*
X56827714Y-98924857D01*
X56770571Y-98924857D01*
X56713428Y-98896285D01*
X56684857Y-98839142D01*
X56684857Y-98696285D01*
X56656285Y-98639142D01*
X56513428Y-98439142D02*
X56513428Y-98210571D01*
X56313428Y-98353428D02*
X56827714Y-98353428D01*
X56884857Y-98324857D01*
X56913428Y-98267714D01*
X56913428Y-98210571D01*
X56513428Y-98096285D02*
X56513428Y-97867714D01*
X56313428Y-98010571D02*
X56827714Y-98010571D01*
X56884857Y-97982000D01*
X56913428Y-97924857D01*
X56913428Y-97867714D01*
X56884857Y-97439142D02*
X56913428Y-97496285D01*
X56913428Y-97610571D01*
X56884857Y-97667714D01*
X56827714Y-97696285D01*
X56599142Y-97696285D01*
X56542000Y-97667714D01*
X56513428Y-97610571D01*
X56513428Y-97496285D01*
X56542000Y-97439142D01*
X56599142Y-97410571D01*
X56656285Y-97410571D01*
X56713428Y-97696285D01*
X56913428Y-97153428D02*
X56513428Y-97153428D01*
X56627714Y-97153428D02*
X56570571Y-97124857D01*
X56542000Y-97096285D01*
X56513428Y-97039142D01*
X56513428Y-96982000D01*
X56513428Y-96839142D02*
X56913428Y-96696285D01*
X56513428Y-96553428D02*
X56913428Y-96696285D01*
X57056285Y-96753428D01*
X57084857Y-96782000D01*
X57113428Y-96839142D01*
X56313428Y-95924857D02*
X56313428Y-95553428D01*
X56542000Y-95753428D01*
X56542000Y-95667714D01*
X56570571Y-95610571D01*
X56599142Y-95582000D01*
X56656285Y-95553428D01*
X56799142Y-95553428D01*
X56856285Y-95582000D01*
X56884857Y-95610571D01*
X56913428Y-95667714D01*
X56913428Y-95839142D01*
X56884857Y-95896285D01*
X56856285Y-95924857D01*
X56313428Y-95382000D02*
X56913428Y-95182000D01*
X56313428Y-94982000D01*
X54660857Y-100030000D02*
X54603714Y-100001428D01*
X54518000Y-100001428D01*
X54432285Y-100030000D01*
X54375142Y-100087142D01*
X54346571Y-100144285D01*
X54318000Y-100258571D01*
X54318000Y-100344285D01*
X54346571Y-100458571D01*
X54375142Y-100515714D01*
X54432285Y-100572857D01*
X54518000Y-100601428D01*
X54575142Y-100601428D01*
X54660857Y-100572857D01*
X54689428Y-100544285D01*
X54689428Y-100344285D01*
X54575142Y-100344285D01*
X54946571Y-100601428D02*
X54946571Y-100001428D01*
X55289428Y-100601428D01*
X55289428Y-100001428D01*
X55575142Y-100601428D02*
X55575142Y-100001428D01*
X55718000Y-100001428D01*
X55803714Y-100030000D01*
X55860857Y-100087142D01*
X55889428Y-100144285D01*
X55918000Y-100258571D01*
X55918000Y-100344285D01*
X55889428Y-100458571D01*
X55860857Y-100515714D01*
X55803714Y-100572857D01*
X55718000Y-100601428D01*
X55575142Y-100601428D01*
X54514857Y-93143428D02*
X54886285Y-93143428D01*
X54686285Y-93372000D01*
X54772000Y-93372000D01*
X54829142Y-93400571D01*
X54857714Y-93429142D01*
X54886285Y-93486285D01*
X54886285Y-93629142D01*
X54857714Y-93686285D01*
X54829142Y-93714857D01*
X54772000Y-93743428D01*
X54600571Y-93743428D01*
X54543428Y-93714857D01*
X54514857Y-93686285D01*
X55143428Y-93686285D02*
X55172000Y-93714857D01*
X55143428Y-93743428D01*
X55114857Y-93714857D01*
X55143428Y-93686285D01*
X55143428Y-93743428D01*
X55372000Y-93143428D02*
X55743428Y-93143428D01*
X55543428Y-93372000D01*
X55629142Y-93372000D01*
X55686285Y-93400571D01*
X55714857Y-93429142D01*
X55743428Y-93486285D01*
X55743428Y-93629142D01*
X55714857Y-93686285D01*
X55686285Y-93714857D01*
X55629142Y-93743428D01*
X55457714Y-93743428D01*
X55400571Y-93714857D01*
X55372000Y-93686285D01*
X55943428Y-93343428D02*
X56086285Y-93743428D01*
X56229142Y-93343428D01*
D11*
%TO.C,BT1*%
X53280000Y-99628000D02*
X55940000Y-99628000D01*
X53280000Y-97028000D02*
X53280000Y-99628000D01*
X55940000Y-97028000D02*
X55940000Y-99628000D01*
X53280000Y-97028000D02*
X55940000Y-97028000D01*
X53280000Y-95758000D02*
X53280000Y-94428000D01*
X53280000Y-94428000D02*
X54610000Y-94428000D01*
%TO.C,C1*%
X69334748Y-99366000D02*
X69857252Y-99366000D01*
X69334748Y-100786000D02*
X69857252Y-100786000D01*
%TO.C,C2*%
X69334748Y-97484000D02*
X69857252Y-97484000D01*
X69334748Y-96064000D02*
X69857252Y-96064000D01*
%TO.C,C3*%
X83694748Y-104573000D02*
X84217252Y-104573000D01*
X83694748Y-105993000D02*
X84217252Y-105993000D01*
%TO.C,D1*%
X89891000Y-108215000D02*
X87031000Y-108215000D01*
X87031000Y-108215000D02*
X87031000Y-110135000D01*
X87031000Y-110135000D02*
X89891000Y-110135000D01*
%TO.C,J1*%
X67564000Y-117408000D02*
X67564000Y-114748000D01*
X67564000Y-117408000D02*
X87944000Y-117408000D01*
X87944000Y-117408000D02*
X87944000Y-114748000D01*
X67564000Y-114748000D02*
X87944000Y-114748000D01*
X64964000Y-114748000D02*
X66294000Y-114748000D01*
X64964000Y-116078000D02*
X64964000Y-114748000D01*
%TO.C,Serial*%
X65091000Y-91059000D02*
X65091000Y-89729000D01*
X65091000Y-89729000D02*
X66421000Y-89729000D01*
X67691000Y-89729000D02*
X75371000Y-89729000D01*
X75371000Y-92389000D02*
X75371000Y-89729000D01*
X67691000Y-92389000D02*
X75371000Y-92389000D01*
X67691000Y-92389000D02*
X67691000Y-89729000D01*
%TO.C,J3*%
X53280000Y-104461000D02*
X55880000Y-104461000D01*
X53280000Y-104461000D02*
X53280000Y-112201000D01*
X53280000Y-112201000D02*
X58480000Y-112201000D01*
X58480000Y-107061000D02*
X58480000Y-112201000D01*
X55880000Y-107061000D02*
X58480000Y-107061000D01*
X55880000Y-104461000D02*
X55880000Y-107061000D01*
X58480000Y-104461000D02*
X58480000Y-105791000D01*
X57150000Y-104461000D02*
X58480000Y-104461000D01*
%TO.C,J4*%
X79502000Y-92389000D02*
X79502000Y-89729000D01*
X79502000Y-92389000D02*
X87182000Y-92389000D01*
X87182000Y-92389000D02*
X87182000Y-89729000D01*
X79502000Y-89729000D02*
X87182000Y-89729000D01*
X76902000Y-89729000D02*
X78232000Y-89729000D01*
X76902000Y-91059000D02*
X76902000Y-89729000D01*
%TO.C,R1*%
X83812748Y-108510000D02*
X84335252Y-108510000D01*
X83812748Y-109930000D02*
X84335252Y-109930000D01*
%TO.C,R2*%
X59165748Y-92619000D02*
X59688252Y-92619000D01*
X59165748Y-91199000D02*
X59688252Y-91199000D01*
%TO.C,U1*%
X86995000Y-101127000D02*
X89755000Y-101127000D01*
X89755000Y-101127000D02*
X89755000Y-100382000D01*
X86995000Y-101127000D02*
X84235000Y-101127000D01*
X84235000Y-101127000D02*
X84235000Y-100382000D01*
X86995000Y-94707000D02*
X89755000Y-94707000D01*
X89755000Y-94707000D02*
X89755000Y-95452000D01*
X86995000Y-94707000D02*
X84235000Y-94707000D01*
X84235000Y-94707000D02*
X84235000Y-95452000D01*
X84235000Y-95452000D02*
X82545000Y-95452000D01*
D10*
%TO.C,U2*%
X73958000Y-104257000D02*
X72208000Y-104257000D01*
X73958000Y-109562000D02*
X79458000Y-109562000D01*
X73958000Y-104052000D02*
X79458000Y-104052000D01*
X73958000Y-109562000D02*
X73958000Y-109262000D01*
X79458000Y-109562000D02*
X79458000Y-109262000D01*
X79458000Y-104052000D02*
X79458000Y-104352000D01*
X73958000Y-104052000D02*
X73958000Y-104257000D01*
%TO.C,U3*%
X73958000Y-95289000D02*
X73958000Y-95494000D01*
X79458000Y-95289000D02*
X79458000Y-95589000D01*
X79458000Y-100799000D02*
X79458000Y-100499000D01*
X73958000Y-100799000D02*
X73958000Y-100499000D01*
X73958000Y-95289000D02*
X79458000Y-95289000D01*
X73958000Y-100799000D02*
X79458000Y-100799000D01*
X73958000Y-95494000D02*
X72208000Y-95494000D01*
D12*
%TO.C,U4*%
X62636000Y-102953000D02*
X62536000Y-102953000D01*
X62536000Y-102953000D02*
X62186000Y-103303000D01*
X62186000Y-103303000D02*
X62186000Y-103403000D01*
X62186000Y-103403000D02*
X60886000Y-103403000D01*
X69386000Y-102953000D02*
X68936000Y-102953000D01*
X69386000Y-102953000D02*
X69386000Y-103403000D01*
X69386000Y-110153000D02*
X69386000Y-109703000D01*
X69386000Y-110153000D02*
X68936000Y-110153000D01*
X62186000Y-110153000D02*
X62636000Y-110153000D01*
X62186000Y-110153000D02*
X62186000Y-109703000D01*
D11*
%TO.C,Y1*%
X87588000Y-104083000D02*
X88688000Y-104083000D01*
X87588000Y-105983000D02*
X88688000Y-105983000D01*
X86188000Y-104133000D02*
X86188000Y-105933000D01*
%TO.C,Y2*%
X64803000Y-94085000D02*
X57553000Y-94085000D01*
X57553000Y-94085000D02*
X57553000Y-97685000D01*
X57553000Y-97685000D02*
X64803000Y-97685000D01*
%TO.C,BT1*%
D10*
X52360571Y-93385142D02*
X52446285Y-93413714D01*
X52474857Y-93442285D01*
X52503428Y-93499428D01*
X52503428Y-93585142D01*
X52474857Y-93642285D01*
X52446285Y-93670857D01*
X52389142Y-93699428D01*
X52160571Y-93699428D01*
X52160571Y-93099428D01*
X52360571Y-93099428D01*
X52417714Y-93128000D01*
X52446285Y-93156571D01*
X52474857Y-93213714D01*
X52474857Y-93270857D01*
X52446285Y-93328000D01*
X52417714Y-93356571D01*
X52360571Y-93385142D01*
X52160571Y-93385142D01*
X52674857Y-93099428D02*
X53017714Y-93099428D01*
X52846285Y-93699428D02*
X52846285Y-93099428D01*
X53532000Y-93699428D02*
X53189142Y-93699428D01*
X53360571Y-93699428D02*
X53360571Y-93099428D01*
X53303428Y-93185142D01*
X53246285Y-93242285D01*
X53189142Y-93270857D01*
%TO.C,C1*%
X66448000Y-99528285D02*
X66419428Y-99556857D01*
X66333714Y-99585428D01*
X66276571Y-99585428D01*
X66190857Y-99556857D01*
X66133714Y-99499714D01*
X66105142Y-99442571D01*
X66076571Y-99328285D01*
X66076571Y-99242571D01*
X66105142Y-99128285D01*
X66133714Y-99071142D01*
X66190857Y-99014000D01*
X66276571Y-98985428D01*
X66333714Y-98985428D01*
X66419428Y-99014000D01*
X66448000Y-99042571D01*
X67019428Y-99585428D02*
X66676571Y-99585428D01*
X66848000Y-99585428D02*
X66848000Y-98985428D01*
X66790857Y-99071142D01*
X66733714Y-99128285D01*
X66676571Y-99156857D01*
X65562285Y-100058571D02*
X65590857Y-100030000D01*
X65648000Y-100001428D01*
X65790857Y-100001428D01*
X65848000Y-100030000D01*
X65876571Y-100058571D01*
X65905142Y-100115714D01*
X65905142Y-100172857D01*
X65876571Y-100258571D01*
X65533714Y-100601428D01*
X65905142Y-100601428D01*
X66133714Y-100058571D02*
X66162285Y-100030000D01*
X66219428Y-100001428D01*
X66362285Y-100001428D01*
X66419428Y-100030000D01*
X66448000Y-100058571D01*
X66476571Y-100115714D01*
X66476571Y-100172857D01*
X66448000Y-100258571D01*
X66105142Y-100601428D01*
X66476571Y-100601428D01*
X66733714Y-100201428D02*
X66733714Y-100801428D01*
X66733714Y-100230000D02*
X66790857Y-100201428D01*
X66905142Y-100201428D01*
X66962285Y-100230000D01*
X66990857Y-100258571D01*
X67019428Y-100315714D01*
X67019428Y-100487142D01*
X66990857Y-100544285D01*
X66962285Y-100572857D01*
X66905142Y-100601428D01*
X66790857Y-100601428D01*
X66733714Y-100572857D01*
X67476571Y-100287142D02*
X67276571Y-100287142D01*
X67276571Y-100601428D02*
X67276571Y-100001428D01*
X67562285Y-100001428D01*
%TO.C,C2*%
X67718000Y-95210285D02*
X67689428Y-95238857D01*
X67603714Y-95267428D01*
X67546571Y-95267428D01*
X67460857Y-95238857D01*
X67403714Y-95181714D01*
X67375142Y-95124571D01*
X67346571Y-95010285D01*
X67346571Y-94924571D01*
X67375142Y-94810285D01*
X67403714Y-94753142D01*
X67460857Y-94696000D01*
X67546571Y-94667428D01*
X67603714Y-94667428D01*
X67689428Y-94696000D01*
X67718000Y-94724571D01*
X67946571Y-94724571D02*
X67975142Y-94696000D01*
X68032285Y-94667428D01*
X68175142Y-94667428D01*
X68232285Y-94696000D01*
X68260857Y-94724571D01*
X68289428Y-94781714D01*
X68289428Y-94838857D01*
X68260857Y-94924571D01*
X67918000Y-95267428D01*
X68289428Y-95267428D01*
X69626285Y-94724571D02*
X69654857Y-94696000D01*
X69712000Y-94667428D01*
X69854857Y-94667428D01*
X69912000Y-94696000D01*
X69940571Y-94724571D01*
X69969142Y-94781714D01*
X69969142Y-94838857D01*
X69940571Y-94924571D01*
X69597714Y-95267428D01*
X69969142Y-95267428D01*
X70197714Y-94724571D02*
X70226285Y-94696000D01*
X70283428Y-94667428D01*
X70426285Y-94667428D01*
X70483428Y-94696000D01*
X70512000Y-94724571D01*
X70540571Y-94781714D01*
X70540571Y-94838857D01*
X70512000Y-94924571D01*
X70169142Y-95267428D01*
X70540571Y-95267428D01*
X70797714Y-94867428D02*
X70797714Y-95467428D01*
X70797714Y-94896000D02*
X70854857Y-94867428D01*
X70969142Y-94867428D01*
X71026285Y-94896000D01*
X71054857Y-94924571D01*
X71083428Y-94981714D01*
X71083428Y-95153142D01*
X71054857Y-95210285D01*
X71026285Y-95238857D01*
X70969142Y-95267428D01*
X70854857Y-95267428D01*
X70797714Y-95238857D01*
X71540571Y-94953142D02*
X71340571Y-94953142D01*
X71340571Y-95267428D02*
X71340571Y-94667428D01*
X71626285Y-94667428D01*
%TO.C,C3*%
X82450000Y-104100285D02*
X82421428Y-104128857D01*
X82335714Y-104157428D01*
X82278571Y-104157428D01*
X82192857Y-104128857D01*
X82135714Y-104071714D01*
X82107142Y-104014571D01*
X82078571Y-103900285D01*
X82078571Y-103814571D01*
X82107142Y-103700285D01*
X82135714Y-103643142D01*
X82192857Y-103586000D01*
X82278571Y-103557428D01*
X82335714Y-103557428D01*
X82421428Y-103586000D01*
X82450000Y-103614571D01*
X82650000Y-103557428D02*
X83021428Y-103557428D01*
X82821428Y-103786000D01*
X82907142Y-103786000D01*
X82964285Y-103814571D01*
X82992857Y-103843142D01*
X83021428Y-103900285D01*
X83021428Y-104043142D01*
X82992857Y-104100285D01*
X82964285Y-104128857D01*
X82907142Y-104157428D01*
X82735714Y-104157428D01*
X82678571Y-104128857D01*
X82650000Y-104100285D01*
X83939142Y-104157428D02*
X83596285Y-104157428D01*
X83767714Y-104157428D02*
X83767714Y-103557428D01*
X83710571Y-103643142D01*
X83653428Y-103700285D01*
X83596285Y-103728857D01*
X84310571Y-103557428D02*
X84367714Y-103557428D01*
X84424857Y-103586000D01*
X84453428Y-103614571D01*
X84482000Y-103671714D01*
X84510571Y-103786000D01*
X84510571Y-103928857D01*
X84482000Y-104043142D01*
X84453428Y-104100285D01*
X84424857Y-104128857D01*
X84367714Y-104157428D01*
X84310571Y-104157428D01*
X84253428Y-104128857D01*
X84224857Y-104100285D01*
X84196285Y-104043142D01*
X84167714Y-103928857D01*
X84167714Y-103786000D01*
X84196285Y-103671714D01*
X84224857Y-103614571D01*
X84253428Y-103586000D01*
X84310571Y-103557428D01*
X85024857Y-103757428D02*
X85024857Y-104157428D01*
X84767714Y-103757428D02*
X84767714Y-104071714D01*
X84796285Y-104128857D01*
X84853428Y-104157428D01*
X84939142Y-104157428D01*
X84996285Y-104128857D01*
X85024857Y-104100285D01*
X85510571Y-103843142D02*
X85310571Y-103843142D01*
X85310571Y-104157428D02*
X85310571Y-103557428D01*
X85596285Y-103557428D01*
%TO.C,D1*%
X86933142Y-107967428D02*
X86933142Y-107367428D01*
X87076000Y-107367428D01*
X87161714Y-107396000D01*
X87218857Y-107453142D01*
X87247428Y-107510285D01*
X87276000Y-107624571D01*
X87276000Y-107710285D01*
X87247428Y-107824571D01*
X87218857Y-107881714D01*
X87161714Y-107938857D01*
X87076000Y-107967428D01*
X86933142Y-107967428D01*
X87847428Y-107967428D02*
X87504571Y-107967428D01*
X87676000Y-107967428D02*
X87676000Y-107367428D01*
X87618857Y-107453142D01*
X87561714Y-107510285D01*
X87504571Y-107538857D01*
X89530285Y-107967428D02*
X89244571Y-107967428D01*
X89244571Y-107367428D01*
X89730285Y-107653142D02*
X89930285Y-107653142D01*
X90016000Y-107967428D02*
X89730285Y-107967428D01*
X89730285Y-107367428D01*
X90016000Y-107367428D01*
X90273142Y-107967428D02*
X90273142Y-107367428D01*
X90416000Y-107367428D01*
X90501714Y-107396000D01*
X90558857Y-107453142D01*
X90587428Y-107510285D01*
X90616000Y-107624571D01*
X90616000Y-107710285D01*
X90587428Y-107824571D01*
X90558857Y-107881714D01*
X90501714Y-107938857D01*
X90416000Y-107967428D01*
X90273142Y-107967428D01*
%TO.C,J1*%
X63195428Y-116278000D02*
X63624000Y-116278000D01*
X63709714Y-116306571D01*
X63766857Y-116363714D01*
X63795428Y-116449428D01*
X63795428Y-116506571D01*
X63795428Y-115678000D02*
X63795428Y-116020857D01*
X63795428Y-115849428D02*
X63195428Y-115849428D01*
X63281142Y-115906571D01*
X63338285Y-115963714D01*
X63366857Y-116020857D01*
%TO.C,Serial*%
X63893857Y-92244714D02*
X63922428Y-92159000D01*
X63922428Y-92016142D01*
X63893857Y-91959000D01*
X63865285Y-91930428D01*
X63808142Y-91901857D01*
X63751000Y-91901857D01*
X63693857Y-91930428D01*
X63665285Y-91959000D01*
X63636714Y-92016142D01*
X63608142Y-92130428D01*
X63579571Y-92187571D01*
X63551000Y-92216142D01*
X63493857Y-92244714D01*
X63436714Y-92244714D01*
X63379571Y-92216142D01*
X63351000Y-92187571D01*
X63322428Y-92130428D01*
X63322428Y-91987571D01*
X63351000Y-91901857D01*
X63893857Y-91416142D02*
X63922428Y-91473285D01*
X63922428Y-91587571D01*
X63893857Y-91644714D01*
X63836714Y-91673285D01*
X63608142Y-91673285D01*
X63551000Y-91644714D01*
X63522428Y-91587571D01*
X63522428Y-91473285D01*
X63551000Y-91416142D01*
X63608142Y-91387571D01*
X63665285Y-91387571D01*
X63722428Y-91673285D01*
X63922428Y-91130428D02*
X63522428Y-91130428D01*
X63636714Y-91130428D02*
X63579571Y-91101857D01*
X63551000Y-91073285D01*
X63522428Y-91016142D01*
X63522428Y-90959000D01*
X63922428Y-90759000D02*
X63522428Y-90759000D01*
X63322428Y-90759000D02*
X63351000Y-90787571D01*
X63379571Y-90759000D01*
X63351000Y-90730428D01*
X63322428Y-90759000D01*
X63379571Y-90759000D01*
X63922428Y-90216142D02*
X63608142Y-90216142D01*
X63551000Y-90244714D01*
X63522428Y-90301857D01*
X63522428Y-90416142D01*
X63551000Y-90473285D01*
X63893857Y-90216142D02*
X63922428Y-90273285D01*
X63922428Y-90416142D01*
X63893857Y-90473285D01*
X63836714Y-90501857D01*
X63779571Y-90501857D01*
X63722428Y-90473285D01*
X63693857Y-90416142D01*
X63693857Y-90273285D01*
X63665285Y-90216142D01*
X63922428Y-89844714D02*
X63893857Y-89901857D01*
X63836714Y-89930428D01*
X63322428Y-89930428D01*
%TO.C,J3*%
X55680000Y-102692428D02*
X55680000Y-103121000D01*
X55651428Y-103206714D01*
X55594285Y-103263857D01*
X55508571Y-103292428D01*
X55451428Y-103292428D01*
X55908571Y-102692428D02*
X56280000Y-102692428D01*
X56080000Y-102921000D01*
X56165714Y-102921000D01*
X56222857Y-102949571D01*
X56251428Y-102978142D01*
X56280000Y-103035285D01*
X56280000Y-103178142D01*
X56251428Y-103235285D01*
X56222857Y-103263857D01*
X56165714Y-103292428D01*
X55994285Y-103292428D01*
X55937142Y-103263857D01*
X55908571Y-103235285D01*
X54994285Y-113912428D02*
X54994285Y-113312428D01*
X55622857Y-113855285D02*
X55594285Y-113883857D01*
X55508571Y-113912428D01*
X55451428Y-113912428D01*
X55365714Y-113883857D01*
X55308571Y-113826714D01*
X55280000Y-113769571D01*
X55251428Y-113655285D01*
X55251428Y-113569571D01*
X55280000Y-113455285D01*
X55308571Y-113398142D01*
X55365714Y-113341000D01*
X55451428Y-113312428D01*
X55508571Y-113312428D01*
X55594285Y-113341000D01*
X55622857Y-113369571D01*
X55851428Y-113883857D02*
X55937142Y-113912428D01*
X56080000Y-113912428D01*
X56137142Y-113883857D01*
X56165714Y-113855285D01*
X56194285Y-113798142D01*
X56194285Y-113741000D01*
X56165714Y-113683857D01*
X56137142Y-113655285D01*
X56080000Y-113626714D01*
X55965714Y-113598142D01*
X55908571Y-113569571D01*
X55880000Y-113541000D01*
X55851428Y-113483857D01*
X55851428Y-113426714D01*
X55880000Y-113369571D01*
X55908571Y-113341000D01*
X55965714Y-113312428D01*
X56108571Y-113312428D01*
X56194285Y-113341000D01*
X56451428Y-113912428D02*
X56451428Y-113312428D01*
X56680000Y-113312428D01*
X56737142Y-113341000D01*
X56765714Y-113369571D01*
X56794285Y-113426714D01*
X56794285Y-113512428D01*
X56765714Y-113569571D01*
X56737142Y-113598142D01*
X56680000Y-113626714D01*
X56451428Y-113626714D01*
%TO.C,J4*%
X75617428Y-91386000D02*
X76046000Y-91386000D01*
X76131714Y-91414571D01*
X76188857Y-91471714D01*
X76217428Y-91557428D01*
X76217428Y-91614571D01*
X75817428Y-90843142D02*
X76217428Y-90843142D01*
X75588857Y-90986000D02*
X76017428Y-91128857D01*
X76017428Y-90757428D01*
%TO.C,R1*%
X81688000Y-109745428D02*
X81488000Y-109459714D01*
X81345142Y-109745428D02*
X81345142Y-109145428D01*
X81573714Y-109145428D01*
X81630857Y-109174000D01*
X81659428Y-109202571D01*
X81688000Y-109259714D01*
X81688000Y-109345428D01*
X81659428Y-109402571D01*
X81630857Y-109431142D01*
X81573714Y-109459714D01*
X81345142Y-109459714D01*
X82259428Y-109745428D02*
X81916571Y-109745428D01*
X82088000Y-109745428D02*
X82088000Y-109145428D01*
X82030857Y-109231142D01*
X81973714Y-109288285D01*
X81916571Y-109316857D01*
X82570857Y-107621428D02*
X82942285Y-107621428D01*
X82742285Y-107850000D01*
X82828000Y-107850000D01*
X82885142Y-107878571D01*
X82913714Y-107907142D01*
X82942285Y-107964285D01*
X82942285Y-108107142D01*
X82913714Y-108164285D01*
X82885142Y-108192857D01*
X82828000Y-108221428D01*
X82656571Y-108221428D01*
X82599428Y-108192857D01*
X82570857Y-108164285D01*
X83142285Y-107621428D02*
X83513714Y-107621428D01*
X83313714Y-107850000D01*
X83399428Y-107850000D01*
X83456571Y-107878571D01*
X83485142Y-107907142D01*
X83513714Y-107964285D01*
X83513714Y-108107142D01*
X83485142Y-108164285D01*
X83456571Y-108192857D01*
X83399428Y-108221428D01*
X83228000Y-108221428D01*
X83170857Y-108192857D01*
X83142285Y-108164285D01*
X83885142Y-107621428D02*
X83942285Y-107621428D01*
X83999428Y-107650000D01*
X84028000Y-107678571D01*
X84056571Y-107735714D01*
X84085142Y-107850000D01*
X84085142Y-107992857D01*
X84056571Y-108107142D01*
X84028000Y-108164285D01*
X83999428Y-108192857D01*
X83942285Y-108221428D01*
X83885142Y-108221428D01*
X83828000Y-108192857D01*
X83799428Y-108164285D01*
X83770857Y-108107142D01*
X83742285Y-107992857D01*
X83742285Y-107850000D01*
X83770857Y-107735714D01*
X83799428Y-107678571D01*
X83828000Y-107650000D01*
X83885142Y-107621428D01*
X84456571Y-107621428D02*
X84570857Y-107621428D01*
X84628000Y-107650000D01*
X84685142Y-107707142D01*
X84713714Y-107821428D01*
X84713714Y-108021428D01*
X84685142Y-108135714D01*
X84628000Y-108192857D01*
X84570857Y-108221428D01*
X84456571Y-108221428D01*
X84399428Y-108192857D01*
X84342285Y-108135714D01*
X84313714Y-108021428D01*
X84313714Y-107821428D01*
X84342285Y-107707142D01*
X84399428Y-107650000D01*
X84456571Y-107621428D01*
X84970857Y-108221428D02*
X84970857Y-107621428D01*
X85228000Y-108221428D02*
X85228000Y-107907142D01*
X85199428Y-107850000D01*
X85142285Y-107821428D01*
X85056571Y-107821428D01*
X84999428Y-107850000D01*
X84970857Y-107878571D01*
X85513714Y-108221428D02*
X85513714Y-107821428D01*
X85513714Y-107878571D02*
X85542285Y-107850000D01*
X85599428Y-107821428D01*
X85685142Y-107821428D01*
X85742285Y-107850000D01*
X85770857Y-107907142D01*
X85770857Y-108221428D01*
X85770857Y-107907142D02*
X85799428Y-107850000D01*
X85856571Y-107821428D01*
X85942285Y-107821428D01*
X85999428Y-107850000D01*
X86028000Y-107907142D01*
X86028000Y-108221428D01*
%TO.C,R2*%
X56542000Y-91965428D02*
X56342000Y-91679714D01*
X56199142Y-91965428D02*
X56199142Y-91365428D01*
X56427714Y-91365428D01*
X56484857Y-91394000D01*
X56513428Y-91422571D01*
X56542000Y-91479714D01*
X56542000Y-91565428D01*
X56513428Y-91622571D01*
X56484857Y-91651142D01*
X56427714Y-91679714D01*
X56199142Y-91679714D01*
X56770571Y-91422571D02*
X56799142Y-91394000D01*
X56856285Y-91365428D01*
X56999142Y-91365428D01*
X57056285Y-91394000D01*
X57084857Y-91422571D01*
X57113428Y-91479714D01*
X57113428Y-91536857D01*
X57084857Y-91622571D01*
X56742000Y-91965428D01*
X57113428Y-91965428D01*
X58093142Y-90695428D02*
X57750285Y-90695428D01*
X57921714Y-90695428D02*
X57921714Y-90095428D01*
X57864571Y-90181142D01*
X57807428Y-90238285D01*
X57750285Y-90266857D01*
X58464571Y-90095428D02*
X58521714Y-90095428D01*
X58578857Y-90124000D01*
X58607428Y-90152571D01*
X58636000Y-90209714D01*
X58664571Y-90324000D01*
X58664571Y-90466857D01*
X58636000Y-90581142D01*
X58607428Y-90638285D01*
X58578857Y-90666857D01*
X58521714Y-90695428D01*
X58464571Y-90695428D01*
X58407428Y-90666857D01*
X58378857Y-90638285D01*
X58350285Y-90581142D01*
X58321714Y-90466857D01*
X58321714Y-90324000D01*
X58350285Y-90209714D01*
X58378857Y-90152571D01*
X58407428Y-90124000D01*
X58464571Y-90095428D01*
X58921714Y-90695428D02*
X58921714Y-90095428D01*
X58978857Y-90466857D02*
X59150285Y-90695428D01*
X59150285Y-90295428D02*
X58921714Y-90524000D01*
X59521714Y-90095428D02*
X59636000Y-90095428D01*
X59693142Y-90124000D01*
X59750285Y-90181142D01*
X59778857Y-90295428D01*
X59778857Y-90495428D01*
X59750285Y-90609714D01*
X59693142Y-90666857D01*
X59636000Y-90695428D01*
X59521714Y-90695428D01*
X59464571Y-90666857D01*
X59407428Y-90609714D01*
X59378857Y-90495428D01*
X59378857Y-90295428D01*
X59407428Y-90181142D01*
X59464571Y-90124000D01*
X59521714Y-90095428D01*
X60036000Y-90695428D02*
X60036000Y-90095428D01*
X60293142Y-90695428D02*
X60293142Y-90381142D01*
X60264571Y-90324000D01*
X60207428Y-90295428D01*
X60121714Y-90295428D01*
X60064571Y-90324000D01*
X60036000Y-90352571D01*
X60578857Y-90695428D02*
X60578857Y-90295428D01*
X60578857Y-90352571D02*
X60607428Y-90324000D01*
X60664571Y-90295428D01*
X60750285Y-90295428D01*
X60807428Y-90324000D01*
X60836000Y-90381142D01*
X60836000Y-90695428D01*
X60836000Y-90381142D02*
X60864571Y-90324000D01*
X60921714Y-90295428D01*
X61007428Y-90295428D01*
X61064571Y-90324000D01*
X61093142Y-90381142D01*
X61093142Y-90695428D01*
%TO.C,U1*%
X82854857Y-94413428D02*
X82854857Y-94899142D01*
X82883428Y-94956285D01*
X82912000Y-94984857D01*
X82969142Y-95013428D01*
X83083428Y-95013428D01*
X83140571Y-94984857D01*
X83169142Y-94956285D01*
X83197714Y-94899142D01*
X83197714Y-94413428D01*
X83797714Y-95013428D02*
X83454857Y-95013428D01*
X83626285Y-95013428D02*
X83626285Y-94413428D01*
X83569142Y-94499142D01*
X83512000Y-94556285D01*
X83454857Y-94584857D01*
X87028571Y-94251428D02*
X87028571Y-93651428D01*
X87171428Y-93651428D01*
X87257142Y-93680000D01*
X87314285Y-93737142D01*
X87342857Y-93794285D01*
X87371428Y-93908571D01*
X87371428Y-93994285D01*
X87342857Y-94108571D01*
X87314285Y-94165714D01*
X87257142Y-94222857D01*
X87171428Y-94251428D01*
X87028571Y-94251428D01*
X87600000Y-94222857D02*
X87685714Y-94251428D01*
X87828571Y-94251428D01*
X87885714Y-94222857D01*
X87914285Y-94194285D01*
X87942857Y-94137142D01*
X87942857Y-94080000D01*
X87914285Y-94022857D01*
X87885714Y-93994285D01*
X87828571Y-93965714D01*
X87714285Y-93937142D01*
X87657142Y-93908571D01*
X87628571Y-93880000D01*
X87600000Y-93822857D01*
X87600000Y-93765714D01*
X87628571Y-93708571D01*
X87657142Y-93680000D01*
X87714285Y-93651428D01*
X87857142Y-93651428D01*
X87942857Y-93680000D01*
X88514285Y-94251428D02*
X88171428Y-94251428D01*
X88342857Y-94251428D02*
X88342857Y-93651428D01*
X88285714Y-93737142D01*
X88228571Y-93794285D01*
X88171428Y-93822857D01*
X88714285Y-93651428D02*
X89085714Y-93651428D01*
X88885714Y-93880000D01*
X88971428Y-93880000D01*
X89028571Y-93908571D01*
X89057142Y-93937142D01*
X89085714Y-93994285D01*
X89085714Y-94137142D01*
X89057142Y-94194285D01*
X89028571Y-94222857D01*
X88971428Y-94251428D01*
X88800000Y-94251428D01*
X88742857Y-94222857D01*
X88714285Y-94194285D01*
X89285714Y-93651428D02*
X89657142Y-93651428D01*
X89457142Y-93880000D01*
X89542857Y-93880000D01*
X89600000Y-93908571D01*
X89628571Y-93937142D01*
X89657142Y-93994285D01*
X89657142Y-94137142D01*
X89628571Y-94194285D01*
X89600000Y-94222857D01*
X89542857Y-94251428D01*
X89371428Y-94251428D01*
X89314285Y-94222857D01*
X89285714Y-94194285D01*
X89857142Y-93651428D02*
X90257142Y-93651428D01*
X90000000Y-94251428D01*
X90457142Y-94222857D02*
X90542857Y-94251428D01*
X90685714Y-94251428D01*
X90742857Y-94222857D01*
X90771428Y-94194285D01*
X90800000Y-94137142D01*
X90800000Y-94080000D01*
X90771428Y-94022857D01*
X90742857Y-93994285D01*
X90685714Y-93965714D01*
X90571428Y-93937142D01*
X90514285Y-93908571D01*
X90485714Y-93880000D01*
X90457142Y-93822857D01*
X90457142Y-93765714D01*
X90485714Y-93708571D01*
X90514285Y-93680000D01*
X90571428Y-93651428D01*
X90714285Y-93651428D01*
X90800000Y-93680000D01*
%TO.C,U2*%
X72440857Y-103303428D02*
X72440857Y-103789142D01*
X72469428Y-103846285D01*
X72498000Y-103874857D01*
X72555142Y-103903428D01*
X72669428Y-103903428D01*
X72726571Y-103874857D01*
X72755142Y-103846285D01*
X72783714Y-103789142D01*
X72783714Y-103303428D01*
X73040857Y-103360571D02*
X73069428Y-103332000D01*
X73126571Y-103303428D01*
X73269428Y-103303428D01*
X73326571Y-103332000D01*
X73355142Y-103360571D01*
X73383714Y-103417714D01*
X73383714Y-103474857D01*
X73355142Y-103560571D01*
X73012285Y-103903428D01*
X73383714Y-103903428D01*
X74565142Y-110215571D02*
X74593714Y-110187000D01*
X74650857Y-110158428D01*
X74793714Y-110158428D01*
X74850857Y-110187000D01*
X74879428Y-110215571D01*
X74908000Y-110272714D01*
X74908000Y-110329857D01*
X74879428Y-110415571D01*
X74536571Y-110758428D01*
X74908000Y-110758428D01*
X75422285Y-110358428D02*
X75422285Y-110758428D01*
X75279428Y-110129857D02*
X75136571Y-110558428D01*
X75508000Y-110558428D01*
X76022285Y-110758428D02*
X75736571Y-110758428D01*
X75736571Y-110158428D01*
X76565142Y-110701285D02*
X76536571Y-110729857D01*
X76450857Y-110758428D01*
X76393714Y-110758428D01*
X76308000Y-110729857D01*
X76250857Y-110672714D01*
X76222285Y-110615571D01*
X76193714Y-110501285D01*
X76193714Y-110415571D01*
X76222285Y-110301285D01*
X76250857Y-110244142D01*
X76308000Y-110187000D01*
X76393714Y-110158428D01*
X76450857Y-110158428D01*
X76536571Y-110187000D01*
X76565142Y-110215571D01*
X77136571Y-110758428D02*
X76793714Y-110758428D01*
X76965142Y-110758428D02*
X76965142Y-110158428D01*
X76908000Y-110244142D01*
X76850857Y-110301285D01*
X76793714Y-110329857D01*
X77508000Y-110158428D02*
X77565142Y-110158428D01*
X77622285Y-110187000D01*
X77650857Y-110215571D01*
X77679428Y-110272714D01*
X77708000Y-110387000D01*
X77708000Y-110529857D01*
X77679428Y-110644142D01*
X77650857Y-110701285D01*
X77622285Y-110729857D01*
X77565142Y-110758428D01*
X77508000Y-110758428D01*
X77450857Y-110729857D01*
X77422285Y-110701285D01*
X77393714Y-110644142D01*
X77365142Y-110529857D01*
X77365142Y-110387000D01*
X77393714Y-110272714D01*
X77422285Y-110215571D01*
X77450857Y-110187000D01*
X77508000Y-110158428D01*
X77936571Y-110215571D02*
X77965142Y-110187000D01*
X78022285Y-110158428D01*
X78165142Y-110158428D01*
X78222285Y-110187000D01*
X78250857Y-110215571D01*
X78279428Y-110272714D01*
X78279428Y-110329857D01*
X78250857Y-110415571D01*
X77908000Y-110758428D01*
X78279428Y-110758428D01*
X78822285Y-110158428D02*
X78536571Y-110158428D01*
X78508000Y-110444142D01*
X78536571Y-110415571D01*
X78593714Y-110387000D01*
X78736571Y-110387000D01*
X78793714Y-110415571D01*
X78822285Y-110444142D01*
X78850857Y-110501285D01*
X78850857Y-110644142D01*
X78822285Y-110701285D01*
X78793714Y-110729857D01*
X78736571Y-110758428D01*
X78593714Y-110758428D01*
X78536571Y-110729857D01*
X78508000Y-110701285D01*
%TO.C,U3*%
X72694857Y-94413428D02*
X72694857Y-94899142D01*
X72723428Y-94956285D01*
X72752000Y-94984857D01*
X72809142Y-95013428D01*
X72923428Y-95013428D01*
X72980571Y-94984857D01*
X73009142Y-94956285D01*
X73037714Y-94899142D01*
X73037714Y-94413428D01*
X73266285Y-94413428D02*
X73637714Y-94413428D01*
X73437714Y-94642000D01*
X73523428Y-94642000D01*
X73580571Y-94670571D01*
X73609142Y-94699142D01*
X73637714Y-94756285D01*
X73637714Y-94899142D01*
X73609142Y-94956285D01*
X73580571Y-94984857D01*
X73523428Y-95013428D01*
X73352000Y-95013428D01*
X73294857Y-94984857D01*
X73266285Y-94956285D01*
X74565142Y-101452571D02*
X74593714Y-101424000D01*
X74650857Y-101395428D01*
X74793714Y-101395428D01*
X74850857Y-101424000D01*
X74879428Y-101452571D01*
X74908000Y-101509714D01*
X74908000Y-101566857D01*
X74879428Y-101652571D01*
X74536571Y-101995428D01*
X74908000Y-101995428D01*
X75422285Y-101595428D02*
X75422285Y-101995428D01*
X75279428Y-101366857D02*
X75136571Y-101795428D01*
X75508000Y-101795428D01*
X76022285Y-101995428D02*
X75736571Y-101995428D01*
X75736571Y-101395428D01*
X76565142Y-101938285D02*
X76536571Y-101966857D01*
X76450857Y-101995428D01*
X76393714Y-101995428D01*
X76308000Y-101966857D01*
X76250857Y-101909714D01*
X76222285Y-101852571D01*
X76193714Y-101738285D01*
X76193714Y-101652571D01*
X76222285Y-101538285D01*
X76250857Y-101481142D01*
X76308000Y-101424000D01*
X76393714Y-101395428D01*
X76450857Y-101395428D01*
X76536571Y-101424000D01*
X76565142Y-101452571D01*
X77136571Y-101995428D02*
X76793714Y-101995428D01*
X76965142Y-101995428D02*
X76965142Y-101395428D01*
X76908000Y-101481142D01*
X76850857Y-101538285D01*
X76793714Y-101566857D01*
X77508000Y-101395428D02*
X77565142Y-101395428D01*
X77622285Y-101424000D01*
X77650857Y-101452571D01*
X77679428Y-101509714D01*
X77708000Y-101624000D01*
X77708000Y-101766857D01*
X77679428Y-101881142D01*
X77650857Y-101938285D01*
X77622285Y-101966857D01*
X77565142Y-101995428D01*
X77508000Y-101995428D01*
X77450857Y-101966857D01*
X77422285Y-101938285D01*
X77393714Y-101881142D01*
X77365142Y-101766857D01*
X77365142Y-101624000D01*
X77393714Y-101509714D01*
X77422285Y-101452571D01*
X77450857Y-101424000D01*
X77508000Y-101395428D01*
X77936571Y-101452571D02*
X77965142Y-101424000D01*
X78022285Y-101395428D01*
X78165142Y-101395428D01*
X78222285Y-101424000D01*
X78250857Y-101452571D01*
X78279428Y-101509714D01*
X78279428Y-101566857D01*
X78250857Y-101652571D01*
X77908000Y-101995428D01*
X78279428Y-101995428D01*
X78822285Y-101395428D02*
X78536571Y-101395428D01*
X78508000Y-101681142D01*
X78536571Y-101652571D01*
X78593714Y-101624000D01*
X78736571Y-101624000D01*
X78793714Y-101652571D01*
X78822285Y-101681142D01*
X78850857Y-101738285D01*
X78850857Y-101881142D01*
X78822285Y-101938285D01*
X78793714Y-101966857D01*
X78736571Y-101995428D01*
X78593714Y-101995428D01*
X78536571Y-101966857D01*
X78508000Y-101938285D01*
%TO.C,U4*%
X59486857Y-103557428D02*
X59486857Y-104043142D01*
X59515428Y-104100285D01*
X59544000Y-104128857D01*
X59601142Y-104157428D01*
X59715428Y-104157428D01*
X59772571Y-104128857D01*
X59801142Y-104100285D01*
X59829714Y-104043142D01*
X59829714Y-103557428D01*
X60372571Y-103757428D02*
X60372571Y-104157428D01*
X60229714Y-103528857D02*
X60086857Y-103957428D01*
X60458285Y-103957428D01*
X62143142Y-112853000D02*
X62428857Y-112853000D01*
X62086000Y-113024428D02*
X62286000Y-112424428D01*
X62486000Y-113024428D01*
X62600285Y-112424428D02*
X62943142Y-112424428D01*
X62771714Y-113024428D02*
X62771714Y-112424428D01*
X63143142Y-113024428D02*
X63143142Y-112424428D01*
X63343142Y-112853000D01*
X63543142Y-112424428D01*
X63543142Y-113024428D01*
X63828857Y-112710142D02*
X64028857Y-112710142D01*
X64114571Y-113024428D02*
X63828857Y-113024428D01*
X63828857Y-112424428D01*
X64114571Y-112424428D01*
X64686000Y-112453000D02*
X64628857Y-112424428D01*
X64543142Y-112424428D01*
X64457428Y-112453000D01*
X64400285Y-112510142D01*
X64371714Y-112567285D01*
X64343142Y-112681571D01*
X64343142Y-112767285D01*
X64371714Y-112881571D01*
X64400285Y-112938714D01*
X64457428Y-112995857D01*
X64543142Y-113024428D01*
X64600285Y-113024428D01*
X64686000Y-112995857D01*
X64714571Y-112967285D01*
X64714571Y-112767285D01*
X64600285Y-112767285D01*
X64943142Y-112853000D02*
X65228857Y-112853000D01*
X64886000Y-113024428D02*
X65086000Y-112424428D01*
X65286000Y-113024428D01*
X65428857Y-112424428D02*
X65800285Y-112424428D01*
X65600285Y-112653000D01*
X65686000Y-112653000D01*
X65743142Y-112681571D01*
X65771714Y-112710142D01*
X65800285Y-112767285D01*
X65800285Y-112910142D01*
X65771714Y-112967285D01*
X65743142Y-112995857D01*
X65686000Y-113024428D01*
X65514571Y-113024428D01*
X65457428Y-112995857D01*
X65428857Y-112967285D01*
X66028857Y-112481571D02*
X66057428Y-112453000D01*
X66114571Y-112424428D01*
X66257428Y-112424428D01*
X66314571Y-112453000D01*
X66343142Y-112481571D01*
X66371714Y-112538714D01*
X66371714Y-112595857D01*
X66343142Y-112681571D01*
X66000285Y-113024428D01*
X66371714Y-113024428D01*
X66714571Y-112681571D02*
X66657428Y-112653000D01*
X66628857Y-112624428D01*
X66600285Y-112567285D01*
X66600285Y-112538714D01*
X66628857Y-112481571D01*
X66657428Y-112453000D01*
X66714571Y-112424428D01*
X66828857Y-112424428D01*
X66886000Y-112453000D01*
X66914571Y-112481571D01*
X66943142Y-112538714D01*
X66943142Y-112567285D01*
X66914571Y-112624428D01*
X66886000Y-112653000D01*
X66828857Y-112681571D01*
X66714571Y-112681571D01*
X66657428Y-112710142D01*
X66628857Y-112738714D01*
X66600285Y-112795857D01*
X66600285Y-112910142D01*
X66628857Y-112967285D01*
X66657428Y-112995857D01*
X66714571Y-113024428D01*
X66828857Y-113024428D01*
X66886000Y-112995857D01*
X66914571Y-112967285D01*
X66943142Y-112910142D01*
X66943142Y-112795857D01*
X66914571Y-112738714D01*
X66886000Y-112710142D01*
X66828857Y-112681571D01*
X67200285Y-113024428D02*
X67200285Y-112424428D01*
X67428857Y-112424428D01*
X67486000Y-112453000D01*
X67514571Y-112481571D01*
X67543142Y-112538714D01*
X67543142Y-112624428D01*
X67514571Y-112681571D01*
X67486000Y-112710142D01*
X67428857Y-112738714D01*
X67200285Y-112738714D01*
X67800285Y-112795857D02*
X68257428Y-112795857D01*
X68514571Y-112853000D02*
X68800285Y-112853000D01*
X68457428Y-113024428D02*
X68657428Y-112424428D01*
X68857428Y-113024428D01*
X69057428Y-112424428D02*
X69057428Y-112910142D01*
X69086000Y-112967285D01*
X69114571Y-112995857D01*
X69171714Y-113024428D01*
X69286000Y-113024428D01*
X69343142Y-112995857D01*
X69371714Y-112967285D01*
X69400285Y-112910142D01*
X69400285Y-112424428D01*
%TO.C,Y1*%
X87852285Y-103068714D02*
X87852285Y-103354428D01*
X87652285Y-102754428D02*
X87852285Y-103068714D01*
X88052285Y-102754428D01*
X88566571Y-103354428D02*
X88223714Y-103354428D01*
X88395142Y-103354428D02*
X88395142Y-102754428D01*
X88338000Y-102840142D01*
X88280857Y-102897285D01*
X88223714Y-102925857D01*
X91400285Y-107902000D02*
X91428857Y-107930571D01*
X91457428Y-108016285D01*
X91457428Y-108073428D01*
X91428857Y-108159142D01*
X91371714Y-108216285D01*
X91314571Y-108244857D01*
X91200285Y-108273428D01*
X91114571Y-108273428D01*
X91000285Y-108244857D01*
X90943142Y-108216285D01*
X90886000Y-108159142D01*
X90857428Y-108073428D01*
X90857428Y-108016285D01*
X90886000Y-107930571D01*
X90914571Y-107902000D01*
X91457428Y-107644857D02*
X91057428Y-107644857D01*
X91171714Y-107644857D02*
X91114571Y-107616285D01*
X91086000Y-107587714D01*
X91057428Y-107530571D01*
X91057428Y-107473428D01*
X91057428Y-107330571D02*
X91457428Y-107187714D01*
X91057428Y-107044857D02*
X91457428Y-107187714D01*
X91600285Y-107244857D01*
X91628857Y-107273428D01*
X91657428Y-107330571D01*
X91428857Y-106844857D02*
X91457428Y-106787714D01*
X91457428Y-106673428D01*
X91428857Y-106616285D01*
X91371714Y-106587714D01*
X91343142Y-106587714D01*
X91286000Y-106616285D01*
X91257428Y-106673428D01*
X91257428Y-106759142D01*
X91228857Y-106816285D01*
X91171714Y-106844857D01*
X91143142Y-106844857D01*
X91086000Y-106816285D01*
X91057428Y-106759142D01*
X91057428Y-106673428D01*
X91086000Y-106616285D01*
X91057428Y-106416285D02*
X91057428Y-106187714D01*
X90857428Y-106330571D02*
X91371714Y-106330571D01*
X91428857Y-106302000D01*
X91457428Y-106244857D01*
X91457428Y-106187714D01*
X91457428Y-105730571D02*
X91143142Y-105730571D01*
X91086000Y-105759142D01*
X91057428Y-105816285D01*
X91057428Y-105930571D01*
X91086000Y-105987714D01*
X91428857Y-105730571D02*
X91457428Y-105787714D01*
X91457428Y-105930571D01*
X91428857Y-105987714D01*
X91371714Y-106016285D01*
X91314571Y-106016285D01*
X91257428Y-105987714D01*
X91228857Y-105930571D01*
X91228857Y-105787714D01*
X91200285Y-105730571D01*
X91457428Y-105359142D02*
X91428857Y-105416285D01*
X91371714Y-105444857D01*
X90857428Y-105444857D01*
X90857428Y-104730571D02*
X90857428Y-104359142D01*
X91086000Y-104559142D01*
X91086000Y-104473428D01*
X91114571Y-104416285D01*
X91143142Y-104387714D01*
X91200285Y-104359142D01*
X91343142Y-104359142D01*
X91400285Y-104387714D01*
X91428857Y-104416285D01*
X91457428Y-104473428D01*
X91457428Y-104644857D01*
X91428857Y-104702000D01*
X91400285Y-104730571D01*
X90914571Y-104130571D02*
X90886000Y-104102000D01*
X90857428Y-104044857D01*
X90857428Y-103902000D01*
X90886000Y-103844857D01*
X90914571Y-103816285D01*
X90971714Y-103787714D01*
X91028857Y-103787714D01*
X91114571Y-103816285D01*
X91457428Y-104159142D01*
X91457428Y-103787714D01*
X91457428Y-103073428D02*
X90857428Y-103073428D01*
X91286000Y-102873428D01*
X90857428Y-102673428D01*
X91457428Y-102673428D01*
X91457428Y-102387714D02*
X90857428Y-102387714D01*
X91143142Y-102387714D02*
X91143142Y-102044857D01*
X91457428Y-102044857D02*
X90857428Y-102044857D01*
X91057428Y-101816285D02*
X91057428Y-101502000D01*
X91457428Y-101816285D01*
X91457428Y-101502000D01*
%TO.C,Y2*%
X61817285Y-93070714D02*
X61817285Y-93356428D01*
X61617285Y-92756428D02*
X61817285Y-93070714D01*
X62017285Y-92756428D01*
X62188714Y-92813571D02*
X62217285Y-92785000D01*
X62274428Y-92756428D01*
X62417285Y-92756428D01*
X62474428Y-92785000D01*
X62503000Y-92813571D01*
X62531571Y-92870714D01*
X62531571Y-92927857D01*
X62503000Y-93013571D01*
X62160142Y-93356428D01*
X62531571Y-93356428D01*
X59103000Y-98899285D02*
X59074428Y-98927857D01*
X58988714Y-98956428D01*
X58931571Y-98956428D01*
X58845857Y-98927857D01*
X58788714Y-98870714D01*
X58760142Y-98813571D01*
X58731571Y-98699285D01*
X58731571Y-98613571D01*
X58760142Y-98499285D01*
X58788714Y-98442142D01*
X58845857Y-98385000D01*
X58931571Y-98356428D01*
X58988714Y-98356428D01*
X59074428Y-98385000D01*
X59103000Y-98413571D01*
X59360142Y-98956428D02*
X59360142Y-98556428D01*
X59360142Y-98670714D02*
X59388714Y-98613571D01*
X59417285Y-98585000D01*
X59474428Y-98556428D01*
X59531571Y-98556428D01*
X59674428Y-98556428D02*
X59817285Y-98956428D01*
X59960142Y-98556428D02*
X59817285Y-98956428D01*
X59760142Y-99099285D01*
X59731571Y-99127857D01*
X59674428Y-99156428D01*
X60160142Y-98927857D02*
X60217285Y-98956428D01*
X60331571Y-98956428D01*
X60388714Y-98927857D01*
X60417285Y-98870714D01*
X60417285Y-98842142D01*
X60388714Y-98785000D01*
X60331571Y-98756428D01*
X60245857Y-98756428D01*
X60188714Y-98727857D01*
X60160142Y-98670714D01*
X60160142Y-98642142D01*
X60188714Y-98585000D01*
X60245857Y-98556428D01*
X60331571Y-98556428D01*
X60388714Y-98585000D01*
X60588714Y-98556428D02*
X60817285Y-98556428D01*
X60674428Y-98356428D02*
X60674428Y-98870714D01*
X60703000Y-98927857D01*
X60760142Y-98956428D01*
X60817285Y-98956428D01*
X61274428Y-98956428D02*
X61274428Y-98642142D01*
X61245857Y-98585000D01*
X61188714Y-98556428D01*
X61074428Y-98556428D01*
X61017285Y-98585000D01*
X61274428Y-98927857D02*
X61217285Y-98956428D01*
X61074428Y-98956428D01*
X61017285Y-98927857D01*
X60988714Y-98870714D01*
X60988714Y-98813571D01*
X61017285Y-98756428D01*
X61074428Y-98727857D01*
X61217285Y-98727857D01*
X61274428Y-98699285D01*
X61645857Y-98956428D02*
X61588714Y-98927857D01*
X61560142Y-98870714D01*
X61560142Y-98356428D01*
X62645857Y-98956428D02*
X62303000Y-98956428D01*
X62474428Y-98956428D02*
X62474428Y-98356428D01*
X62417285Y-98442142D01*
X62360142Y-98499285D01*
X62303000Y-98527857D01*
X63160142Y-98356428D02*
X63045857Y-98356428D01*
X62988714Y-98385000D01*
X62960142Y-98413571D01*
X62903000Y-98499285D01*
X62874428Y-98613571D01*
X62874428Y-98842142D01*
X62903000Y-98899285D01*
X62931571Y-98927857D01*
X62988714Y-98956428D01*
X63103000Y-98956428D01*
X63160142Y-98927857D01*
X63188714Y-98899285D01*
X63217285Y-98842142D01*
X63217285Y-98699285D01*
X63188714Y-98642142D01*
X63160142Y-98613571D01*
X63103000Y-98585000D01*
X62988714Y-98585000D01*
X62931571Y-98613571D01*
X62903000Y-98642142D01*
X62874428Y-98699285D01*
X63931571Y-98956428D02*
X63931571Y-98356428D01*
X64131571Y-98785000D01*
X64331571Y-98356428D01*
X64331571Y-98956428D01*
X64617285Y-98956428D02*
X64617285Y-98356428D01*
X64617285Y-98642142D02*
X64960142Y-98642142D01*
X64960142Y-98956428D02*
X64960142Y-98356428D01*
X65188714Y-98556428D02*
X65503000Y-98556428D01*
X65188714Y-98956428D01*
X65503000Y-98956428D01*
%TD*%
M02*
