%TF.GenerationSoftware,KiCad,Pcbnew,(5.1.6)-1*%
%TF.CreationDate,2020-07-20T22:25:38-05:00*%
%TF.ProjectId,Project 3 - BACEE_2_layer,50726f6a-6563-4742-9033-202d20424143,1*%
%TF.SameCoordinates,Original*%
%TF.FileFunction,Legend,Bot*%
%TF.FilePolarity,Positive*%
%FSLAX46Y46*%
G04 Gerber Fmt 4.6, Leading zero omitted, Abs format (unit mm)*
G04 Created by KiCad (PCBNEW (5.1.6)-1) date 2020-07-20 22:25:38*
%MOMM*%
%LPD*%
G01*
G04 APERTURE LIST*
%ADD10C,0.150000*%
%ADD11C,0.010000*%
G04 APERTURE END LIST*
D10*
X67807833Y-114108666D02*
X67807833Y-113408666D01*
X67641166Y-113408666D01*
X67541166Y-113442000D01*
X67474500Y-113508666D01*
X67441166Y-113575333D01*
X67407833Y-113708666D01*
X67407833Y-113808666D01*
X67441166Y-113942000D01*
X67474500Y-114008666D01*
X67541166Y-114075333D01*
X67641166Y-114108666D01*
X67807833Y-114108666D01*
X66841166Y-114075333D02*
X66907833Y-114108666D01*
X67041166Y-114108666D01*
X67107833Y-114075333D01*
X67141166Y-114008666D01*
X67141166Y-113742000D01*
X67107833Y-113675333D01*
X67041166Y-113642000D01*
X66907833Y-113642000D01*
X66841166Y-113675333D01*
X66807833Y-113742000D01*
X66807833Y-113808666D01*
X67141166Y-113875333D01*
X66541166Y-114075333D02*
X66474500Y-114108666D01*
X66341166Y-114108666D01*
X66274500Y-114075333D01*
X66241166Y-114008666D01*
X66241166Y-113975333D01*
X66274500Y-113908666D01*
X66341166Y-113875333D01*
X66441166Y-113875333D01*
X66507833Y-113842000D01*
X66541166Y-113775333D01*
X66541166Y-113742000D01*
X66507833Y-113675333D01*
X66441166Y-113642000D01*
X66341166Y-113642000D01*
X66274500Y-113675333D01*
X65941166Y-114108666D02*
X65941166Y-113642000D01*
X65941166Y-113408666D02*
X65974500Y-113442000D01*
X65941166Y-113475333D01*
X65907833Y-113442000D01*
X65941166Y-113408666D01*
X65941166Y-113475333D01*
X65307833Y-113642000D02*
X65307833Y-114208666D01*
X65341166Y-114275333D01*
X65374500Y-114308666D01*
X65441166Y-114342000D01*
X65541166Y-114342000D01*
X65607833Y-114308666D01*
X65307833Y-114075333D02*
X65374500Y-114108666D01*
X65507833Y-114108666D01*
X65574500Y-114075333D01*
X65607833Y-114042000D01*
X65641166Y-113975333D01*
X65641166Y-113775333D01*
X65607833Y-113708666D01*
X65574500Y-113675333D01*
X65507833Y-113642000D01*
X65374500Y-113642000D01*
X65307833Y-113675333D01*
X64974500Y-113642000D02*
X64974500Y-114108666D01*
X64974500Y-113708666D02*
X64941166Y-113675333D01*
X64874500Y-113642000D01*
X64774500Y-113642000D01*
X64707833Y-113675333D01*
X64674500Y-113742000D01*
X64674500Y-114108666D01*
X64074500Y-114075333D02*
X64141166Y-114108666D01*
X64274500Y-114108666D01*
X64341166Y-114075333D01*
X64374500Y-114008666D01*
X64374500Y-113742000D01*
X64341166Y-113675333D01*
X64274500Y-113642000D01*
X64141166Y-113642000D01*
X64074500Y-113675333D01*
X64041166Y-113742000D01*
X64041166Y-113808666D01*
X64374500Y-113875333D01*
X63441166Y-114108666D02*
X63441166Y-113408666D01*
X63441166Y-114075333D02*
X63507833Y-114108666D01*
X63641166Y-114108666D01*
X63707833Y-114075333D01*
X63741166Y-114042000D01*
X63774500Y-113975333D01*
X63774500Y-113775333D01*
X63741166Y-113708666D01*
X63707833Y-113675333D01*
X63641166Y-113642000D01*
X63507833Y-113642000D01*
X63441166Y-113675333D01*
X62574500Y-114108666D02*
X62574500Y-113408666D01*
X62574500Y-113675333D02*
X62507833Y-113642000D01*
X62374500Y-113642000D01*
X62307833Y-113675333D01*
X62274500Y-113708666D01*
X62241166Y-113775333D01*
X62241166Y-113975333D01*
X62274500Y-114042000D01*
X62307833Y-114075333D01*
X62374500Y-114108666D01*
X62507833Y-114108666D01*
X62574500Y-114075333D01*
X62007833Y-113642000D02*
X61841166Y-114108666D01*
X61674500Y-113642000D02*
X61841166Y-114108666D01*
X61907833Y-114275333D01*
X61941166Y-114308666D01*
X62007833Y-114342000D01*
X60874500Y-113742000D02*
X60641166Y-113742000D01*
X60541166Y-114108666D02*
X60874500Y-114108666D01*
X60874500Y-113408666D01*
X60541166Y-113408666D01*
X60241166Y-114108666D02*
X60241166Y-113642000D01*
X60241166Y-113708666D02*
X60207833Y-113675333D01*
X60141166Y-113642000D01*
X60041166Y-113642000D01*
X59974500Y-113675333D01*
X59941166Y-113742000D01*
X59941166Y-114108666D01*
X59941166Y-113742000D02*
X59907833Y-113675333D01*
X59841166Y-113642000D01*
X59741166Y-113642000D01*
X59674500Y-113675333D01*
X59641166Y-113742000D01*
X59641166Y-114108666D01*
X59307833Y-114108666D02*
X59307833Y-113642000D01*
X59307833Y-113708666D02*
X59274500Y-113675333D01*
X59207833Y-113642000D01*
X59107833Y-113642000D01*
X59041166Y-113675333D01*
X59007833Y-113742000D01*
X59007833Y-114108666D01*
X59007833Y-113742000D02*
X58974500Y-113675333D01*
X58907833Y-113642000D01*
X58807833Y-113642000D01*
X58741166Y-113675333D01*
X58707833Y-113742000D01*
X58707833Y-114108666D01*
X58074500Y-114108666D02*
X58074500Y-113742000D01*
X58107833Y-113675333D01*
X58174500Y-113642000D01*
X58307833Y-113642000D01*
X58374500Y-113675333D01*
X58074500Y-114075333D02*
X58141166Y-114108666D01*
X58307833Y-114108666D01*
X58374500Y-114075333D01*
X58407833Y-114008666D01*
X58407833Y-113942000D01*
X58374500Y-113875333D01*
X58307833Y-113842000D01*
X58141166Y-113842000D01*
X58074500Y-113808666D01*
X57741166Y-113642000D02*
X57741166Y-114108666D01*
X57741166Y-113708666D02*
X57707833Y-113675333D01*
X57641166Y-113642000D01*
X57541166Y-113642000D01*
X57474500Y-113675333D01*
X57441166Y-113742000D01*
X57441166Y-114108666D01*
X56807833Y-113642000D02*
X56807833Y-114108666D01*
X57107833Y-113642000D02*
X57107833Y-114008666D01*
X57074500Y-114075333D01*
X57007833Y-114108666D01*
X56907833Y-114108666D01*
X56841166Y-114075333D01*
X56807833Y-114042000D01*
X56207833Y-114075333D02*
X56274500Y-114108666D01*
X56407833Y-114108666D01*
X56474500Y-114075333D01*
X56507833Y-114008666D01*
X56507833Y-113742000D01*
X56474500Y-113675333D01*
X56407833Y-113642000D01*
X56274500Y-113642000D01*
X56207833Y-113675333D01*
X56174500Y-113742000D01*
X56174500Y-113808666D01*
X56507833Y-113875333D01*
X55774500Y-114108666D02*
X55841166Y-114075333D01*
X55874500Y-114008666D01*
X55874500Y-113408666D01*
X81811166Y-109314666D02*
X81477833Y-109314666D01*
X81877833Y-109514666D02*
X81644500Y-108814666D01*
X81411166Y-109514666D01*
X81177833Y-109514666D02*
X81177833Y-109048000D01*
X81177833Y-109181333D02*
X81144500Y-109114666D01*
X81111166Y-109081333D01*
X81044500Y-109048000D01*
X80977833Y-109048000D01*
X80444500Y-109514666D02*
X80444500Y-108814666D01*
X80444500Y-109481333D02*
X80511166Y-109514666D01*
X80644500Y-109514666D01*
X80711166Y-109481333D01*
X80744500Y-109448000D01*
X80777833Y-109381333D01*
X80777833Y-109181333D01*
X80744500Y-109114666D01*
X80711166Y-109081333D01*
X80644500Y-109048000D01*
X80511166Y-109048000D01*
X80444500Y-109081333D01*
X79811166Y-109048000D02*
X79811166Y-109514666D01*
X80111166Y-109048000D02*
X80111166Y-109414666D01*
X80077833Y-109481333D01*
X80011166Y-109514666D01*
X79911166Y-109514666D01*
X79844500Y-109481333D01*
X79811166Y-109448000D01*
X79477833Y-109514666D02*
X79477833Y-109048000D01*
X79477833Y-108814666D02*
X79511166Y-108848000D01*
X79477833Y-108881333D01*
X79444500Y-108848000D01*
X79477833Y-108814666D01*
X79477833Y-108881333D01*
X79144500Y-109048000D02*
X79144500Y-109514666D01*
X79144500Y-109114666D02*
X79111166Y-109081333D01*
X79044500Y-109048000D01*
X78944500Y-109048000D01*
X78877833Y-109081333D01*
X78844500Y-109148000D01*
X78844500Y-109514666D01*
X78411166Y-109514666D02*
X78477833Y-109481333D01*
X78511166Y-109448000D01*
X78544500Y-109381333D01*
X78544500Y-109181333D01*
X78511166Y-109114666D01*
X78477833Y-109081333D01*
X78411166Y-109048000D01*
X78311166Y-109048000D01*
X78244500Y-109081333D01*
X78211166Y-109114666D01*
X78177833Y-109181333D01*
X78177833Y-109381333D01*
X78211166Y-109448000D01*
X78244500Y-109481333D01*
X78311166Y-109514666D01*
X78411166Y-109514666D01*
X77044500Y-109481333D02*
X77111166Y-109514666D01*
X77244500Y-109514666D01*
X77311166Y-109481333D01*
X77344500Y-109448000D01*
X77377833Y-109381333D01*
X77377833Y-109181333D01*
X77344500Y-109114666D01*
X77311166Y-109081333D01*
X77244500Y-109048000D01*
X77111166Y-109048000D01*
X77044500Y-109081333D01*
X76644500Y-109514666D02*
X76711166Y-109481333D01*
X76744500Y-109414666D01*
X76744500Y-108814666D01*
X76277833Y-109514666D02*
X76344500Y-109481333D01*
X76377833Y-109448000D01*
X76411166Y-109381333D01*
X76411166Y-109181333D01*
X76377833Y-109114666D01*
X76344500Y-109081333D01*
X76277833Y-109048000D01*
X76177833Y-109048000D01*
X76111166Y-109081333D01*
X76077833Y-109114666D01*
X76044500Y-109181333D01*
X76044500Y-109381333D01*
X76077833Y-109448000D01*
X76111166Y-109481333D01*
X76177833Y-109514666D01*
X76277833Y-109514666D01*
X75744500Y-109048000D02*
X75744500Y-109514666D01*
X75744500Y-109114666D02*
X75711166Y-109081333D01*
X75644500Y-109048000D01*
X75544500Y-109048000D01*
X75477833Y-109081333D01*
X75444500Y-109148000D01*
X75444500Y-109514666D01*
X74844500Y-109481333D02*
X74911166Y-109514666D01*
X75044500Y-109514666D01*
X75111166Y-109481333D01*
X75144500Y-109414666D01*
X75144500Y-109148000D01*
X75111166Y-109081333D01*
X75044500Y-109048000D01*
X74911166Y-109048000D01*
X74844500Y-109081333D01*
X74811166Y-109148000D01*
X74811166Y-109214666D01*
X75144500Y-109281333D01*
X74044500Y-109048000D02*
X73911166Y-109514666D01*
X73777833Y-109181333D01*
X73644500Y-109514666D01*
X73511166Y-109048000D01*
X73244500Y-109514666D02*
X73244500Y-109048000D01*
X73244500Y-108814666D02*
X73277833Y-108848000D01*
X73244500Y-108881333D01*
X73211166Y-108848000D01*
X73244500Y-108814666D01*
X73244500Y-108881333D01*
X73011166Y-109048000D02*
X72744500Y-109048000D01*
X72911166Y-108814666D02*
X72911166Y-109414666D01*
X72877833Y-109481333D01*
X72811166Y-109514666D01*
X72744500Y-109514666D01*
X72511166Y-109514666D02*
X72511166Y-108814666D01*
X72211166Y-109514666D02*
X72211166Y-109148000D01*
X72244500Y-109081333D01*
X72311166Y-109048000D01*
X72411166Y-109048000D01*
X72477833Y-109081333D01*
X72511166Y-109114666D01*
X71877833Y-109448000D02*
X71844500Y-109481333D01*
X71877833Y-109514666D01*
X71911166Y-109481333D01*
X71877833Y-109448000D01*
X71877833Y-109514666D01*
X71877833Y-109081333D02*
X71844500Y-109114666D01*
X71877833Y-109148000D01*
X71911166Y-109114666D01*
X71877833Y-109081333D01*
X71877833Y-109148000D01*
X81777833Y-110448000D02*
X81244500Y-110448000D01*
X80411166Y-110081333D02*
X80377833Y-110048000D01*
X80311166Y-110014666D01*
X80144500Y-110014666D01*
X80077833Y-110048000D01*
X80044500Y-110081333D01*
X80011166Y-110148000D01*
X80011166Y-110214666D01*
X80044500Y-110314666D01*
X80444500Y-110714666D01*
X80011166Y-110714666D01*
X79177833Y-110714666D02*
X79177833Y-110014666D01*
X78944500Y-110514666D01*
X78711166Y-110014666D01*
X78711166Y-110714666D01*
X78377833Y-110714666D02*
X78377833Y-110014666D01*
X78377833Y-110281333D02*
X78311166Y-110248000D01*
X78177833Y-110248000D01*
X78111166Y-110281333D01*
X78077833Y-110314666D01*
X78044500Y-110381333D01*
X78044500Y-110581333D01*
X78077833Y-110648000D01*
X78111166Y-110681333D01*
X78177833Y-110714666D01*
X78311166Y-110714666D01*
X78377833Y-110681333D01*
X77744500Y-110714666D02*
X77744500Y-110248000D01*
X77744500Y-110014666D02*
X77777833Y-110048000D01*
X77744500Y-110081333D01*
X77711166Y-110048000D01*
X77744500Y-110014666D01*
X77744500Y-110081333D01*
X77511166Y-110248000D02*
X77244500Y-110248000D01*
X77411166Y-110014666D02*
X77411166Y-110614666D01*
X77377833Y-110681333D01*
X77311166Y-110714666D01*
X77244500Y-110714666D01*
X76477833Y-110348000D02*
X76244500Y-110348000D01*
X76144500Y-110714666D02*
X76477833Y-110714666D01*
X76477833Y-110014666D01*
X76144500Y-110014666D01*
X75844500Y-110348000D02*
X75611166Y-110348000D01*
X75511166Y-110714666D02*
X75844500Y-110714666D01*
X75844500Y-110014666D01*
X75511166Y-110014666D01*
X75211166Y-110714666D02*
X75211166Y-110014666D01*
X74944500Y-110014666D01*
X74877833Y-110048000D01*
X74844500Y-110081333D01*
X74811166Y-110148000D01*
X74811166Y-110248000D01*
X74844500Y-110314666D01*
X74877833Y-110348000D01*
X74944500Y-110381333D01*
X75211166Y-110381333D01*
X74111166Y-110714666D02*
X74344500Y-110381333D01*
X74511166Y-110714666D02*
X74511166Y-110014666D01*
X74244500Y-110014666D01*
X74177833Y-110048000D01*
X74144500Y-110081333D01*
X74111166Y-110148000D01*
X74111166Y-110248000D01*
X74144500Y-110314666D01*
X74177833Y-110348000D01*
X74244500Y-110381333D01*
X74511166Y-110381333D01*
X73677833Y-110014666D02*
X73544500Y-110014666D01*
X73477833Y-110048000D01*
X73411166Y-110114666D01*
X73377833Y-110248000D01*
X73377833Y-110481333D01*
X73411166Y-110614666D01*
X73477833Y-110681333D01*
X73544500Y-110714666D01*
X73677833Y-110714666D01*
X73744500Y-110681333D01*
X73811166Y-110614666D01*
X73844500Y-110481333D01*
X73844500Y-110248000D01*
X73811166Y-110114666D01*
X73744500Y-110048000D01*
X73677833Y-110014666D01*
X73077833Y-110714666D02*
X73077833Y-110014666D01*
X72844500Y-110514666D01*
X72611166Y-110014666D01*
X72611166Y-110714666D01*
X81777833Y-111648000D02*
X81244500Y-111648000D01*
X79977833Y-111848000D02*
X80011166Y-111881333D01*
X80111166Y-111914666D01*
X80177833Y-111914666D01*
X80277833Y-111881333D01*
X80344500Y-111814666D01*
X80377833Y-111748000D01*
X80411166Y-111614666D01*
X80411166Y-111514666D01*
X80377833Y-111381333D01*
X80344500Y-111314666D01*
X80277833Y-111248000D01*
X80177833Y-111214666D01*
X80111166Y-111214666D01*
X80011166Y-111248000D01*
X79977833Y-111281333D01*
X79577833Y-111914666D02*
X79644500Y-111881333D01*
X79677833Y-111814666D01*
X79677833Y-111214666D01*
X79211166Y-111914666D02*
X79277833Y-111881333D01*
X79311166Y-111848000D01*
X79344500Y-111781333D01*
X79344500Y-111581333D01*
X79311166Y-111514666D01*
X79277833Y-111481333D01*
X79211166Y-111448000D01*
X79111166Y-111448000D01*
X79044500Y-111481333D01*
X79011166Y-111514666D01*
X78977833Y-111581333D01*
X78977833Y-111781333D01*
X79011166Y-111848000D01*
X79044500Y-111881333D01*
X79111166Y-111914666D01*
X79211166Y-111914666D01*
X78377833Y-111881333D02*
X78444500Y-111914666D01*
X78577833Y-111914666D01*
X78644500Y-111881333D01*
X78677833Y-111848000D01*
X78711166Y-111781333D01*
X78711166Y-111581333D01*
X78677833Y-111514666D01*
X78644500Y-111481333D01*
X78577833Y-111448000D01*
X78444500Y-111448000D01*
X78377833Y-111481333D01*
X78077833Y-111914666D02*
X78077833Y-111214666D01*
X78011166Y-111648000D02*
X77811166Y-111914666D01*
X77811166Y-111448000D02*
X78077833Y-111714666D01*
X76411166Y-111914666D02*
X76444500Y-111914666D01*
X76511166Y-111881333D01*
X76611166Y-111781333D01*
X76777833Y-111581333D01*
X76844500Y-111481333D01*
X76877833Y-111381333D01*
X76877833Y-111314666D01*
X76844500Y-111248000D01*
X76777833Y-111214666D01*
X76744500Y-111214666D01*
X76677833Y-111248000D01*
X76644500Y-111314666D01*
X76644500Y-111348000D01*
X76677833Y-111414666D01*
X76711166Y-111448000D01*
X76911166Y-111581333D01*
X76944500Y-111614666D01*
X76977833Y-111681333D01*
X76977833Y-111781333D01*
X76944500Y-111848000D01*
X76911166Y-111881333D01*
X76844500Y-111914666D01*
X76744500Y-111914666D01*
X76677833Y-111881333D01*
X76644500Y-111848000D01*
X76544500Y-111714666D01*
X76511166Y-111614666D01*
X76511166Y-111548000D01*
X75277833Y-111881333D02*
X75344500Y-111914666D01*
X75477833Y-111914666D01*
X75544500Y-111881333D01*
X75577833Y-111848000D01*
X75611166Y-111781333D01*
X75611166Y-111581333D01*
X75577833Y-111514666D01*
X75544500Y-111481333D01*
X75477833Y-111448000D01*
X75344500Y-111448000D01*
X75277833Y-111481333D01*
X74677833Y-111914666D02*
X74677833Y-111548000D01*
X74711166Y-111481333D01*
X74777833Y-111448000D01*
X74911166Y-111448000D01*
X74977833Y-111481333D01*
X74677833Y-111881333D02*
X74744500Y-111914666D01*
X74911166Y-111914666D01*
X74977833Y-111881333D01*
X75011166Y-111814666D01*
X75011166Y-111748000D01*
X74977833Y-111681333D01*
X74911166Y-111648000D01*
X74744500Y-111648000D01*
X74677833Y-111614666D01*
X74244500Y-111914666D02*
X74311166Y-111881333D01*
X74344500Y-111814666D01*
X74344500Y-111214666D01*
X73711166Y-111881333D02*
X73777833Y-111914666D01*
X73911166Y-111914666D01*
X73977833Y-111881333D01*
X74011166Y-111814666D01*
X74011166Y-111548000D01*
X73977833Y-111481333D01*
X73911166Y-111448000D01*
X73777833Y-111448000D01*
X73711166Y-111481333D01*
X73677833Y-111548000D01*
X73677833Y-111614666D01*
X74011166Y-111681333D01*
X73377833Y-111448000D02*
X73377833Y-111914666D01*
X73377833Y-111514666D02*
X73344500Y-111481333D01*
X73277833Y-111448000D01*
X73177833Y-111448000D01*
X73111166Y-111481333D01*
X73077833Y-111548000D01*
X73077833Y-111914666D01*
X72444500Y-111914666D02*
X72444500Y-111214666D01*
X72444500Y-111881333D02*
X72511166Y-111914666D01*
X72644500Y-111914666D01*
X72711166Y-111881333D01*
X72744500Y-111848000D01*
X72777833Y-111781333D01*
X72777833Y-111581333D01*
X72744500Y-111514666D01*
X72711166Y-111481333D01*
X72644500Y-111448000D01*
X72511166Y-111448000D01*
X72444500Y-111481333D01*
X71811166Y-111914666D02*
X71811166Y-111548000D01*
X71844500Y-111481333D01*
X71911166Y-111448000D01*
X72044500Y-111448000D01*
X72111166Y-111481333D01*
X71811166Y-111881333D02*
X71877833Y-111914666D01*
X72044500Y-111914666D01*
X72111166Y-111881333D01*
X72144500Y-111814666D01*
X72144500Y-111748000D01*
X72111166Y-111681333D01*
X72044500Y-111648000D01*
X71877833Y-111648000D01*
X71811166Y-111614666D01*
X71477833Y-111914666D02*
X71477833Y-111448000D01*
X71477833Y-111581333D02*
X71444500Y-111514666D01*
X71411166Y-111481333D01*
X71344500Y-111448000D01*
X71277833Y-111448000D01*
X81777833Y-112848000D02*
X81244500Y-112848000D01*
X80377833Y-113114666D02*
X80377833Y-112414666D01*
X80077833Y-112481333D02*
X80044500Y-112448000D01*
X79977833Y-112414666D01*
X79811166Y-112414666D01*
X79744500Y-112448000D01*
X79711166Y-112481333D01*
X79677833Y-112548000D01*
X79677833Y-112614666D01*
X79711166Y-112714666D01*
X80111166Y-113114666D01*
X79677833Y-113114666D01*
X78977833Y-113048000D02*
X79011166Y-113081333D01*
X79111166Y-113114666D01*
X79177833Y-113114666D01*
X79277833Y-113081333D01*
X79344500Y-113014666D01*
X79377833Y-112948000D01*
X79411166Y-112814666D01*
X79411166Y-112714666D01*
X79377833Y-112581333D01*
X79344500Y-112514666D01*
X79277833Y-112448000D01*
X79177833Y-112414666D01*
X79111166Y-112414666D01*
X79011166Y-112448000D01*
X78977833Y-112481333D01*
X78644500Y-113081333D02*
X78644500Y-113114666D01*
X78677833Y-113181333D01*
X78711166Y-113214666D01*
X77844500Y-113081333D02*
X77744500Y-113114666D01*
X77577833Y-113114666D01*
X77511166Y-113081333D01*
X77477833Y-113048000D01*
X77444500Y-112981333D01*
X77444500Y-112914666D01*
X77477833Y-112848000D01*
X77511166Y-112814666D01*
X77577833Y-112781333D01*
X77711166Y-112748000D01*
X77777833Y-112714666D01*
X77811166Y-112681333D01*
X77844500Y-112614666D01*
X77844500Y-112548000D01*
X77811166Y-112481333D01*
X77777833Y-112448000D01*
X77711166Y-112414666D01*
X77544500Y-112414666D01*
X77444500Y-112448000D01*
X77144500Y-113114666D02*
X77144500Y-112414666D01*
X76877833Y-112414666D01*
X76811166Y-112448000D01*
X76777833Y-112481333D01*
X76744500Y-112548000D01*
X76744500Y-112648000D01*
X76777833Y-112714666D01*
X76811166Y-112748000D01*
X76877833Y-112781333D01*
X77144500Y-112781333D01*
X76444500Y-113114666D02*
X76444500Y-112414666D01*
X76077833Y-113081333D02*
X76077833Y-113114666D01*
X76111166Y-113181333D01*
X76144500Y-113214666D01*
X74877833Y-112448000D02*
X74944500Y-112414666D01*
X75044500Y-112414666D01*
X75144500Y-112448000D01*
X75211166Y-112514666D01*
X75244500Y-112581333D01*
X75277833Y-112714666D01*
X75277833Y-112814666D01*
X75244500Y-112948000D01*
X75211166Y-113014666D01*
X75144500Y-113081333D01*
X75044500Y-113114666D01*
X74977833Y-113114666D01*
X74877833Y-113081333D01*
X74844500Y-113048000D01*
X74844500Y-112814666D01*
X74977833Y-112814666D01*
X74544500Y-113114666D02*
X74544500Y-112414666D01*
X74277833Y-112414666D01*
X74211166Y-112448000D01*
X74177833Y-112481333D01*
X74144500Y-112548000D01*
X74144500Y-112648000D01*
X74177833Y-112714666D01*
X74211166Y-112748000D01*
X74277833Y-112781333D01*
X74544500Y-112781333D01*
X73844500Y-113114666D02*
X73844500Y-112414666D01*
X73377833Y-112414666D02*
X73244500Y-112414666D01*
X73177833Y-112448000D01*
X73111166Y-112514666D01*
X73077833Y-112648000D01*
X73077833Y-112881333D01*
X73111166Y-113014666D01*
X73177833Y-113081333D01*
X73244500Y-113114666D01*
X73377833Y-113114666D01*
X73444500Y-113081333D01*
X73511166Y-113014666D01*
X73544500Y-112881333D01*
X73544500Y-112648000D01*
X73511166Y-112514666D01*
X73444500Y-112448000D01*
X73377833Y-112414666D01*
D11*
%TO.C,REF\u002A\u002A*%
G36*
X80193114Y-103676505D02*
G01*
X80118461Y-103713727D01*
X80052569Y-103782261D01*
X80034423Y-103807648D01*
X80014655Y-103840866D01*
X80001828Y-103876945D01*
X79994490Y-103925098D01*
X79991187Y-103994536D01*
X79990462Y-104086206D01*
X79993737Y-104211830D01*
X80005123Y-104306154D01*
X80026959Y-104376523D01*
X80061581Y-104430286D01*
X80111330Y-104474788D01*
X80114986Y-104477423D01*
X80164015Y-104504377D01*
X80223055Y-104517712D01*
X80298141Y-104521000D01*
X80420205Y-104521000D01*
X80420256Y-104639497D01*
X80421392Y-104705492D01*
X80428314Y-104744202D01*
X80446402Y-104767419D01*
X80481038Y-104786933D01*
X80489355Y-104790920D01*
X80528280Y-104809603D01*
X80558417Y-104821403D01*
X80580826Y-104822422D01*
X80596567Y-104808761D01*
X80606698Y-104776522D01*
X80612277Y-104721804D01*
X80614365Y-104640711D01*
X80614019Y-104529344D01*
X80612300Y-104383802D01*
X80611763Y-104340269D01*
X80609828Y-104190205D01*
X80608096Y-104092042D01*
X80420308Y-104092042D01*
X80419252Y-104175364D01*
X80414562Y-104229880D01*
X80403949Y-104265837D01*
X80385128Y-104293482D01*
X80372350Y-104306965D01*
X80320110Y-104346417D01*
X80273858Y-104349628D01*
X80226133Y-104317049D01*
X80224923Y-104315846D01*
X80205506Y-104290668D01*
X80193693Y-104256447D01*
X80187735Y-104203748D01*
X80185880Y-104123131D01*
X80185846Y-104105271D01*
X80190330Y-103994175D01*
X80204926Y-103917161D01*
X80231350Y-103870147D01*
X80271317Y-103849050D01*
X80294416Y-103846923D01*
X80349238Y-103856900D01*
X80386842Y-103889752D01*
X80409477Y-103949857D01*
X80419394Y-104041598D01*
X80420308Y-104092042D01*
X80608096Y-104092042D01*
X80607778Y-104074060D01*
X80605127Y-103986679D01*
X80601394Y-103922905D01*
X80596093Y-103877582D01*
X80588742Y-103845555D01*
X80578857Y-103821668D01*
X80565954Y-103800764D01*
X80560421Y-103792898D01*
X80487031Y-103718595D01*
X80394240Y-103676467D01*
X80286904Y-103664722D01*
X80193114Y-103676505D01*
G37*
X80193114Y-103676505D02*
X80118461Y-103713727D01*
X80052569Y-103782261D01*
X80034423Y-103807648D01*
X80014655Y-103840866D01*
X80001828Y-103876945D01*
X79994490Y-103925098D01*
X79991187Y-103994536D01*
X79990462Y-104086206D01*
X79993737Y-104211830D01*
X80005123Y-104306154D01*
X80026959Y-104376523D01*
X80061581Y-104430286D01*
X80111330Y-104474788D01*
X80114986Y-104477423D01*
X80164015Y-104504377D01*
X80223055Y-104517712D01*
X80298141Y-104521000D01*
X80420205Y-104521000D01*
X80420256Y-104639497D01*
X80421392Y-104705492D01*
X80428314Y-104744202D01*
X80446402Y-104767419D01*
X80481038Y-104786933D01*
X80489355Y-104790920D01*
X80528280Y-104809603D01*
X80558417Y-104821403D01*
X80580826Y-104822422D01*
X80596567Y-104808761D01*
X80606698Y-104776522D01*
X80612277Y-104721804D01*
X80614365Y-104640711D01*
X80614019Y-104529344D01*
X80612300Y-104383802D01*
X80611763Y-104340269D01*
X80609828Y-104190205D01*
X80608096Y-104092042D01*
X80420308Y-104092042D01*
X80419252Y-104175364D01*
X80414562Y-104229880D01*
X80403949Y-104265837D01*
X80385128Y-104293482D01*
X80372350Y-104306965D01*
X80320110Y-104346417D01*
X80273858Y-104349628D01*
X80226133Y-104317049D01*
X80224923Y-104315846D01*
X80205506Y-104290668D01*
X80193693Y-104256447D01*
X80187735Y-104203748D01*
X80185880Y-104123131D01*
X80185846Y-104105271D01*
X80190330Y-103994175D01*
X80204926Y-103917161D01*
X80231350Y-103870147D01*
X80271317Y-103849050D01*
X80294416Y-103846923D01*
X80349238Y-103856900D01*
X80386842Y-103889752D01*
X80409477Y-103949857D01*
X80419394Y-104041598D01*
X80420308Y-104092042D01*
X80608096Y-104092042D01*
X80607778Y-104074060D01*
X80605127Y-103986679D01*
X80601394Y-103922905D01*
X80596093Y-103877582D01*
X80588742Y-103845555D01*
X80578857Y-103821668D01*
X80565954Y-103800764D01*
X80560421Y-103792898D01*
X80487031Y-103718595D01*
X80394240Y-103676467D01*
X80286904Y-103664722D01*
X80193114Y-103676505D01*
G36*
X78690336Y-103687089D02*
G01*
X78627633Y-103723358D01*
X78584039Y-103759358D01*
X78552155Y-103797075D01*
X78530190Y-103843199D01*
X78516351Y-103904421D01*
X78508847Y-103987431D01*
X78505883Y-104098919D01*
X78505539Y-104179062D01*
X78505539Y-104474065D01*
X78671615Y-104548515D01*
X78681385Y-104225402D01*
X78685421Y-104104729D01*
X78689656Y-104017141D01*
X78694903Y-103956650D01*
X78701975Y-103917268D01*
X78711689Y-103893007D01*
X78724856Y-103877880D01*
X78729081Y-103874606D01*
X78793091Y-103849034D01*
X78857792Y-103859153D01*
X78896308Y-103886000D01*
X78911975Y-103905024D01*
X78922820Y-103929988D01*
X78929712Y-103967834D01*
X78933521Y-104025502D01*
X78935117Y-104109935D01*
X78935385Y-104197928D01*
X78935437Y-104308323D01*
X78937328Y-104386463D01*
X78943655Y-104439165D01*
X78957017Y-104473242D01*
X78980015Y-104495511D01*
X79015246Y-104512787D01*
X79062303Y-104530738D01*
X79113697Y-104550278D01*
X79107579Y-104203485D01*
X79105116Y-104078468D01*
X79102233Y-103986082D01*
X79098102Y-103919881D01*
X79091893Y-103873420D01*
X79082774Y-103840256D01*
X79069917Y-103813944D01*
X79054416Y-103790729D01*
X78979629Y-103716569D01*
X78888372Y-103673684D01*
X78789117Y-103663412D01*
X78690336Y-103687089D01*
G37*
X78690336Y-103687089D02*
X78627633Y-103723358D01*
X78584039Y-103759358D01*
X78552155Y-103797075D01*
X78530190Y-103843199D01*
X78516351Y-103904421D01*
X78508847Y-103987431D01*
X78505883Y-104098919D01*
X78505539Y-104179062D01*
X78505539Y-104474065D01*
X78671615Y-104548515D01*
X78681385Y-104225402D01*
X78685421Y-104104729D01*
X78689656Y-104017141D01*
X78694903Y-103956650D01*
X78701975Y-103917268D01*
X78711689Y-103893007D01*
X78724856Y-103877880D01*
X78729081Y-103874606D01*
X78793091Y-103849034D01*
X78857792Y-103859153D01*
X78896308Y-103886000D01*
X78911975Y-103905024D01*
X78922820Y-103929988D01*
X78929712Y-103967834D01*
X78933521Y-104025502D01*
X78935117Y-104109935D01*
X78935385Y-104197928D01*
X78935437Y-104308323D01*
X78937328Y-104386463D01*
X78943655Y-104439165D01*
X78957017Y-104473242D01*
X78980015Y-104495511D01*
X79015246Y-104512787D01*
X79062303Y-104530738D01*
X79113697Y-104550278D01*
X79107579Y-104203485D01*
X79105116Y-104078468D01*
X79102233Y-103986082D01*
X79098102Y-103919881D01*
X79091893Y-103873420D01*
X79082774Y-103840256D01*
X79069917Y-103813944D01*
X79054416Y-103790729D01*
X78979629Y-103716569D01*
X78888372Y-103673684D01*
X78789117Y-103663412D01*
X78690336Y-103687089D01*
G36*
X80945114Y-103679256D02*
G01*
X80853536Y-103727409D01*
X80785951Y-103804905D01*
X80761943Y-103854727D01*
X80743262Y-103929533D01*
X80733699Y-104024052D01*
X80732792Y-104127210D01*
X80740079Y-104227935D01*
X80755097Y-104315153D01*
X80777385Y-104377791D01*
X80784235Y-104388579D01*
X80865368Y-104469105D01*
X80961734Y-104517336D01*
X81066299Y-104531450D01*
X81172032Y-104509629D01*
X81201457Y-104496547D01*
X81258759Y-104456231D01*
X81309050Y-104402775D01*
X81313803Y-104395995D01*
X81333122Y-104363321D01*
X81345892Y-104328394D01*
X81353436Y-104282414D01*
X81357076Y-104216584D01*
X81358135Y-104122105D01*
X81358154Y-104100923D01*
X81358106Y-104094182D01*
X81162769Y-104094182D01*
X81161632Y-104183349D01*
X81157159Y-104242520D01*
X81147754Y-104280741D01*
X81131824Y-104307053D01*
X81123692Y-104315846D01*
X81076942Y-104349261D01*
X81031553Y-104347737D01*
X80985660Y-104318752D01*
X80958288Y-104287809D01*
X80942077Y-104242643D01*
X80932974Y-104171420D01*
X80932349Y-104163114D01*
X80930796Y-104034037D01*
X80947035Y-103938172D01*
X80980848Y-103876107D01*
X81032016Y-103848432D01*
X81050280Y-103846923D01*
X81098240Y-103854513D01*
X81131047Y-103880808D01*
X81151105Y-103931095D01*
X81160822Y-104010664D01*
X81162769Y-104094182D01*
X81358106Y-104094182D01*
X81357426Y-104000249D01*
X81354371Y-103929906D01*
X81347678Y-103881163D01*
X81336040Y-103845288D01*
X81318147Y-103813548D01*
X81314192Y-103807648D01*
X81247733Y-103728104D01*
X81175315Y-103681929D01*
X81087151Y-103663599D01*
X81057213Y-103662703D01*
X80945114Y-103679256D01*
G37*
X80945114Y-103679256D02*
X80853536Y-103727409D01*
X80785951Y-103804905D01*
X80761943Y-103854727D01*
X80743262Y-103929533D01*
X80733699Y-104024052D01*
X80732792Y-104127210D01*
X80740079Y-104227935D01*
X80755097Y-104315153D01*
X80777385Y-104377791D01*
X80784235Y-104388579D01*
X80865368Y-104469105D01*
X80961734Y-104517336D01*
X81066299Y-104531450D01*
X81172032Y-104509629D01*
X81201457Y-104496547D01*
X81258759Y-104456231D01*
X81309050Y-104402775D01*
X81313803Y-104395995D01*
X81333122Y-104363321D01*
X81345892Y-104328394D01*
X81353436Y-104282414D01*
X81357076Y-104216584D01*
X81358135Y-104122105D01*
X81358154Y-104100923D01*
X81358106Y-104094182D01*
X81162769Y-104094182D01*
X81161632Y-104183349D01*
X81157159Y-104242520D01*
X81147754Y-104280741D01*
X81131824Y-104307053D01*
X81123692Y-104315846D01*
X81076942Y-104349261D01*
X81031553Y-104347737D01*
X80985660Y-104318752D01*
X80958288Y-104287809D01*
X80942077Y-104242643D01*
X80932974Y-104171420D01*
X80932349Y-104163114D01*
X80930796Y-104034037D01*
X80947035Y-103938172D01*
X80980848Y-103876107D01*
X81032016Y-103848432D01*
X81050280Y-103846923D01*
X81098240Y-103854513D01*
X81131047Y-103880808D01*
X81151105Y-103931095D01*
X81160822Y-104010664D01*
X81162769Y-104094182D01*
X81358106Y-104094182D01*
X81357426Y-104000249D01*
X81354371Y-103929906D01*
X81347678Y-103881163D01*
X81336040Y-103845288D01*
X81318147Y-103813548D01*
X81314192Y-103807648D01*
X81247733Y-103728104D01*
X81175315Y-103681929D01*
X81087151Y-103663599D01*
X81057213Y-103662703D01*
X80945114Y-103679256D01*
G36*
X79427746Y-103691745D02*
G01*
X79350714Y-103743567D01*
X79291184Y-103818412D01*
X79255622Y-103913654D01*
X79248429Y-103983756D01*
X79249246Y-104013009D01*
X79256086Y-104035407D01*
X79274888Y-104055474D01*
X79311592Y-104077733D01*
X79372138Y-104106709D01*
X79462466Y-104146927D01*
X79462923Y-104147129D01*
X79546067Y-104185210D01*
X79614247Y-104219025D01*
X79660495Y-104244933D01*
X79677842Y-104259295D01*
X79677846Y-104259411D01*
X79662557Y-104290685D01*
X79626804Y-104325157D01*
X79585758Y-104349990D01*
X79564963Y-104354923D01*
X79508230Y-104337862D01*
X79459373Y-104295133D01*
X79435535Y-104248155D01*
X79412603Y-104213522D01*
X79367682Y-104174081D01*
X79314877Y-104140009D01*
X79268290Y-104121480D01*
X79258548Y-104120462D01*
X79247582Y-104137215D01*
X79246921Y-104180039D01*
X79254980Y-104237781D01*
X79270173Y-104299289D01*
X79290914Y-104353409D01*
X79291962Y-104355510D01*
X79354379Y-104442660D01*
X79435274Y-104501939D01*
X79527144Y-104531034D01*
X79622487Y-104527634D01*
X79713802Y-104489428D01*
X79717862Y-104486741D01*
X79789694Y-104421642D01*
X79836927Y-104336705D01*
X79863066Y-104225021D01*
X79866574Y-104193643D01*
X79872787Y-104045536D01*
X79865339Y-103976468D01*
X79677846Y-103976468D01*
X79675410Y-104019552D01*
X79662086Y-104032126D01*
X79628868Y-104022719D01*
X79576506Y-104000483D01*
X79517976Y-103972610D01*
X79516521Y-103971872D01*
X79466911Y-103945777D01*
X79447000Y-103928363D01*
X79451910Y-103910107D01*
X79472584Y-103886120D01*
X79525181Y-103851406D01*
X79581823Y-103848856D01*
X79632631Y-103874119D01*
X79667724Y-103922847D01*
X79677846Y-103976468D01*
X79865339Y-103976468D01*
X79860008Y-103927036D01*
X79827222Y-103833055D01*
X79781579Y-103767215D01*
X79699198Y-103700681D01*
X79608454Y-103667676D01*
X79515815Y-103665573D01*
X79427746Y-103691745D01*
G37*
X79427746Y-103691745D02*
X79350714Y-103743567D01*
X79291184Y-103818412D01*
X79255622Y-103913654D01*
X79248429Y-103983756D01*
X79249246Y-104013009D01*
X79256086Y-104035407D01*
X79274888Y-104055474D01*
X79311592Y-104077733D01*
X79372138Y-104106709D01*
X79462466Y-104146927D01*
X79462923Y-104147129D01*
X79546067Y-104185210D01*
X79614247Y-104219025D01*
X79660495Y-104244933D01*
X79677842Y-104259295D01*
X79677846Y-104259411D01*
X79662557Y-104290685D01*
X79626804Y-104325157D01*
X79585758Y-104349990D01*
X79564963Y-104354923D01*
X79508230Y-104337862D01*
X79459373Y-104295133D01*
X79435535Y-104248155D01*
X79412603Y-104213522D01*
X79367682Y-104174081D01*
X79314877Y-104140009D01*
X79268290Y-104121480D01*
X79258548Y-104120462D01*
X79247582Y-104137215D01*
X79246921Y-104180039D01*
X79254980Y-104237781D01*
X79270173Y-104299289D01*
X79290914Y-104353409D01*
X79291962Y-104355510D01*
X79354379Y-104442660D01*
X79435274Y-104501939D01*
X79527144Y-104531034D01*
X79622487Y-104527634D01*
X79713802Y-104489428D01*
X79717862Y-104486741D01*
X79789694Y-104421642D01*
X79836927Y-104336705D01*
X79863066Y-104225021D01*
X79866574Y-104193643D01*
X79872787Y-104045536D01*
X79865339Y-103976468D01*
X79677846Y-103976468D01*
X79675410Y-104019552D01*
X79662086Y-104032126D01*
X79628868Y-104022719D01*
X79576506Y-104000483D01*
X79517976Y-103972610D01*
X79516521Y-103971872D01*
X79466911Y-103945777D01*
X79447000Y-103928363D01*
X79451910Y-103910107D01*
X79472584Y-103886120D01*
X79525181Y-103851406D01*
X79581823Y-103848856D01*
X79632631Y-103874119D01*
X79667724Y-103922847D01*
X79677846Y-103976468D01*
X79865339Y-103976468D01*
X79860008Y-103927036D01*
X79827222Y-103833055D01*
X79781579Y-103767215D01*
X79699198Y-103700681D01*
X79608454Y-103667676D01*
X79515815Y-103665573D01*
X79427746Y-103691745D01*
G36*
X77802154Y-103584120D02*
G01*
X77796428Y-103663980D01*
X77789851Y-103711039D01*
X77780738Y-103731566D01*
X77767402Y-103731829D01*
X77763077Y-103729378D01*
X77705556Y-103711636D01*
X77630732Y-103712672D01*
X77554661Y-103730910D01*
X77507082Y-103754505D01*
X77458298Y-103792198D01*
X77422636Y-103834855D01*
X77398155Y-103889057D01*
X77382913Y-103961384D01*
X77374970Y-104058419D01*
X77372384Y-104186742D01*
X77372338Y-104211358D01*
X77372308Y-104487870D01*
X77433839Y-104509320D01*
X77477541Y-104523912D01*
X77501518Y-104530706D01*
X77502223Y-104530769D01*
X77504585Y-104512345D01*
X77506594Y-104461526D01*
X77508099Y-104384993D01*
X77508947Y-104289430D01*
X77509077Y-104231329D01*
X77509349Y-104116771D01*
X77510748Y-104034667D01*
X77514151Y-103978393D01*
X77520433Y-103941326D01*
X77530471Y-103916844D01*
X77545139Y-103898325D01*
X77554298Y-103889406D01*
X77617211Y-103853466D01*
X77685864Y-103850775D01*
X77748152Y-103881170D01*
X77759671Y-103892144D01*
X77776567Y-103912779D01*
X77788286Y-103937256D01*
X77795767Y-103972647D01*
X77799946Y-104026026D01*
X77801763Y-104104466D01*
X77802154Y-104212617D01*
X77802154Y-104487870D01*
X77863685Y-104509320D01*
X77907387Y-104523912D01*
X77931364Y-104530706D01*
X77932070Y-104530769D01*
X77933874Y-104512069D01*
X77935500Y-104459322D01*
X77936883Y-104377557D01*
X77937958Y-104271805D01*
X77938660Y-104147094D01*
X77938923Y-104008455D01*
X77938923Y-103473806D01*
X77811923Y-103420236D01*
X77802154Y-103584120D01*
G37*
X77802154Y-103584120D02*
X77796428Y-103663980D01*
X77789851Y-103711039D01*
X77780738Y-103731566D01*
X77767402Y-103731829D01*
X77763077Y-103729378D01*
X77705556Y-103711636D01*
X77630732Y-103712672D01*
X77554661Y-103730910D01*
X77507082Y-103754505D01*
X77458298Y-103792198D01*
X77422636Y-103834855D01*
X77398155Y-103889057D01*
X77382913Y-103961384D01*
X77374970Y-104058419D01*
X77372384Y-104186742D01*
X77372338Y-104211358D01*
X77372308Y-104487870D01*
X77433839Y-104509320D01*
X77477541Y-104523912D01*
X77501518Y-104530706D01*
X77502223Y-104530769D01*
X77504585Y-104512345D01*
X77506594Y-104461526D01*
X77508099Y-104384993D01*
X77508947Y-104289430D01*
X77509077Y-104231329D01*
X77509349Y-104116771D01*
X77510748Y-104034667D01*
X77514151Y-103978393D01*
X77520433Y-103941326D01*
X77530471Y-103916844D01*
X77545139Y-103898325D01*
X77554298Y-103889406D01*
X77617211Y-103853466D01*
X77685864Y-103850775D01*
X77748152Y-103881170D01*
X77759671Y-103892144D01*
X77776567Y-103912779D01*
X77788286Y-103937256D01*
X77795767Y-103972647D01*
X77799946Y-104026026D01*
X77801763Y-104104466D01*
X77802154Y-104212617D01*
X77802154Y-104487870D01*
X77863685Y-104509320D01*
X77907387Y-104523912D01*
X77931364Y-104530706D01*
X77932070Y-104530769D01*
X77933874Y-104512069D01*
X77935500Y-104459322D01*
X77936883Y-104377557D01*
X77937958Y-104271805D01*
X77938660Y-104147094D01*
X77938923Y-104008455D01*
X77938923Y-103473806D01*
X77811923Y-103420236D01*
X77802154Y-103584120D01*
G36*
X76908499Y-103718303D02*
G01*
X76831940Y-103746733D01*
X76831064Y-103747279D01*
X76783715Y-103782127D01*
X76748759Y-103822852D01*
X76724175Y-103875925D01*
X76707938Y-103947814D01*
X76698025Y-104044992D01*
X76692414Y-104173928D01*
X76691923Y-104192298D01*
X76684859Y-104469287D01*
X76744305Y-104500028D01*
X76787319Y-104520802D01*
X76813290Y-104530646D01*
X76814491Y-104530769D01*
X76818986Y-104512606D01*
X76822556Y-104463612D01*
X76824752Y-104392031D01*
X76825231Y-104334068D01*
X76825242Y-104240170D01*
X76829534Y-104181203D01*
X76844497Y-104153079D01*
X76876518Y-104151706D01*
X76931986Y-104172998D01*
X77015731Y-104212136D01*
X77077311Y-104244643D01*
X77108983Y-104272845D01*
X77118294Y-104303582D01*
X77118308Y-104305104D01*
X77102943Y-104358054D01*
X77057453Y-104386660D01*
X76987834Y-104390803D01*
X76937687Y-104390084D01*
X76911246Y-104404527D01*
X76894757Y-104439218D01*
X76885267Y-104483416D01*
X76898943Y-104508493D01*
X76904093Y-104512082D01*
X76952575Y-104526496D01*
X77020469Y-104528537D01*
X77090388Y-104518983D01*
X77139932Y-104501522D01*
X77208430Y-104443364D01*
X77247366Y-104362408D01*
X77255077Y-104299160D01*
X77249193Y-104242111D01*
X77227899Y-104195542D01*
X77185735Y-104154181D01*
X77117241Y-104112755D01*
X77016956Y-104065993D01*
X77010846Y-104063350D01*
X76920510Y-104021617D01*
X76864765Y-103987391D01*
X76840871Y-103956635D01*
X76846087Y-103925311D01*
X76877672Y-103889383D01*
X76887117Y-103881116D01*
X76950383Y-103849058D01*
X77015936Y-103850407D01*
X77073028Y-103881838D01*
X77110907Y-103940024D01*
X77114426Y-103951446D01*
X77148700Y-104006837D01*
X77192191Y-104033518D01*
X77255077Y-104059960D01*
X77255077Y-103991548D01*
X77235948Y-103892110D01*
X77179169Y-103800902D01*
X77149622Y-103770389D01*
X77082458Y-103731228D01*
X76997044Y-103713500D01*
X76908499Y-103718303D01*
G37*
X76908499Y-103718303D02*
X76831940Y-103746733D01*
X76831064Y-103747279D01*
X76783715Y-103782127D01*
X76748759Y-103822852D01*
X76724175Y-103875925D01*
X76707938Y-103947814D01*
X76698025Y-104044992D01*
X76692414Y-104173928D01*
X76691923Y-104192298D01*
X76684859Y-104469287D01*
X76744305Y-104500028D01*
X76787319Y-104520802D01*
X76813290Y-104530646D01*
X76814491Y-104530769D01*
X76818986Y-104512606D01*
X76822556Y-104463612D01*
X76824752Y-104392031D01*
X76825231Y-104334068D01*
X76825242Y-104240170D01*
X76829534Y-104181203D01*
X76844497Y-104153079D01*
X76876518Y-104151706D01*
X76931986Y-104172998D01*
X77015731Y-104212136D01*
X77077311Y-104244643D01*
X77108983Y-104272845D01*
X77118294Y-104303582D01*
X77118308Y-104305104D01*
X77102943Y-104358054D01*
X77057453Y-104386660D01*
X76987834Y-104390803D01*
X76937687Y-104390084D01*
X76911246Y-104404527D01*
X76894757Y-104439218D01*
X76885267Y-104483416D01*
X76898943Y-104508493D01*
X76904093Y-104512082D01*
X76952575Y-104526496D01*
X77020469Y-104528537D01*
X77090388Y-104518983D01*
X77139932Y-104501522D01*
X77208430Y-104443364D01*
X77247366Y-104362408D01*
X77255077Y-104299160D01*
X77249193Y-104242111D01*
X77227899Y-104195542D01*
X77185735Y-104154181D01*
X77117241Y-104112755D01*
X77016956Y-104065993D01*
X77010846Y-104063350D01*
X76920510Y-104021617D01*
X76864765Y-103987391D01*
X76840871Y-103956635D01*
X76846087Y-103925311D01*
X76877672Y-103889383D01*
X76887117Y-103881116D01*
X76950383Y-103849058D01*
X77015936Y-103850407D01*
X77073028Y-103881838D01*
X77110907Y-103940024D01*
X77114426Y-103951446D01*
X77148700Y-104006837D01*
X77192191Y-104033518D01*
X77255077Y-104059960D01*
X77255077Y-103991548D01*
X77235948Y-103892110D01*
X77179169Y-103800902D01*
X77149622Y-103770389D01*
X77082458Y-103731228D01*
X76997044Y-103713500D01*
X76908499Y-103718303D01*
G36*
X76248638Y-103716670D02*
G01*
X76159883Y-103749421D01*
X76087978Y-103807350D01*
X76059856Y-103848128D01*
X76029198Y-103922954D01*
X76029835Y-103977058D01*
X76062013Y-104013446D01*
X76073919Y-104019633D01*
X76125325Y-104038925D01*
X76151578Y-104033982D01*
X76160470Y-104001587D01*
X76160923Y-103983692D01*
X76177203Y-103917859D01*
X76219635Y-103871807D01*
X76278612Y-103849564D01*
X76344525Y-103855161D01*
X76398105Y-103884229D01*
X76416202Y-103900810D01*
X76429029Y-103920925D01*
X76437694Y-103951332D01*
X76443304Y-103998788D01*
X76446965Y-104070050D01*
X76449785Y-104171875D01*
X76450516Y-104204115D01*
X76453180Y-104314410D01*
X76456208Y-104392036D01*
X76460750Y-104443396D01*
X76467954Y-104474890D01*
X76478967Y-104492920D01*
X76494940Y-104503888D01*
X76505166Y-104508733D01*
X76548594Y-104525301D01*
X76574158Y-104530769D01*
X76582605Y-104512507D01*
X76587761Y-104457296D01*
X76589654Y-104364499D01*
X76588311Y-104233478D01*
X76587893Y-104213269D01*
X76584942Y-104093733D01*
X76581452Y-104006449D01*
X76576486Y-103944591D01*
X76569107Y-103901336D01*
X76558376Y-103869860D01*
X76543355Y-103843339D01*
X76535498Y-103831975D01*
X76490447Y-103781692D01*
X76440060Y-103742581D01*
X76433892Y-103739167D01*
X76343542Y-103712212D01*
X76248638Y-103716670D01*
G37*
X76248638Y-103716670D02*
X76159883Y-103749421D01*
X76087978Y-103807350D01*
X76059856Y-103848128D01*
X76029198Y-103922954D01*
X76029835Y-103977058D01*
X76062013Y-104013446D01*
X76073919Y-104019633D01*
X76125325Y-104038925D01*
X76151578Y-104033982D01*
X76160470Y-104001587D01*
X76160923Y-103983692D01*
X76177203Y-103917859D01*
X76219635Y-103871807D01*
X76278612Y-103849564D01*
X76344525Y-103855161D01*
X76398105Y-103884229D01*
X76416202Y-103900810D01*
X76429029Y-103920925D01*
X76437694Y-103951332D01*
X76443304Y-103998788D01*
X76446965Y-104070050D01*
X76449785Y-104171875D01*
X76450516Y-104204115D01*
X76453180Y-104314410D01*
X76456208Y-104392036D01*
X76460750Y-104443396D01*
X76467954Y-104474890D01*
X76478967Y-104492920D01*
X76494940Y-104503888D01*
X76505166Y-104508733D01*
X76548594Y-104525301D01*
X76574158Y-104530769D01*
X76582605Y-104512507D01*
X76587761Y-104457296D01*
X76589654Y-104364499D01*
X76588311Y-104233478D01*
X76587893Y-104213269D01*
X76584942Y-104093733D01*
X76581452Y-104006449D01*
X76576486Y-103944591D01*
X76569107Y-103901336D01*
X76558376Y-103869860D01*
X76543355Y-103843339D01*
X76535498Y-103831975D01*
X76490447Y-103781692D01*
X76440060Y-103742581D01*
X76433892Y-103739167D01*
X76343542Y-103712212D01*
X76248638Y-103716670D01*
G36*
X75359919Y-103872289D02*
G01*
X75360167Y-104018320D01*
X75361128Y-104130655D01*
X75363206Y-104214678D01*
X75366807Y-104275769D01*
X75372335Y-104319309D01*
X75380196Y-104350679D01*
X75390793Y-104375262D01*
X75398818Y-104389294D01*
X75465272Y-104465388D01*
X75549530Y-104513084D01*
X75642751Y-104530199D01*
X75736100Y-104514546D01*
X75791688Y-104486418D01*
X75850043Y-104437760D01*
X75889814Y-104378333D01*
X75913810Y-104300507D01*
X75924839Y-104196652D01*
X75926401Y-104120462D01*
X75926191Y-104114986D01*
X75789692Y-104114986D01*
X75788859Y-104202355D01*
X75785039Y-104260192D01*
X75776254Y-104298029D01*
X75760526Y-104325398D01*
X75741734Y-104346042D01*
X75678625Y-104385890D01*
X75610863Y-104389295D01*
X75546821Y-104356025D01*
X75541836Y-104351517D01*
X75520561Y-104328067D01*
X75507221Y-104300166D01*
X75499999Y-104258641D01*
X75497077Y-104194316D01*
X75496615Y-104123200D01*
X75497617Y-104033858D01*
X75501762Y-103974258D01*
X75510764Y-103935089D01*
X75526333Y-103907040D01*
X75539098Y-103892144D01*
X75598400Y-103854575D01*
X75666699Y-103850057D01*
X75731890Y-103878753D01*
X75744472Y-103889406D01*
X75765889Y-103913063D01*
X75779256Y-103941251D01*
X75786434Y-103983245D01*
X75789281Y-104048319D01*
X75789692Y-104114986D01*
X75926191Y-104114986D01*
X75921678Y-103997765D01*
X75905638Y-103905577D01*
X75875472Y-103836269D01*
X75828371Y-103782211D01*
X75791688Y-103754505D01*
X75725010Y-103724572D01*
X75647728Y-103710678D01*
X75575890Y-103714397D01*
X75535692Y-103729400D01*
X75519918Y-103733670D01*
X75509450Y-103717750D01*
X75502144Y-103675089D01*
X75496615Y-103610106D01*
X75490563Y-103537732D01*
X75482156Y-103494187D01*
X75466859Y-103469287D01*
X75440136Y-103452845D01*
X75423346Y-103445564D01*
X75359846Y-103418963D01*
X75359919Y-103872289D01*
G37*
X75359919Y-103872289D02*
X75360167Y-104018320D01*
X75361128Y-104130655D01*
X75363206Y-104214678D01*
X75366807Y-104275769D01*
X75372335Y-104319309D01*
X75380196Y-104350679D01*
X75390793Y-104375262D01*
X75398818Y-104389294D01*
X75465272Y-104465388D01*
X75549530Y-104513084D01*
X75642751Y-104530199D01*
X75736100Y-104514546D01*
X75791688Y-104486418D01*
X75850043Y-104437760D01*
X75889814Y-104378333D01*
X75913810Y-104300507D01*
X75924839Y-104196652D01*
X75926401Y-104120462D01*
X75926191Y-104114986D01*
X75789692Y-104114986D01*
X75788859Y-104202355D01*
X75785039Y-104260192D01*
X75776254Y-104298029D01*
X75760526Y-104325398D01*
X75741734Y-104346042D01*
X75678625Y-104385890D01*
X75610863Y-104389295D01*
X75546821Y-104356025D01*
X75541836Y-104351517D01*
X75520561Y-104328067D01*
X75507221Y-104300166D01*
X75499999Y-104258641D01*
X75497077Y-104194316D01*
X75496615Y-104123200D01*
X75497617Y-104033858D01*
X75501762Y-103974258D01*
X75510764Y-103935089D01*
X75526333Y-103907040D01*
X75539098Y-103892144D01*
X75598400Y-103854575D01*
X75666699Y-103850057D01*
X75731890Y-103878753D01*
X75744472Y-103889406D01*
X75765889Y-103913063D01*
X75779256Y-103941251D01*
X75786434Y-103983245D01*
X75789281Y-104048319D01*
X75789692Y-104114986D01*
X75926191Y-104114986D01*
X75921678Y-103997765D01*
X75905638Y-103905577D01*
X75875472Y-103836269D01*
X75828371Y-103782211D01*
X75791688Y-103754505D01*
X75725010Y-103724572D01*
X75647728Y-103710678D01*
X75575890Y-103714397D01*
X75535692Y-103729400D01*
X75519918Y-103733670D01*
X75509450Y-103717750D01*
X75502144Y-103675089D01*
X75496615Y-103610106D01*
X75490563Y-103537732D01*
X75482156Y-103494187D01*
X75466859Y-103469287D01*
X75440136Y-103452845D01*
X75423346Y-103445564D01*
X75359846Y-103418963D01*
X75359919Y-103872289D01*
G36*
X74566071Y-103728662D02*
G01*
X74563089Y-103780068D01*
X74560753Y-103858192D01*
X74559251Y-103956857D01*
X74558769Y-104060343D01*
X74558769Y-104410533D01*
X74620599Y-104472363D01*
X74663207Y-104510462D01*
X74700610Y-104525895D01*
X74751730Y-104524918D01*
X74772022Y-104522433D01*
X74835446Y-104515200D01*
X74887905Y-104511055D01*
X74900692Y-104510672D01*
X74943801Y-104513176D01*
X75005456Y-104519462D01*
X75029362Y-104522433D01*
X75088078Y-104527028D01*
X75127536Y-104517046D01*
X75166662Y-104486228D01*
X75180785Y-104472363D01*
X75242615Y-104410533D01*
X75242615Y-103755503D01*
X75192850Y-103732829D01*
X75149998Y-103716034D01*
X75124927Y-103710154D01*
X75118499Y-103728736D01*
X75112491Y-103780655D01*
X75107303Y-103860172D01*
X75103336Y-103961546D01*
X75101423Y-104047192D01*
X75096077Y-104384231D01*
X75049440Y-104390825D01*
X75007024Y-104386214D01*
X74986240Y-104371287D01*
X74980430Y-104343377D01*
X74975470Y-104283925D01*
X74971754Y-104200466D01*
X74969676Y-104100532D01*
X74969376Y-104049104D01*
X74969077Y-103753054D01*
X74907546Y-103731604D01*
X74863996Y-103717020D01*
X74840306Y-103710219D01*
X74839623Y-103710154D01*
X74837246Y-103728642D01*
X74834634Y-103779906D01*
X74832005Y-103857649D01*
X74829579Y-103955574D01*
X74827885Y-104047192D01*
X74822539Y-104384231D01*
X74705308Y-104384231D01*
X74699928Y-104076746D01*
X74694549Y-103769261D01*
X74637399Y-103739707D01*
X74595203Y-103719413D01*
X74570230Y-103710204D01*
X74569509Y-103710154D01*
X74566071Y-103728662D01*
G37*
X74566071Y-103728662D02*
X74563089Y-103780068D01*
X74560753Y-103858192D01*
X74559251Y-103956857D01*
X74558769Y-104060343D01*
X74558769Y-104410533D01*
X74620599Y-104472363D01*
X74663207Y-104510462D01*
X74700610Y-104525895D01*
X74751730Y-104524918D01*
X74772022Y-104522433D01*
X74835446Y-104515200D01*
X74887905Y-104511055D01*
X74900692Y-104510672D01*
X74943801Y-104513176D01*
X75005456Y-104519462D01*
X75029362Y-104522433D01*
X75088078Y-104527028D01*
X75127536Y-104517046D01*
X75166662Y-104486228D01*
X75180785Y-104472363D01*
X75242615Y-104410533D01*
X75242615Y-103755503D01*
X75192850Y-103732829D01*
X75149998Y-103716034D01*
X75124927Y-103710154D01*
X75118499Y-103728736D01*
X75112491Y-103780655D01*
X75107303Y-103860172D01*
X75103336Y-103961546D01*
X75101423Y-104047192D01*
X75096077Y-104384231D01*
X75049440Y-104390825D01*
X75007024Y-104386214D01*
X74986240Y-104371287D01*
X74980430Y-104343377D01*
X74975470Y-104283925D01*
X74971754Y-104200466D01*
X74969676Y-104100532D01*
X74969376Y-104049104D01*
X74969077Y-103753054D01*
X74907546Y-103731604D01*
X74863996Y-103717020D01*
X74840306Y-103710219D01*
X74839623Y-103710154D01*
X74837246Y-103728642D01*
X74834634Y-103779906D01*
X74832005Y-103857649D01*
X74829579Y-103955574D01*
X74827885Y-104047192D01*
X74822539Y-104384231D01*
X74705308Y-104384231D01*
X74699928Y-104076746D01*
X74694549Y-103769261D01*
X74637399Y-103739707D01*
X74595203Y-103719413D01*
X74570230Y-103710204D01*
X74569509Y-103710154D01*
X74566071Y-103728662D01*
G36*
X74074667Y-103725528D02*
G01*
X74018410Y-103751117D01*
X73974253Y-103782124D01*
X73941899Y-103816795D01*
X73919562Y-103861520D01*
X73905454Y-103922692D01*
X73897789Y-104006701D01*
X73894780Y-104119940D01*
X73894462Y-104194509D01*
X73894462Y-104485420D01*
X73944227Y-104508095D01*
X73983424Y-104524667D01*
X74002843Y-104530769D01*
X74006558Y-104512610D01*
X74009505Y-104463648D01*
X74011309Y-104392153D01*
X74011692Y-104335385D01*
X74013339Y-104253371D01*
X74017778Y-104188309D01*
X74024260Y-104148467D01*
X74029410Y-104140000D01*
X74064023Y-104148646D01*
X74118360Y-104170823D01*
X74181278Y-104200886D01*
X74241632Y-104233192D01*
X74288279Y-104262098D01*
X74310074Y-104281961D01*
X74310161Y-104282175D01*
X74308286Y-104318935D01*
X74291475Y-104354026D01*
X74261961Y-104382528D01*
X74218884Y-104392061D01*
X74182068Y-104390950D01*
X74129926Y-104390133D01*
X74102556Y-104402349D01*
X74086118Y-104434624D01*
X74084045Y-104440710D01*
X74076919Y-104486739D01*
X74095976Y-104514687D01*
X74145647Y-104528007D01*
X74199303Y-104530470D01*
X74295858Y-104512210D01*
X74345841Y-104486131D01*
X74407571Y-104424868D01*
X74440310Y-104349670D01*
X74443247Y-104270211D01*
X74415576Y-104196167D01*
X74373953Y-104149769D01*
X74332396Y-104123793D01*
X74267078Y-104090907D01*
X74190962Y-104057557D01*
X74178274Y-104052461D01*
X74094667Y-104015565D01*
X74046470Y-103983046D01*
X74030970Y-103950718D01*
X74045450Y-103914394D01*
X74070308Y-103886000D01*
X74129061Y-103851039D01*
X74193707Y-103848417D01*
X74252992Y-103875358D01*
X74295661Y-103929088D01*
X74301261Y-103942950D01*
X74333867Y-103993936D01*
X74381470Y-104031787D01*
X74441539Y-104062850D01*
X74441539Y-103974768D01*
X74438003Y-103920951D01*
X74422844Y-103878534D01*
X74389232Y-103833279D01*
X74356965Y-103798420D01*
X74306791Y-103749062D01*
X74267807Y-103722547D01*
X74225936Y-103711911D01*
X74178540Y-103710154D01*
X74074667Y-103725528D01*
G37*
X74074667Y-103725528D02*
X74018410Y-103751117D01*
X73974253Y-103782124D01*
X73941899Y-103816795D01*
X73919562Y-103861520D01*
X73905454Y-103922692D01*
X73897789Y-104006701D01*
X73894780Y-104119940D01*
X73894462Y-104194509D01*
X73894462Y-104485420D01*
X73944227Y-104508095D01*
X73983424Y-104524667D01*
X74002843Y-104530769D01*
X74006558Y-104512610D01*
X74009505Y-104463648D01*
X74011309Y-104392153D01*
X74011692Y-104335385D01*
X74013339Y-104253371D01*
X74017778Y-104188309D01*
X74024260Y-104148467D01*
X74029410Y-104140000D01*
X74064023Y-104148646D01*
X74118360Y-104170823D01*
X74181278Y-104200886D01*
X74241632Y-104233192D01*
X74288279Y-104262098D01*
X74310074Y-104281961D01*
X74310161Y-104282175D01*
X74308286Y-104318935D01*
X74291475Y-104354026D01*
X74261961Y-104382528D01*
X74218884Y-104392061D01*
X74182068Y-104390950D01*
X74129926Y-104390133D01*
X74102556Y-104402349D01*
X74086118Y-104434624D01*
X74084045Y-104440710D01*
X74076919Y-104486739D01*
X74095976Y-104514687D01*
X74145647Y-104528007D01*
X74199303Y-104530470D01*
X74295858Y-104512210D01*
X74345841Y-104486131D01*
X74407571Y-104424868D01*
X74440310Y-104349670D01*
X74443247Y-104270211D01*
X74415576Y-104196167D01*
X74373953Y-104149769D01*
X74332396Y-104123793D01*
X74267078Y-104090907D01*
X74190962Y-104057557D01*
X74178274Y-104052461D01*
X74094667Y-104015565D01*
X74046470Y-103983046D01*
X74030970Y-103950718D01*
X74045450Y-103914394D01*
X74070308Y-103886000D01*
X74129061Y-103851039D01*
X74193707Y-103848417D01*
X74252992Y-103875358D01*
X74295661Y-103929088D01*
X74301261Y-103942950D01*
X74333867Y-103993936D01*
X74381470Y-104031787D01*
X74441539Y-104062850D01*
X74441539Y-103974768D01*
X74438003Y-103920951D01*
X74422844Y-103878534D01*
X74389232Y-103833279D01*
X74356965Y-103798420D01*
X74306791Y-103749062D01*
X74267807Y-103722547D01*
X74225936Y-103711911D01*
X74178540Y-103710154D01*
X74074667Y-103725528D01*
G36*
X73391193Y-103728782D02*
G01*
X73367839Y-103738988D01*
X73312098Y-103783134D01*
X73264431Y-103846967D01*
X73234952Y-103915087D01*
X73230154Y-103948670D01*
X73246240Y-103995556D01*
X73281525Y-104020365D01*
X73319356Y-104035387D01*
X73336679Y-104038155D01*
X73345114Y-104018066D01*
X73361770Y-103974351D01*
X73369077Y-103954598D01*
X73410052Y-103886271D01*
X73469378Y-103852191D01*
X73545448Y-103853239D01*
X73551082Y-103854581D01*
X73591695Y-103873836D01*
X73621552Y-103911375D01*
X73641945Y-103971809D01*
X73654164Y-104059751D01*
X73659500Y-104179813D01*
X73660000Y-104243698D01*
X73660248Y-104344403D01*
X73661874Y-104413054D01*
X73666199Y-104456673D01*
X73674546Y-104482282D01*
X73688235Y-104496903D01*
X73708589Y-104507558D01*
X73709766Y-104508095D01*
X73748962Y-104524667D01*
X73768381Y-104530769D01*
X73771365Y-104512319D01*
X73773919Y-104461323D01*
X73775860Y-104384308D01*
X73777003Y-104287805D01*
X73777231Y-104217184D01*
X73776068Y-104080525D01*
X73771521Y-103976851D01*
X73762001Y-103900108D01*
X73745919Y-103844246D01*
X73721687Y-103803212D01*
X73687714Y-103770954D01*
X73654167Y-103748440D01*
X73573501Y-103718476D01*
X73479619Y-103711718D01*
X73391193Y-103728782D01*
G37*
X73391193Y-103728782D02*
X73367839Y-103738988D01*
X73312098Y-103783134D01*
X73264431Y-103846967D01*
X73234952Y-103915087D01*
X73230154Y-103948670D01*
X73246240Y-103995556D01*
X73281525Y-104020365D01*
X73319356Y-104035387D01*
X73336679Y-104038155D01*
X73345114Y-104018066D01*
X73361770Y-103974351D01*
X73369077Y-103954598D01*
X73410052Y-103886271D01*
X73469378Y-103852191D01*
X73545448Y-103853239D01*
X73551082Y-103854581D01*
X73591695Y-103873836D01*
X73621552Y-103911375D01*
X73641945Y-103971809D01*
X73654164Y-104059751D01*
X73659500Y-104179813D01*
X73660000Y-104243698D01*
X73660248Y-104344403D01*
X73661874Y-104413054D01*
X73666199Y-104456673D01*
X73674546Y-104482282D01*
X73688235Y-104496903D01*
X73708589Y-104507558D01*
X73709766Y-104508095D01*
X73748962Y-104524667D01*
X73768381Y-104530769D01*
X73771365Y-104512319D01*
X73773919Y-104461323D01*
X73775860Y-104384308D01*
X73777003Y-104287805D01*
X73777231Y-104217184D01*
X73776068Y-104080525D01*
X73771521Y-103976851D01*
X73762001Y-103900108D01*
X73745919Y-103844246D01*
X73721687Y-103803212D01*
X73687714Y-103770954D01*
X73654167Y-103748440D01*
X73573501Y-103718476D01*
X73479619Y-103711718D01*
X73391193Y-103728782D01*
G36*
X72716776Y-103739838D02*
G01*
X72639472Y-103790361D01*
X72602186Y-103835590D01*
X72572647Y-103917663D01*
X72570301Y-103982607D01*
X72575615Y-104069445D01*
X72775885Y-104157103D01*
X72873261Y-104201887D01*
X72936887Y-104237913D01*
X72969971Y-104269117D01*
X72975720Y-104299436D01*
X72957342Y-104332805D01*
X72937077Y-104354923D01*
X72878111Y-104390393D01*
X72813976Y-104392879D01*
X72755074Y-104365235D01*
X72711803Y-104310320D01*
X72704064Y-104290928D01*
X72666994Y-104230364D01*
X72624346Y-104204552D01*
X72565846Y-104182471D01*
X72565846Y-104266184D01*
X72571018Y-104323150D01*
X72591277Y-104371189D01*
X72633738Y-104426346D01*
X72640049Y-104433514D01*
X72687280Y-104482585D01*
X72727879Y-104508920D01*
X72778672Y-104521035D01*
X72820780Y-104525003D01*
X72896098Y-104525991D01*
X72949714Y-104513466D01*
X72983162Y-104494869D01*
X73035732Y-104453975D01*
X73072121Y-104409748D01*
X73095150Y-104354126D01*
X73107641Y-104279047D01*
X73112413Y-104176449D01*
X73112794Y-104124376D01*
X73111499Y-104061948D01*
X72993529Y-104061948D01*
X72992161Y-104095438D01*
X72988751Y-104100923D01*
X72966247Y-104093472D01*
X72917818Y-104073753D01*
X72853092Y-104045718D01*
X72839557Y-104039692D01*
X72757756Y-103998096D01*
X72712688Y-103961538D01*
X72702783Y-103927296D01*
X72726474Y-103892648D01*
X72746040Y-103877339D01*
X72816640Y-103846721D01*
X72882720Y-103851780D01*
X72938041Y-103889151D01*
X72976364Y-103955473D01*
X72988651Y-104008116D01*
X72993529Y-104061948D01*
X73111499Y-104061948D01*
X73110270Y-104002720D01*
X73100968Y-103912710D01*
X73082540Y-103847167D01*
X73052640Y-103798912D01*
X73008920Y-103760767D01*
X72989859Y-103748440D01*
X72903274Y-103716336D01*
X72808478Y-103714316D01*
X72716776Y-103739838D01*
G37*
X72716776Y-103739838D02*
X72639472Y-103790361D01*
X72602186Y-103835590D01*
X72572647Y-103917663D01*
X72570301Y-103982607D01*
X72575615Y-104069445D01*
X72775885Y-104157103D01*
X72873261Y-104201887D01*
X72936887Y-104237913D01*
X72969971Y-104269117D01*
X72975720Y-104299436D01*
X72957342Y-104332805D01*
X72937077Y-104354923D01*
X72878111Y-104390393D01*
X72813976Y-104392879D01*
X72755074Y-104365235D01*
X72711803Y-104310320D01*
X72704064Y-104290928D01*
X72666994Y-104230364D01*
X72624346Y-104204552D01*
X72565846Y-104182471D01*
X72565846Y-104266184D01*
X72571018Y-104323150D01*
X72591277Y-104371189D01*
X72633738Y-104426346D01*
X72640049Y-104433514D01*
X72687280Y-104482585D01*
X72727879Y-104508920D01*
X72778672Y-104521035D01*
X72820780Y-104525003D01*
X72896098Y-104525991D01*
X72949714Y-104513466D01*
X72983162Y-104494869D01*
X73035732Y-104453975D01*
X73072121Y-104409748D01*
X73095150Y-104354126D01*
X73107641Y-104279047D01*
X73112413Y-104176449D01*
X73112794Y-104124376D01*
X73111499Y-104061948D01*
X72993529Y-104061948D01*
X72992161Y-104095438D01*
X72988751Y-104100923D01*
X72966247Y-104093472D01*
X72917818Y-104073753D01*
X72853092Y-104045718D01*
X72839557Y-104039692D01*
X72757756Y-103998096D01*
X72712688Y-103961538D01*
X72702783Y-103927296D01*
X72726474Y-103892648D01*
X72746040Y-103877339D01*
X72816640Y-103846721D01*
X72882720Y-103851780D01*
X72938041Y-103889151D01*
X72976364Y-103955473D01*
X72988651Y-104008116D01*
X72993529Y-104061948D01*
X73111499Y-104061948D01*
X73110270Y-104002720D01*
X73100968Y-103912710D01*
X73082540Y-103847167D01*
X73052640Y-103798912D01*
X73008920Y-103760767D01*
X72989859Y-103748440D01*
X72903274Y-103716336D01*
X72808478Y-103714316D01*
X72716776Y-103739838D01*
G36*
X76822122Y-97379776D02*
G01*
X76716388Y-97380355D01*
X76639868Y-97381922D01*
X76587628Y-97384972D01*
X76554737Y-97389996D01*
X76536263Y-97397489D01*
X76527273Y-97407944D01*
X76522837Y-97421853D01*
X76522406Y-97423654D01*
X76515667Y-97456145D01*
X76503192Y-97520252D01*
X76486281Y-97609151D01*
X76466229Y-97716019D01*
X76444336Y-97834033D01*
X76443571Y-97838178D01*
X76421641Y-97953831D01*
X76401123Y-98056014D01*
X76383341Y-98138598D01*
X76369619Y-98195456D01*
X76361282Y-98220458D01*
X76360884Y-98220901D01*
X76336323Y-98233110D01*
X76285685Y-98253456D01*
X76219905Y-98277545D01*
X76219539Y-98277674D01*
X76136683Y-98308818D01*
X76039000Y-98348491D01*
X75946923Y-98388381D01*
X75942566Y-98390353D01*
X75792593Y-98458420D01*
X75460502Y-98231639D01*
X75358626Y-98162504D01*
X75266343Y-98100697D01*
X75188997Y-98049733D01*
X75131936Y-98013127D01*
X75100505Y-97994394D01*
X75097521Y-97993004D01*
X75074679Y-97999190D01*
X75032018Y-98029035D01*
X74967872Y-98083947D01*
X74880579Y-98165334D01*
X74791465Y-98251922D01*
X74705559Y-98337247D01*
X74628673Y-98415108D01*
X74565436Y-98480697D01*
X74520477Y-98529205D01*
X74498424Y-98555825D01*
X74497604Y-98557195D01*
X74495166Y-98575463D01*
X74504350Y-98605295D01*
X74527426Y-98650721D01*
X74566663Y-98715770D01*
X74624330Y-98804470D01*
X74701205Y-98918657D01*
X74769430Y-99019162D01*
X74830418Y-99109303D01*
X74880644Y-99183849D01*
X74916584Y-99237565D01*
X74934713Y-99265218D01*
X74935854Y-99267095D01*
X74933641Y-99293590D01*
X74916862Y-99345086D01*
X74888858Y-99411851D01*
X74878878Y-99433172D01*
X74835328Y-99528159D01*
X74788866Y-99635937D01*
X74751123Y-99729192D01*
X74723927Y-99798406D01*
X74702325Y-99851006D01*
X74689842Y-99878497D01*
X74688291Y-99880616D01*
X74665332Y-99884124D01*
X74611214Y-99893738D01*
X74533132Y-99908089D01*
X74438281Y-99925807D01*
X74333857Y-99945525D01*
X74227056Y-99965874D01*
X74125074Y-99985486D01*
X74035106Y-100002991D01*
X73964347Y-100017022D01*
X73919994Y-100026209D01*
X73909115Y-100028807D01*
X73897878Y-100035218D01*
X73889395Y-100049697D01*
X73883286Y-100077133D01*
X73879168Y-100122411D01*
X73876659Y-100190420D01*
X73875379Y-100286047D01*
X73874946Y-100414180D01*
X73874923Y-100466701D01*
X73874923Y-100893845D01*
X73977500Y-100914091D01*
X74034569Y-100925070D01*
X74119731Y-100941095D01*
X74222628Y-100960233D01*
X74332904Y-100980551D01*
X74363385Y-100986132D01*
X74465145Y-101005917D01*
X74553795Y-101025373D01*
X74621892Y-101042697D01*
X74661996Y-101056088D01*
X74668677Y-101060079D01*
X74685081Y-101088342D01*
X74708601Y-101143109D01*
X74734684Y-101213588D01*
X74739858Y-101228769D01*
X74774044Y-101322896D01*
X74816477Y-101429101D01*
X74858003Y-101524473D01*
X74858208Y-101524916D01*
X74927360Y-101674525D01*
X74472488Y-102343617D01*
X74764500Y-102636116D01*
X74852820Y-102723170D01*
X74933375Y-102799909D01*
X75001640Y-102862237D01*
X75053092Y-102906056D01*
X75083206Y-102927270D01*
X75087526Y-102928616D01*
X75112889Y-102918016D01*
X75164642Y-102888547D01*
X75237132Y-102843705D01*
X75324706Y-102786984D01*
X75419388Y-102723462D01*
X75515484Y-102658668D01*
X75601163Y-102602287D01*
X75670984Y-102557788D01*
X75719506Y-102528639D01*
X75741218Y-102518308D01*
X75767707Y-102527050D01*
X75817938Y-102550087D01*
X75881549Y-102582631D01*
X75888292Y-102586249D01*
X75973954Y-102629210D01*
X76032694Y-102650279D01*
X76069228Y-102650503D01*
X76088269Y-102630928D01*
X76088380Y-102630654D01*
X76097898Y-102607472D01*
X76120597Y-102552441D01*
X76154718Y-102469822D01*
X76198500Y-102363872D01*
X76250184Y-102238852D01*
X76308008Y-102099020D01*
X76364009Y-101963637D01*
X76425553Y-101814234D01*
X76482061Y-101675832D01*
X76531839Y-101552673D01*
X76573194Y-101449002D01*
X76604432Y-101369059D01*
X76623859Y-101317088D01*
X76629846Y-101297692D01*
X76614832Y-101275443D01*
X76575561Y-101239982D01*
X76523193Y-101200887D01*
X76374059Y-101077245D01*
X76257489Y-100935522D01*
X76174882Y-100778704D01*
X76127634Y-100609775D01*
X76117143Y-100431722D01*
X76124769Y-100349539D01*
X76166318Y-100179031D01*
X76237877Y-100028459D01*
X76335005Y-99899309D01*
X76453266Y-99793064D01*
X76588220Y-99711210D01*
X76735429Y-99655232D01*
X76890456Y-99626615D01*
X77048861Y-99626844D01*
X77206206Y-99657405D01*
X77358054Y-99719782D01*
X77499965Y-99815460D01*
X77559197Y-99869572D01*
X77672797Y-100008520D01*
X77751894Y-100160361D01*
X77797014Y-100320667D01*
X77808684Y-100485012D01*
X77787431Y-100648971D01*
X77733780Y-100808118D01*
X77648260Y-100958025D01*
X77531395Y-101094267D01*
X77400807Y-101200887D01*
X77346412Y-101241642D01*
X77307986Y-101276718D01*
X77294154Y-101297726D01*
X77301397Y-101320635D01*
X77321995Y-101375365D01*
X77354254Y-101457672D01*
X77396479Y-101563315D01*
X77446977Y-101688050D01*
X77504052Y-101827636D01*
X77560146Y-101963670D01*
X77622033Y-102113201D01*
X77679356Y-102251767D01*
X77730356Y-102375107D01*
X77773273Y-102478964D01*
X77806347Y-102559080D01*
X77827819Y-102611195D01*
X77835775Y-102630654D01*
X77854571Y-102650423D01*
X77890926Y-102650365D01*
X77949521Y-102629441D01*
X78035032Y-102586613D01*
X78035708Y-102586249D01*
X78100093Y-102553012D01*
X78152139Y-102528802D01*
X78181488Y-102518404D01*
X78182783Y-102518308D01*
X78204876Y-102528855D01*
X78253652Y-102558184D01*
X78323669Y-102602827D01*
X78409486Y-102659314D01*
X78504612Y-102723462D01*
X78601460Y-102788411D01*
X78688747Y-102844896D01*
X78760819Y-102889421D01*
X78812023Y-102918490D01*
X78836474Y-102928616D01*
X78858990Y-102915307D01*
X78904258Y-102878112D01*
X78967756Y-102821128D01*
X79044961Y-102748449D01*
X79131349Y-102664171D01*
X79159601Y-102636016D01*
X79451713Y-102343416D01*
X79229369Y-102017104D01*
X79161798Y-101916897D01*
X79102493Y-101826963D01*
X79054783Y-101752510D01*
X79021993Y-101698751D01*
X79007452Y-101670894D01*
X79007026Y-101668912D01*
X79014692Y-101642655D01*
X79035311Y-101589837D01*
X79065315Y-101519310D01*
X79086375Y-101472093D01*
X79125752Y-101381694D01*
X79162835Y-101290366D01*
X79191585Y-101213200D01*
X79199395Y-101189692D01*
X79221583Y-101126916D01*
X79243273Y-101078411D01*
X79255187Y-101060079D01*
X79281477Y-101048859D01*
X79338858Y-101032954D01*
X79419882Y-101014167D01*
X79517105Y-100994299D01*
X79560615Y-100986132D01*
X79671104Y-100965829D01*
X79777084Y-100946170D01*
X79868199Y-100929088D01*
X79934092Y-100916518D01*
X79946500Y-100914091D01*
X80049077Y-100893845D01*
X80049077Y-100466701D01*
X80048847Y-100326246D01*
X80047901Y-100219979D01*
X80045859Y-100143013D01*
X80042338Y-100090460D01*
X80036957Y-100057433D01*
X80029334Y-100039045D01*
X80019088Y-100030408D01*
X80014885Y-100028807D01*
X79989530Y-100023127D01*
X79933516Y-100011795D01*
X79854036Y-99996179D01*
X79758288Y-99977647D01*
X79653467Y-99957569D01*
X79546768Y-99937312D01*
X79445387Y-99918246D01*
X79356521Y-99901739D01*
X79287363Y-99889159D01*
X79245111Y-99881875D01*
X79235710Y-99880616D01*
X79227193Y-99863763D01*
X79208340Y-99818870D01*
X79182676Y-99754430D01*
X79172877Y-99729192D01*
X79133352Y-99631686D01*
X79086808Y-99523959D01*
X79045123Y-99433172D01*
X79014450Y-99363753D01*
X78994044Y-99306710D01*
X78987232Y-99271777D01*
X78988318Y-99267095D01*
X79002715Y-99244991D01*
X79035588Y-99195831D01*
X79083410Y-99124848D01*
X79142652Y-99037278D01*
X79209785Y-98938357D01*
X79223059Y-98918830D01*
X79300954Y-98803140D01*
X79358213Y-98715044D01*
X79397119Y-98650486D01*
X79419956Y-98605411D01*
X79429006Y-98575763D01*
X79426552Y-98557485D01*
X79426489Y-98557369D01*
X79407173Y-98533361D01*
X79364449Y-98486947D01*
X79302949Y-98422937D01*
X79227302Y-98346145D01*
X79142139Y-98261382D01*
X79132535Y-98251922D01*
X79025210Y-98147989D01*
X78942385Y-98071675D01*
X78882395Y-98021571D01*
X78843577Y-97996270D01*
X78826480Y-97993004D01*
X78801527Y-98007250D01*
X78749745Y-98040156D01*
X78676480Y-98088208D01*
X78587080Y-98147890D01*
X78486889Y-98215688D01*
X78463499Y-98231639D01*
X78131407Y-98458420D01*
X77981435Y-98390353D01*
X77890230Y-98350685D01*
X77792331Y-98310791D01*
X77708169Y-98278983D01*
X77704462Y-98277674D01*
X77638631Y-98253576D01*
X77587884Y-98233200D01*
X77563158Y-98220936D01*
X77563116Y-98220901D01*
X77555271Y-98198734D01*
X77541934Y-98144217D01*
X77524430Y-98063480D01*
X77504083Y-97962650D01*
X77482218Y-97847856D01*
X77480429Y-97838178D01*
X77458496Y-97719904D01*
X77438360Y-97612542D01*
X77421320Y-97522917D01*
X77408672Y-97457851D01*
X77401716Y-97424168D01*
X77401594Y-97423654D01*
X77397361Y-97409325D01*
X77389129Y-97398507D01*
X77371967Y-97390706D01*
X77340942Y-97385429D01*
X77291122Y-97382182D01*
X77217576Y-97380472D01*
X77115371Y-97379807D01*
X76979575Y-97379693D01*
X76962000Y-97379692D01*
X76822122Y-97379776D01*
G37*
X76822122Y-97379776D02*
X76716388Y-97380355D01*
X76639868Y-97381922D01*
X76587628Y-97384972D01*
X76554737Y-97389996D01*
X76536263Y-97397489D01*
X76527273Y-97407944D01*
X76522837Y-97421853D01*
X76522406Y-97423654D01*
X76515667Y-97456145D01*
X76503192Y-97520252D01*
X76486281Y-97609151D01*
X76466229Y-97716019D01*
X76444336Y-97834033D01*
X76443571Y-97838178D01*
X76421641Y-97953831D01*
X76401123Y-98056014D01*
X76383341Y-98138598D01*
X76369619Y-98195456D01*
X76361282Y-98220458D01*
X76360884Y-98220901D01*
X76336323Y-98233110D01*
X76285685Y-98253456D01*
X76219905Y-98277545D01*
X76219539Y-98277674D01*
X76136683Y-98308818D01*
X76039000Y-98348491D01*
X75946923Y-98388381D01*
X75942566Y-98390353D01*
X75792593Y-98458420D01*
X75460502Y-98231639D01*
X75358626Y-98162504D01*
X75266343Y-98100697D01*
X75188997Y-98049733D01*
X75131936Y-98013127D01*
X75100505Y-97994394D01*
X75097521Y-97993004D01*
X75074679Y-97999190D01*
X75032018Y-98029035D01*
X74967872Y-98083947D01*
X74880579Y-98165334D01*
X74791465Y-98251922D01*
X74705559Y-98337247D01*
X74628673Y-98415108D01*
X74565436Y-98480697D01*
X74520477Y-98529205D01*
X74498424Y-98555825D01*
X74497604Y-98557195D01*
X74495166Y-98575463D01*
X74504350Y-98605295D01*
X74527426Y-98650721D01*
X74566663Y-98715770D01*
X74624330Y-98804470D01*
X74701205Y-98918657D01*
X74769430Y-99019162D01*
X74830418Y-99109303D01*
X74880644Y-99183849D01*
X74916584Y-99237565D01*
X74934713Y-99265218D01*
X74935854Y-99267095D01*
X74933641Y-99293590D01*
X74916862Y-99345086D01*
X74888858Y-99411851D01*
X74878878Y-99433172D01*
X74835328Y-99528159D01*
X74788866Y-99635937D01*
X74751123Y-99729192D01*
X74723927Y-99798406D01*
X74702325Y-99851006D01*
X74689842Y-99878497D01*
X74688291Y-99880616D01*
X74665332Y-99884124D01*
X74611214Y-99893738D01*
X74533132Y-99908089D01*
X74438281Y-99925807D01*
X74333857Y-99945525D01*
X74227056Y-99965874D01*
X74125074Y-99985486D01*
X74035106Y-100002991D01*
X73964347Y-100017022D01*
X73919994Y-100026209D01*
X73909115Y-100028807D01*
X73897878Y-100035218D01*
X73889395Y-100049697D01*
X73883286Y-100077133D01*
X73879168Y-100122411D01*
X73876659Y-100190420D01*
X73875379Y-100286047D01*
X73874946Y-100414180D01*
X73874923Y-100466701D01*
X73874923Y-100893845D01*
X73977500Y-100914091D01*
X74034569Y-100925070D01*
X74119731Y-100941095D01*
X74222628Y-100960233D01*
X74332904Y-100980551D01*
X74363385Y-100986132D01*
X74465145Y-101005917D01*
X74553795Y-101025373D01*
X74621892Y-101042697D01*
X74661996Y-101056088D01*
X74668677Y-101060079D01*
X74685081Y-101088342D01*
X74708601Y-101143109D01*
X74734684Y-101213588D01*
X74739858Y-101228769D01*
X74774044Y-101322896D01*
X74816477Y-101429101D01*
X74858003Y-101524473D01*
X74858208Y-101524916D01*
X74927360Y-101674525D01*
X74472488Y-102343617D01*
X74764500Y-102636116D01*
X74852820Y-102723170D01*
X74933375Y-102799909D01*
X75001640Y-102862237D01*
X75053092Y-102906056D01*
X75083206Y-102927270D01*
X75087526Y-102928616D01*
X75112889Y-102918016D01*
X75164642Y-102888547D01*
X75237132Y-102843705D01*
X75324706Y-102786984D01*
X75419388Y-102723462D01*
X75515484Y-102658668D01*
X75601163Y-102602287D01*
X75670984Y-102557788D01*
X75719506Y-102528639D01*
X75741218Y-102518308D01*
X75767707Y-102527050D01*
X75817938Y-102550087D01*
X75881549Y-102582631D01*
X75888292Y-102586249D01*
X75973954Y-102629210D01*
X76032694Y-102650279D01*
X76069228Y-102650503D01*
X76088269Y-102630928D01*
X76088380Y-102630654D01*
X76097898Y-102607472D01*
X76120597Y-102552441D01*
X76154718Y-102469822D01*
X76198500Y-102363872D01*
X76250184Y-102238852D01*
X76308008Y-102099020D01*
X76364009Y-101963637D01*
X76425553Y-101814234D01*
X76482061Y-101675832D01*
X76531839Y-101552673D01*
X76573194Y-101449002D01*
X76604432Y-101369059D01*
X76623859Y-101317088D01*
X76629846Y-101297692D01*
X76614832Y-101275443D01*
X76575561Y-101239982D01*
X76523193Y-101200887D01*
X76374059Y-101077245D01*
X76257489Y-100935522D01*
X76174882Y-100778704D01*
X76127634Y-100609775D01*
X76117143Y-100431722D01*
X76124769Y-100349539D01*
X76166318Y-100179031D01*
X76237877Y-100028459D01*
X76335005Y-99899309D01*
X76453266Y-99793064D01*
X76588220Y-99711210D01*
X76735429Y-99655232D01*
X76890456Y-99626615D01*
X77048861Y-99626844D01*
X77206206Y-99657405D01*
X77358054Y-99719782D01*
X77499965Y-99815460D01*
X77559197Y-99869572D01*
X77672797Y-100008520D01*
X77751894Y-100160361D01*
X77797014Y-100320667D01*
X77808684Y-100485012D01*
X77787431Y-100648971D01*
X77733780Y-100808118D01*
X77648260Y-100958025D01*
X77531395Y-101094267D01*
X77400807Y-101200887D01*
X77346412Y-101241642D01*
X77307986Y-101276718D01*
X77294154Y-101297726D01*
X77301397Y-101320635D01*
X77321995Y-101375365D01*
X77354254Y-101457672D01*
X77396479Y-101563315D01*
X77446977Y-101688050D01*
X77504052Y-101827636D01*
X77560146Y-101963670D01*
X77622033Y-102113201D01*
X77679356Y-102251767D01*
X77730356Y-102375107D01*
X77773273Y-102478964D01*
X77806347Y-102559080D01*
X77827819Y-102611195D01*
X77835775Y-102630654D01*
X77854571Y-102650423D01*
X77890926Y-102650365D01*
X77949521Y-102629441D01*
X78035032Y-102586613D01*
X78035708Y-102586249D01*
X78100093Y-102553012D01*
X78152139Y-102528802D01*
X78181488Y-102518404D01*
X78182783Y-102518308D01*
X78204876Y-102528855D01*
X78253652Y-102558184D01*
X78323669Y-102602827D01*
X78409486Y-102659314D01*
X78504612Y-102723462D01*
X78601460Y-102788411D01*
X78688747Y-102844896D01*
X78760819Y-102889421D01*
X78812023Y-102918490D01*
X78836474Y-102928616D01*
X78858990Y-102915307D01*
X78904258Y-102878112D01*
X78967756Y-102821128D01*
X79044961Y-102748449D01*
X79131349Y-102664171D01*
X79159601Y-102636016D01*
X79451713Y-102343416D01*
X79229369Y-102017104D01*
X79161798Y-101916897D01*
X79102493Y-101826963D01*
X79054783Y-101752510D01*
X79021993Y-101698751D01*
X79007452Y-101670894D01*
X79007026Y-101668912D01*
X79014692Y-101642655D01*
X79035311Y-101589837D01*
X79065315Y-101519310D01*
X79086375Y-101472093D01*
X79125752Y-101381694D01*
X79162835Y-101290366D01*
X79191585Y-101213200D01*
X79199395Y-101189692D01*
X79221583Y-101126916D01*
X79243273Y-101078411D01*
X79255187Y-101060079D01*
X79281477Y-101048859D01*
X79338858Y-101032954D01*
X79419882Y-101014167D01*
X79517105Y-100994299D01*
X79560615Y-100986132D01*
X79671104Y-100965829D01*
X79777084Y-100946170D01*
X79868199Y-100929088D01*
X79934092Y-100916518D01*
X79946500Y-100914091D01*
X80049077Y-100893845D01*
X80049077Y-100466701D01*
X80048847Y-100326246D01*
X80047901Y-100219979D01*
X80045859Y-100143013D01*
X80042338Y-100090460D01*
X80036957Y-100057433D01*
X80029334Y-100039045D01*
X80019088Y-100030408D01*
X80014885Y-100028807D01*
X79989530Y-100023127D01*
X79933516Y-100011795D01*
X79854036Y-99996179D01*
X79758288Y-99977647D01*
X79653467Y-99957569D01*
X79546768Y-99937312D01*
X79445387Y-99918246D01*
X79356521Y-99901739D01*
X79287363Y-99889159D01*
X79245111Y-99881875D01*
X79235710Y-99880616D01*
X79227193Y-99863763D01*
X79208340Y-99818870D01*
X79182676Y-99754430D01*
X79172877Y-99729192D01*
X79133352Y-99631686D01*
X79086808Y-99523959D01*
X79045123Y-99433172D01*
X79014450Y-99363753D01*
X78994044Y-99306710D01*
X78987232Y-99271777D01*
X78988318Y-99267095D01*
X79002715Y-99244991D01*
X79035588Y-99195831D01*
X79083410Y-99124848D01*
X79142652Y-99037278D01*
X79209785Y-98938357D01*
X79223059Y-98918830D01*
X79300954Y-98803140D01*
X79358213Y-98715044D01*
X79397119Y-98650486D01*
X79419956Y-98605411D01*
X79429006Y-98575763D01*
X79426552Y-98557485D01*
X79426489Y-98557369D01*
X79407173Y-98533361D01*
X79364449Y-98486947D01*
X79302949Y-98422937D01*
X79227302Y-98346145D01*
X79142139Y-98261382D01*
X79132535Y-98251922D01*
X79025210Y-98147989D01*
X78942385Y-98071675D01*
X78882395Y-98021571D01*
X78843577Y-97996270D01*
X78826480Y-97993004D01*
X78801527Y-98007250D01*
X78749745Y-98040156D01*
X78676480Y-98088208D01*
X78587080Y-98147890D01*
X78486889Y-98215688D01*
X78463499Y-98231639D01*
X78131407Y-98458420D01*
X77981435Y-98390353D01*
X77890230Y-98350685D01*
X77792331Y-98310791D01*
X77708169Y-98278983D01*
X77704462Y-98277674D01*
X77638631Y-98253576D01*
X77587884Y-98233200D01*
X77563158Y-98220936D01*
X77563116Y-98220901D01*
X77555271Y-98198734D01*
X77541934Y-98144217D01*
X77524430Y-98063480D01*
X77504083Y-97962650D01*
X77482218Y-97847856D01*
X77480429Y-97838178D01*
X77458496Y-97719904D01*
X77438360Y-97612542D01*
X77421320Y-97522917D01*
X77408672Y-97457851D01*
X77401716Y-97424168D01*
X77401594Y-97423654D01*
X77397361Y-97409325D01*
X77389129Y-97398507D01*
X77371967Y-97390706D01*
X77340942Y-97385429D01*
X77291122Y-97382182D01*
X77217576Y-97380472D01*
X77115371Y-97379807D01*
X76979575Y-97379693D01*
X76962000Y-97379692D01*
X76822122Y-97379776D01*
G36*
X90156311Y-110349743D02*
G01*
X90156275Y-110085220D01*
X90156270Y-109962088D01*
X90156270Y-107991189D01*
X90040090Y-107991189D01*
X89898709Y-107978789D01*
X89768316Y-107941364D01*
X89648138Y-107878577D01*
X89537398Y-107790094D01*
X89507489Y-107760157D01*
X89422652Y-107652466D01*
X89360779Y-107533725D01*
X89321841Y-107407460D01*
X89305810Y-107277197D01*
X89312658Y-107146465D01*
X89342357Y-107018788D01*
X89394880Y-106897695D01*
X89470197Y-106786712D01*
X89515637Y-106736868D01*
X89627048Y-106643983D01*
X89749565Y-106575873D01*
X89881785Y-106533129D01*
X90022308Y-106516347D01*
X90036133Y-106516124D01*
X90156266Y-106515244D01*
X90156268Y-106462443D01*
X90149911Y-106415604D01*
X90134444Y-106372817D01*
X90132846Y-106369989D01*
X90127832Y-106360325D01*
X90123927Y-106351451D01*
X90119993Y-106343335D01*
X90114894Y-106335943D01*
X90107492Y-106329245D01*
X90096649Y-106323208D01*
X90081228Y-106317801D01*
X90060091Y-106312990D01*
X90032101Y-106308745D01*
X89996121Y-106305032D01*
X89951013Y-106301821D01*
X89895640Y-106299078D01*
X89828863Y-106296772D01*
X89749547Y-106294871D01*
X89656553Y-106293342D01*
X89548743Y-106292154D01*
X89424981Y-106291274D01*
X89284129Y-106290670D01*
X89125050Y-106290311D01*
X88946605Y-106290165D01*
X88747658Y-106290198D01*
X88527071Y-106290380D01*
X88283707Y-106290677D01*
X88016428Y-106291059D01*
X87724097Y-106291492D01*
X87405576Y-106291945D01*
X87366770Y-106291998D01*
X87046218Y-106292404D01*
X86751988Y-106292749D01*
X86482944Y-106293069D01*
X86237948Y-106293400D01*
X86015863Y-106293779D01*
X85815553Y-106294243D01*
X85635881Y-106294828D01*
X85475710Y-106295570D01*
X85333902Y-106296506D01*
X85209321Y-106297673D01*
X85100830Y-106299107D01*
X85007293Y-106300844D01*
X84927571Y-106302922D01*
X84860528Y-106305376D01*
X84805027Y-106308244D01*
X84759932Y-106311561D01*
X84724105Y-106315364D01*
X84696409Y-106319690D01*
X84675707Y-106324575D01*
X84660863Y-106330055D01*
X84650740Y-106336168D01*
X84644200Y-106342950D01*
X84640107Y-106350437D01*
X84637324Y-106358666D01*
X84634713Y-106367673D01*
X84631138Y-106377495D01*
X84630050Y-106379894D01*
X84627604Y-106387435D01*
X84625358Y-106400056D01*
X84623302Y-106418859D01*
X84621428Y-106444947D01*
X84619729Y-106479422D01*
X84618197Y-106523385D01*
X84616823Y-106577939D01*
X84615600Y-106644185D01*
X84614519Y-106723226D01*
X84613573Y-106816163D01*
X84612753Y-106924099D01*
X84612053Y-107048136D01*
X84611462Y-107189376D01*
X84610975Y-107348921D01*
X84610581Y-107527872D01*
X84610275Y-107727332D01*
X84610047Y-107948404D01*
X84609890Y-108192188D01*
X84609795Y-108459787D01*
X84609755Y-108752303D01*
X84609762Y-109070839D01*
X84609772Y-109174021D01*
X84609824Y-109499623D01*
X84609909Y-109798881D01*
X84610037Y-110072909D01*
X84610215Y-110322824D01*
X84610452Y-110549740D01*
X84610758Y-110754773D01*
X84611140Y-110939038D01*
X84611608Y-111103650D01*
X84612170Y-111249725D01*
X84612835Y-111378376D01*
X84613612Y-111490721D01*
X84614509Y-111587874D01*
X84615535Y-111670950D01*
X84616699Y-111741064D01*
X84618009Y-111799332D01*
X84619475Y-111846869D01*
X84621104Y-111884790D01*
X84622907Y-111914210D01*
X84624890Y-111936245D01*
X84627064Y-111952010D01*
X84629437Y-111962620D01*
X84631609Y-111968404D01*
X84635944Y-111978684D01*
X84639141Y-111988122D01*
X84642335Y-111996755D01*
X84646662Y-112004619D01*
X84653256Y-112011748D01*
X84663253Y-112018179D01*
X84677788Y-112023947D01*
X84697997Y-112029089D01*
X84725015Y-112033640D01*
X84759977Y-112037635D01*
X84804019Y-112041111D01*
X84858276Y-112044102D01*
X84923883Y-112046646D01*
X85001976Y-112048777D01*
X85093690Y-112050532D01*
X85200160Y-112051945D01*
X85241027Y-112052315D01*
X85241027Y-111685884D01*
X85241027Y-110390734D01*
X85278783Y-110415655D01*
X85317583Y-110440447D01*
X85354531Y-110461440D01*
X85392212Y-110478935D01*
X85433212Y-110493230D01*
X85480117Y-110504623D01*
X85535513Y-110513413D01*
X85601984Y-110519898D01*
X85682117Y-110524377D01*
X85778498Y-110527150D01*
X85893711Y-110528513D01*
X86030343Y-110528767D01*
X86190980Y-110528209D01*
X86250618Y-110527893D01*
X86889959Y-110524325D01*
X86338551Y-110119298D01*
X86182124Y-110004554D01*
X86045912Y-109905143D01*
X85928110Y-109819990D01*
X85826916Y-109748022D01*
X85740523Y-109688166D01*
X85667126Y-109639348D01*
X85604923Y-109600495D01*
X85552107Y-109570534D01*
X85506875Y-109548391D01*
X85467422Y-109532993D01*
X85431942Y-109523266D01*
X85398632Y-109518137D01*
X85365687Y-109516532D01*
X85331303Y-109517379D01*
X85326981Y-109517595D01*
X85240969Y-109522054D01*
X85241027Y-108102692D01*
X85347478Y-108208265D01*
X85376594Y-108236913D01*
X85404924Y-108264090D01*
X85434032Y-108290989D01*
X85465480Y-108318803D01*
X85500831Y-108348725D01*
X85541646Y-108381946D01*
X85589489Y-108419661D01*
X85645921Y-108463060D01*
X85712506Y-108513338D01*
X85790805Y-108571688D01*
X85882381Y-108639300D01*
X85988796Y-108717369D01*
X86111613Y-108807088D01*
X86252395Y-108909648D01*
X86412703Y-109026242D01*
X86544202Y-109121809D01*
X86709404Y-109241749D01*
X86853848Y-109346380D01*
X86978906Y-109436648D01*
X87085948Y-109513503D01*
X87176346Y-109577891D01*
X87251471Y-109630761D01*
X87312696Y-109673060D01*
X87361390Y-109705736D01*
X87398926Y-109729738D01*
X87426675Y-109746013D01*
X87446008Y-109755508D01*
X87458297Y-109759173D01*
X87464758Y-109758071D01*
X87481952Y-109744724D01*
X87518345Y-109715866D01*
X87571776Y-109673240D01*
X87640081Y-109618585D01*
X87721097Y-109553644D01*
X87812660Y-109480158D01*
X87912608Y-109399868D01*
X88018776Y-109314515D01*
X88129003Y-109225840D01*
X88241124Y-109135586D01*
X88302756Y-109085944D01*
X88302756Y-107853373D01*
X88210081Y-107802146D01*
X88117405Y-107750919D01*
X85426378Y-107750919D01*
X85333702Y-107802146D01*
X85241027Y-107853373D01*
X85241027Y-107247396D01*
X85241069Y-107102734D01*
X85241259Y-106983244D01*
X85241692Y-106886642D01*
X85242464Y-106810642D01*
X85243670Y-106752957D01*
X85245406Y-106711301D01*
X85247768Y-106683389D01*
X85250850Y-106666935D01*
X85254749Y-106659652D01*
X85259560Y-106659255D01*
X85265378Y-106663458D01*
X85265426Y-106663501D01*
X85290468Y-106680813D01*
X85331185Y-106703736D01*
X85371832Y-106723981D01*
X85453838Y-106762379D01*
X88302756Y-106770211D01*
X88302756Y-107853373D01*
X88302756Y-109085944D01*
X88352976Y-109045493D01*
X88462396Y-108957302D01*
X88567222Y-108872754D01*
X88665289Y-108793592D01*
X88754434Y-108721556D01*
X88832495Y-108658387D01*
X88897308Y-108605827D01*
X88946710Y-108565617D01*
X88975513Y-108542000D01*
X89083222Y-108450290D01*
X89180420Y-108362060D01*
X89263924Y-108280403D01*
X89330552Y-108208410D01*
X89371401Y-108157319D01*
X89414865Y-108096907D01*
X89414865Y-109486298D01*
X89333334Y-109485908D01*
X89273394Y-109489791D01*
X89217823Y-109504390D01*
X89165145Y-109526988D01*
X89135385Y-109541678D01*
X89105897Y-109557472D01*
X89074724Y-109575814D01*
X89039907Y-109598145D01*
X88999490Y-109625909D01*
X88951514Y-109660549D01*
X88894022Y-109703507D01*
X88825057Y-109756227D01*
X88742661Y-109820151D01*
X88644876Y-109896721D01*
X88529745Y-109987381D01*
X88395310Y-110093574D01*
X88380141Y-110105568D01*
X87850588Y-110524325D01*
X88437078Y-110528378D01*
X88612749Y-110529195D01*
X88761468Y-110529021D01*
X88883725Y-110527849D01*
X88980011Y-110525669D01*
X89050817Y-110522474D01*
X89096631Y-110518256D01*
X89105321Y-110516838D01*
X89196865Y-110494591D01*
X89279392Y-110465443D01*
X89345747Y-110432182D01*
X89373890Y-110412200D01*
X89414865Y-110377722D01*
X89414865Y-111031914D01*
X89414731Y-111187969D01*
X89414297Y-111318467D01*
X89413511Y-111425310D01*
X89412324Y-111510398D01*
X89410683Y-111575635D01*
X89408539Y-111622921D01*
X89405841Y-111654157D01*
X89402538Y-111671246D01*
X89398579Y-111676088D01*
X89397702Y-111675753D01*
X89376769Y-111661885D01*
X89343588Y-111638732D01*
X89326807Y-111626754D01*
X89310060Y-111614369D01*
X89295085Y-111603237D01*
X89280406Y-111593288D01*
X89264551Y-111584451D01*
X89246045Y-111576657D01*
X89223415Y-111569835D01*
X89195187Y-111563916D01*
X89159887Y-111558829D01*
X89116042Y-111554504D01*
X89062178Y-111550871D01*
X88996820Y-111547860D01*
X88918496Y-111545401D01*
X88825732Y-111543423D01*
X88717053Y-111541858D01*
X88590987Y-111540634D01*
X88446058Y-111539681D01*
X88280794Y-111538930D01*
X88093721Y-111538311D01*
X87883365Y-111537752D01*
X87648252Y-111537185D01*
X87432259Y-111536655D01*
X87191465Y-111536155D01*
X86961726Y-111535895D01*
X86744507Y-111535868D01*
X86541278Y-111536067D01*
X86353504Y-111536486D01*
X86182655Y-111537118D01*
X86030197Y-111537956D01*
X85897597Y-111538992D01*
X85786324Y-111540220D01*
X85697844Y-111541633D01*
X85633625Y-111543225D01*
X85595135Y-111544987D01*
X85591067Y-111545321D01*
X85497752Y-111557466D01*
X85422810Y-111576427D01*
X85357406Y-111605302D01*
X85292707Y-111647190D01*
X85285648Y-111652429D01*
X85241027Y-111685884D01*
X85241027Y-112052315D01*
X85322521Y-112053054D01*
X85461910Y-112053893D01*
X85619461Y-112054498D01*
X85796309Y-112054905D01*
X85993590Y-112055150D01*
X86212440Y-112055267D01*
X86453993Y-112055295D01*
X86719385Y-112055267D01*
X87009751Y-112055220D01*
X87326227Y-112055190D01*
X87389054Y-112055189D01*
X87708863Y-112055172D01*
X88002339Y-112055112D01*
X88270610Y-112055002D01*
X88514802Y-112054833D01*
X88736043Y-112054597D01*
X88935460Y-112054284D01*
X89114180Y-112053885D01*
X89273329Y-112053393D01*
X89414034Y-112052797D01*
X89537424Y-112052090D01*
X89644624Y-112051263D01*
X89736762Y-112050307D01*
X89814965Y-112049213D01*
X89880359Y-112047973D01*
X89934072Y-112046578D01*
X89977231Y-112045018D01*
X90010963Y-112043286D01*
X90036395Y-112041372D01*
X90054653Y-112039268D01*
X90066866Y-112036966D01*
X90074159Y-112034455D01*
X90074341Y-112034363D01*
X90085482Y-112029192D01*
X90095569Y-112024885D01*
X90104654Y-112020121D01*
X90112788Y-112013578D01*
X90120024Y-112003935D01*
X90126414Y-111989871D01*
X90132011Y-111970063D01*
X90136867Y-111943191D01*
X90141034Y-111907933D01*
X90144564Y-111862968D01*
X90147509Y-111806974D01*
X90149923Y-111738629D01*
X90151856Y-111656614D01*
X90153362Y-111559605D01*
X90154492Y-111446282D01*
X90155298Y-111315323D01*
X90155834Y-111165407D01*
X90156151Y-110995213D01*
X90156301Y-110803418D01*
X90156337Y-110588702D01*
X90156311Y-110349743D01*
G37*
X90156311Y-110349743D02*
X90156275Y-110085220D01*
X90156270Y-109962088D01*
X90156270Y-107991189D01*
X90040090Y-107991189D01*
X89898709Y-107978789D01*
X89768316Y-107941364D01*
X89648138Y-107878577D01*
X89537398Y-107790094D01*
X89507489Y-107760157D01*
X89422652Y-107652466D01*
X89360779Y-107533725D01*
X89321841Y-107407460D01*
X89305810Y-107277197D01*
X89312658Y-107146465D01*
X89342357Y-107018788D01*
X89394880Y-106897695D01*
X89470197Y-106786712D01*
X89515637Y-106736868D01*
X89627048Y-106643983D01*
X89749565Y-106575873D01*
X89881785Y-106533129D01*
X90022308Y-106516347D01*
X90036133Y-106516124D01*
X90156266Y-106515244D01*
X90156268Y-106462443D01*
X90149911Y-106415604D01*
X90134444Y-106372817D01*
X90132846Y-106369989D01*
X90127832Y-106360325D01*
X90123927Y-106351451D01*
X90119993Y-106343335D01*
X90114894Y-106335943D01*
X90107492Y-106329245D01*
X90096649Y-106323208D01*
X90081228Y-106317801D01*
X90060091Y-106312990D01*
X90032101Y-106308745D01*
X89996121Y-106305032D01*
X89951013Y-106301821D01*
X89895640Y-106299078D01*
X89828863Y-106296772D01*
X89749547Y-106294871D01*
X89656553Y-106293342D01*
X89548743Y-106292154D01*
X89424981Y-106291274D01*
X89284129Y-106290670D01*
X89125050Y-106290311D01*
X88946605Y-106290165D01*
X88747658Y-106290198D01*
X88527071Y-106290380D01*
X88283707Y-106290677D01*
X88016428Y-106291059D01*
X87724097Y-106291492D01*
X87405576Y-106291945D01*
X87366770Y-106291998D01*
X87046218Y-106292404D01*
X86751988Y-106292749D01*
X86482944Y-106293069D01*
X86237948Y-106293400D01*
X86015863Y-106293779D01*
X85815553Y-106294243D01*
X85635881Y-106294828D01*
X85475710Y-106295570D01*
X85333902Y-106296506D01*
X85209321Y-106297673D01*
X85100830Y-106299107D01*
X85007293Y-106300844D01*
X84927571Y-106302922D01*
X84860528Y-106305376D01*
X84805027Y-106308244D01*
X84759932Y-106311561D01*
X84724105Y-106315364D01*
X84696409Y-106319690D01*
X84675707Y-106324575D01*
X84660863Y-106330055D01*
X84650740Y-106336168D01*
X84644200Y-106342950D01*
X84640107Y-106350437D01*
X84637324Y-106358666D01*
X84634713Y-106367673D01*
X84631138Y-106377495D01*
X84630050Y-106379894D01*
X84627604Y-106387435D01*
X84625358Y-106400056D01*
X84623302Y-106418859D01*
X84621428Y-106444947D01*
X84619729Y-106479422D01*
X84618197Y-106523385D01*
X84616823Y-106577939D01*
X84615600Y-106644185D01*
X84614519Y-106723226D01*
X84613573Y-106816163D01*
X84612753Y-106924099D01*
X84612053Y-107048136D01*
X84611462Y-107189376D01*
X84610975Y-107348921D01*
X84610581Y-107527872D01*
X84610275Y-107727332D01*
X84610047Y-107948404D01*
X84609890Y-108192188D01*
X84609795Y-108459787D01*
X84609755Y-108752303D01*
X84609762Y-109070839D01*
X84609772Y-109174021D01*
X84609824Y-109499623D01*
X84609909Y-109798881D01*
X84610037Y-110072909D01*
X84610215Y-110322824D01*
X84610452Y-110549740D01*
X84610758Y-110754773D01*
X84611140Y-110939038D01*
X84611608Y-111103650D01*
X84612170Y-111249725D01*
X84612835Y-111378376D01*
X84613612Y-111490721D01*
X84614509Y-111587874D01*
X84615535Y-111670950D01*
X84616699Y-111741064D01*
X84618009Y-111799332D01*
X84619475Y-111846869D01*
X84621104Y-111884790D01*
X84622907Y-111914210D01*
X84624890Y-111936245D01*
X84627064Y-111952010D01*
X84629437Y-111962620D01*
X84631609Y-111968404D01*
X84635944Y-111978684D01*
X84639141Y-111988122D01*
X84642335Y-111996755D01*
X84646662Y-112004619D01*
X84653256Y-112011748D01*
X84663253Y-112018179D01*
X84677788Y-112023947D01*
X84697997Y-112029089D01*
X84725015Y-112033640D01*
X84759977Y-112037635D01*
X84804019Y-112041111D01*
X84858276Y-112044102D01*
X84923883Y-112046646D01*
X85001976Y-112048777D01*
X85093690Y-112050532D01*
X85200160Y-112051945D01*
X85241027Y-112052315D01*
X85241027Y-111685884D01*
X85241027Y-110390734D01*
X85278783Y-110415655D01*
X85317583Y-110440447D01*
X85354531Y-110461440D01*
X85392212Y-110478935D01*
X85433212Y-110493230D01*
X85480117Y-110504623D01*
X85535513Y-110513413D01*
X85601984Y-110519898D01*
X85682117Y-110524377D01*
X85778498Y-110527150D01*
X85893711Y-110528513D01*
X86030343Y-110528767D01*
X86190980Y-110528209D01*
X86250618Y-110527893D01*
X86889959Y-110524325D01*
X86338551Y-110119298D01*
X86182124Y-110004554D01*
X86045912Y-109905143D01*
X85928110Y-109819990D01*
X85826916Y-109748022D01*
X85740523Y-109688166D01*
X85667126Y-109639348D01*
X85604923Y-109600495D01*
X85552107Y-109570534D01*
X85506875Y-109548391D01*
X85467422Y-109532993D01*
X85431942Y-109523266D01*
X85398632Y-109518137D01*
X85365687Y-109516532D01*
X85331303Y-109517379D01*
X85326981Y-109517595D01*
X85240969Y-109522054D01*
X85241027Y-108102692D01*
X85347478Y-108208265D01*
X85376594Y-108236913D01*
X85404924Y-108264090D01*
X85434032Y-108290989D01*
X85465480Y-108318803D01*
X85500831Y-108348725D01*
X85541646Y-108381946D01*
X85589489Y-108419661D01*
X85645921Y-108463060D01*
X85712506Y-108513338D01*
X85790805Y-108571688D01*
X85882381Y-108639300D01*
X85988796Y-108717369D01*
X86111613Y-108807088D01*
X86252395Y-108909648D01*
X86412703Y-109026242D01*
X86544202Y-109121809D01*
X86709404Y-109241749D01*
X86853848Y-109346380D01*
X86978906Y-109436648D01*
X87085948Y-109513503D01*
X87176346Y-109577891D01*
X87251471Y-109630761D01*
X87312696Y-109673060D01*
X87361390Y-109705736D01*
X87398926Y-109729738D01*
X87426675Y-109746013D01*
X87446008Y-109755508D01*
X87458297Y-109759173D01*
X87464758Y-109758071D01*
X87481952Y-109744724D01*
X87518345Y-109715866D01*
X87571776Y-109673240D01*
X87640081Y-109618585D01*
X87721097Y-109553644D01*
X87812660Y-109480158D01*
X87912608Y-109399868D01*
X88018776Y-109314515D01*
X88129003Y-109225840D01*
X88241124Y-109135586D01*
X88302756Y-109085944D01*
X88302756Y-107853373D01*
X88210081Y-107802146D01*
X88117405Y-107750919D01*
X85426378Y-107750919D01*
X85333702Y-107802146D01*
X85241027Y-107853373D01*
X85241027Y-107247396D01*
X85241069Y-107102734D01*
X85241259Y-106983244D01*
X85241692Y-106886642D01*
X85242464Y-106810642D01*
X85243670Y-106752957D01*
X85245406Y-106711301D01*
X85247768Y-106683389D01*
X85250850Y-106666935D01*
X85254749Y-106659652D01*
X85259560Y-106659255D01*
X85265378Y-106663458D01*
X85265426Y-106663501D01*
X85290468Y-106680813D01*
X85331185Y-106703736D01*
X85371832Y-106723981D01*
X85453838Y-106762379D01*
X88302756Y-106770211D01*
X88302756Y-107853373D01*
X88302756Y-109085944D01*
X88352976Y-109045493D01*
X88462396Y-108957302D01*
X88567222Y-108872754D01*
X88665289Y-108793592D01*
X88754434Y-108721556D01*
X88832495Y-108658387D01*
X88897308Y-108605827D01*
X88946710Y-108565617D01*
X88975513Y-108542000D01*
X89083222Y-108450290D01*
X89180420Y-108362060D01*
X89263924Y-108280403D01*
X89330552Y-108208410D01*
X89371401Y-108157319D01*
X89414865Y-108096907D01*
X89414865Y-109486298D01*
X89333334Y-109485908D01*
X89273394Y-109489791D01*
X89217823Y-109504390D01*
X89165145Y-109526988D01*
X89135385Y-109541678D01*
X89105897Y-109557472D01*
X89074724Y-109575814D01*
X89039907Y-109598145D01*
X88999490Y-109625909D01*
X88951514Y-109660549D01*
X88894022Y-109703507D01*
X88825057Y-109756227D01*
X88742661Y-109820151D01*
X88644876Y-109896721D01*
X88529745Y-109987381D01*
X88395310Y-110093574D01*
X88380141Y-110105568D01*
X87850588Y-110524325D01*
X88437078Y-110528378D01*
X88612749Y-110529195D01*
X88761468Y-110529021D01*
X88883725Y-110527849D01*
X88980011Y-110525669D01*
X89050817Y-110522474D01*
X89096631Y-110518256D01*
X89105321Y-110516838D01*
X89196865Y-110494591D01*
X89279392Y-110465443D01*
X89345747Y-110432182D01*
X89373890Y-110412200D01*
X89414865Y-110377722D01*
X89414865Y-111031914D01*
X89414731Y-111187969D01*
X89414297Y-111318467D01*
X89413511Y-111425310D01*
X89412324Y-111510398D01*
X89410683Y-111575635D01*
X89408539Y-111622921D01*
X89405841Y-111654157D01*
X89402538Y-111671246D01*
X89398579Y-111676088D01*
X89397702Y-111675753D01*
X89376769Y-111661885D01*
X89343588Y-111638732D01*
X89326807Y-111626754D01*
X89310060Y-111614369D01*
X89295085Y-111603237D01*
X89280406Y-111593288D01*
X89264551Y-111584451D01*
X89246045Y-111576657D01*
X89223415Y-111569835D01*
X89195187Y-111563916D01*
X89159887Y-111558829D01*
X89116042Y-111554504D01*
X89062178Y-111550871D01*
X88996820Y-111547860D01*
X88918496Y-111545401D01*
X88825732Y-111543423D01*
X88717053Y-111541858D01*
X88590987Y-111540634D01*
X88446058Y-111539681D01*
X88280794Y-111538930D01*
X88093721Y-111538311D01*
X87883365Y-111537752D01*
X87648252Y-111537185D01*
X87432259Y-111536655D01*
X87191465Y-111536155D01*
X86961726Y-111535895D01*
X86744507Y-111535868D01*
X86541278Y-111536067D01*
X86353504Y-111536486D01*
X86182655Y-111537118D01*
X86030197Y-111537956D01*
X85897597Y-111538992D01*
X85786324Y-111540220D01*
X85697844Y-111541633D01*
X85633625Y-111543225D01*
X85595135Y-111544987D01*
X85591067Y-111545321D01*
X85497752Y-111557466D01*
X85422810Y-111576427D01*
X85357406Y-111605302D01*
X85292707Y-111647190D01*
X85285648Y-111652429D01*
X85241027Y-111685884D01*
X85241027Y-112052315D01*
X85322521Y-112053054D01*
X85461910Y-112053893D01*
X85619461Y-112054498D01*
X85796309Y-112054905D01*
X85993590Y-112055150D01*
X86212440Y-112055267D01*
X86453993Y-112055295D01*
X86719385Y-112055267D01*
X87009751Y-112055220D01*
X87326227Y-112055190D01*
X87389054Y-112055189D01*
X87708863Y-112055172D01*
X88002339Y-112055112D01*
X88270610Y-112055002D01*
X88514802Y-112054833D01*
X88736043Y-112054597D01*
X88935460Y-112054284D01*
X89114180Y-112053885D01*
X89273329Y-112053393D01*
X89414034Y-112052797D01*
X89537424Y-112052090D01*
X89644624Y-112051263D01*
X89736762Y-112050307D01*
X89814965Y-112049213D01*
X89880359Y-112047973D01*
X89934072Y-112046578D01*
X89977231Y-112045018D01*
X90010963Y-112043286D01*
X90036395Y-112041372D01*
X90054653Y-112039268D01*
X90066866Y-112036966D01*
X90074159Y-112034455D01*
X90074341Y-112034363D01*
X90085482Y-112029192D01*
X90095569Y-112024885D01*
X90104654Y-112020121D01*
X90112788Y-112013578D01*
X90120024Y-112003935D01*
X90126414Y-111989871D01*
X90132011Y-111970063D01*
X90136867Y-111943191D01*
X90141034Y-111907933D01*
X90144564Y-111862968D01*
X90147509Y-111806974D01*
X90149923Y-111738629D01*
X90151856Y-111656614D01*
X90153362Y-111559605D01*
X90154492Y-111446282D01*
X90155298Y-111315323D01*
X90155834Y-111165407D01*
X90156151Y-110995213D01*
X90156301Y-110803418D01*
X90156337Y-110588702D01*
X90156311Y-110349743D01*
G36*
X89469501Y-103954038D02*
G01*
X89453293Y-103805986D01*
X89424282Y-103662548D01*
X89380955Y-103517890D01*
X89321799Y-103366176D01*
X89245300Y-103201572D01*
X89230483Y-103171929D01*
X89196969Y-103103902D01*
X89166792Y-103039744D01*
X89142834Y-102985785D01*
X89127976Y-102948360D01*
X89126105Y-102942611D01*
X89109598Y-102887514D01*
X88750799Y-103134149D01*
X88663107Y-103194448D01*
X88582988Y-103249578D01*
X88513164Y-103297664D01*
X88456353Y-103336832D01*
X88415277Y-103365206D01*
X88392654Y-103380913D01*
X88389072Y-103383464D01*
X88396562Y-103393829D01*
X88419082Y-103419340D01*
X88452539Y-103455437D01*
X88471450Y-103475358D01*
X88561222Y-103588227D01*
X88629439Y-103714986D01*
X88666805Y-103824217D01*
X88678540Y-103889786D01*
X88685692Y-103971884D01*
X88688126Y-104060856D01*
X88685712Y-104147044D01*
X88678317Y-104220795D01*
X88672653Y-104250224D01*
X88627018Y-104382867D01*
X88557337Y-104502394D01*
X88463740Y-104608717D01*
X88346351Y-104701747D01*
X88205300Y-104781395D01*
X88040714Y-104847574D01*
X87852720Y-104900194D01*
X87691783Y-104931467D01*
X87620737Y-104939626D01*
X87528954Y-104945185D01*
X87423032Y-104948198D01*
X87309566Y-104948719D01*
X87195151Y-104946800D01*
X87086383Y-104942497D01*
X86989857Y-104935863D01*
X86912169Y-104926951D01*
X86900183Y-104925021D01*
X86707108Y-104882501D01*
X86536227Y-104824567D01*
X86386776Y-104750867D01*
X86257989Y-104661049D01*
X86188361Y-104597293D01*
X86093827Y-104482714D01*
X86023754Y-104357058D01*
X85978523Y-104222443D01*
X85958516Y-104080989D01*
X85964115Y-103934817D01*
X85995700Y-103786045D01*
X86026606Y-103698089D01*
X86088494Y-103576371D01*
X86177271Y-103450920D01*
X86237306Y-103380647D01*
X86272053Y-103341189D01*
X86297546Y-103310188D01*
X86309830Y-103292542D01*
X86310205Y-103290352D01*
X86297653Y-103282476D01*
X86264484Y-103262068D01*
X86213542Y-103230868D01*
X86147669Y-103190614D01*
X86069711Y-103143043D01*
X85982510Y-103089896D01*
X85933933Y-103060313D01*
X85562785Y-102834352D01*
X85423361Y-103116473D01*
X85373281Y-103218478D01*
X85333790Y-103301111D01*
X85302927Y-103369422D01*
X85278732Y-103428463D01*
X85259242Y-103483286D01*
X85242497Y-103538940D01*
X85226535Y-103600477D01*
X85212518Y-103659460D01*
X85201671Y-103711885D01*
X85193474Y-103766712D01*
X85187472Y-103829428D01*
X85183210Y-103905523D01*
X85180233Y-104000484D01*
X85178948Y-104064487D01*
X85178070Y-104155808D01*
X85178513Y-104243373D01*
X85180148Y-104321388D01*
X85182851Y-104384058D01*
X85186495Y-104425587D01*
X85186858Y-104428048D01*
X85233513Y-104643697D01*
X85304271Y-104846207D01*
X85399086Y-105035505D01*
X85517911Y-105211521D01*
X85660700Y-105374184D01*
X85827406Y-105523422D01*
X85975567Y-105631504D01*
X86169498Y-105746566D01*
X86374301Y-105839577D01*
X86591617Y-105910987D01*
X86823088Y-105961244D01*
X87070357Y-105990799D01*
X87321441Y-106000111D01*
X87564330Y-105992452D01*
X87788430Y-105968387D01*
X87997523Y-105927148D01*
X88195387Y-105867973D01*
X88385804Y-105790096D01*
X88405532Y-105780797D01*
X88589941Y-105678352D01*
X88765424Y-105552528D01*
X88928350Y-105406888D01*
X89075086Y-105244999D01*
X89201999Y-105070424D01*
X89295095Y-104907756D01*
X89368009Y-104743427D01*
X89420826Y-104578749D01*
X89454985Y-104407348D01*
X89471922Y-104222847D01*
X89474420Y-104112541D01*
X89469501Y-103954038D01*
G37*
X89469501Y-103954038D02*
X89453293Y-103805986D01*
X89424282Y-103662548D01*
X89380955Y-103517890D01*
X89321799Y-103366176D01*
X89245300Y-103201572D01*
X89230483Y-103171929D01*
X89196969Y-103103902D01*
X89166792Y-103039744D01*
X89142834Y-102985785D01*
X89127976Y-102948360D01*
X89126105Y-102942611D01*
X89109598Y-102887514D01*
X88750799Y-103134149D01*
X88663107Y-103194448D01*
X88582988Y-103249578D01*
X88513164Y-103297664D01*
X88456353Y-103336832D01*
X88415277Y-103365206D01*
X88392654Y-103380913D01*
X88389072Y-103383464D01*
X88396562Y-103393829D01*
X88419082Y-103419340D01*
X88452539Y-103455437D01*
X88471450Y-103475358D01*
X88561222Y-103588227D01*
X88629439Y-103714986D01*
X88666805Y-103824217D01*
X88678540Y-103889786D01*
X88685692Y-103971884D01*
X88688126Y-104060856D01*
X88685712Y-104147044D01*
X88678317Y-104220795D01*
X88672653Y-104250224D01*
X88627018Y-104382867D01*
X88557337Y-104502394D01*
X88463740Y-104608717D01*
X88346351Y-104701747D01*
X88205300Y-104781395D01*
X88040714Y-104847574D01*
X87852720Y-104900194D01*
X87691783Y-104931467D01*
X87620737Y-104939626D01*
X87528954Y-104945185D01*
X87423032Y-104948198D01*
X87309566Y-104948719D01*
X87195151Y-104946800D01*
X87086383Y-104942497D01*
X86989857Y-104935863D01*
X86912169Y-104926951D01*
X86900183Y-104925021D01*
X86707108Y-104882501D01*
X86536227Y-104824567D01*
X86386776Y-104750867D01*
X86257989Y-104661049D01*
X86188361Y-104597293D01*
X86093827Y-104482714D01*
X86023754Y-104357058D01*
X85978523Y-104222443D01*
X85958516Y-104080989D01*
X85964115Y-103934817D01*
X85995700Y-103786045D01*
X86026606Y-103698089D01*
X86088494Y-103576371D01*
X86177271Y-103450920D01*
X86237306Y-103380647D01*
X86272053Y-103341189D01*
X86297546Y-103310188D01*
X86309830Y-103292542D01*
X86310205Y-103290352D01*
X86297653Y-103282476D01*
X86264484Y-103262068D01*
X86213542Y-103230868D01*
X86147669Y-103190614D01*
X86069711Y-103143043D01*
X85982510Y-103089896D01*
X85933933Y-103060313D01*
X85562785Y-102834352D01*
X85423361Y-103116473D01*
X85373281Y-103218478D01*
X85333790Y-103301111D01*
X85302927Y-103369422D01*
X85278732Y-103428463D01*
X85259242Y-103483286D01*
X85242497Y-103538940D01*
X85226535Y-103600477D01*
X85212518Y-103659460D01*
X85201671Y-103711885D01*
X85193474Y-103766712D01*
X85187472Y-103829428D01*
X85183210Y-103905523D01*
X85180233Y-104000484D01*
X85178948Y-104064487D01*
X85178070Y-104155808D01*
X85178513Y-104243373D01*
X85180148Y-104321388D01*
X85182851Y-104384058D01*
X85186495Y-104425587D01*
X85186858Y-104428048D01*
X85233513Y-104643697D01*
X85304271Y-104846207D01*
X85399086Y-105035505D01*
X85517911Y-105211521D01*
X85660700Y-105374184D01*
X85827406Y-105523422D01*
X85975567Y-105631504D01*
X86169498Y-105746566D01*
X86374301Y-105839577D01*
X86591617Y-105910987D01*
X86823088Y-105961244D01*
X87070357Y-105990799D01*
X87321441Y-106000111D01*
X87564330Y-105992452D01*
X87788430Y-105968387D01*
X87997523Y-105927148D01*
X88195387Y-105867973D01*
X88385804Y-105790096D01*
X88405532Y-105780797D01*
X88589941Y-105678352D01*
X88765424Y-105552528D01*
X88928350Y-105406888D01*
X89075086Y-105244999D01*
X89201999Y-105070424D01*
X89295095Y-104907756D01*
X89368009Y-104743427D01*
X89420826Y-104578749D01*
X89454985Y-104407348D01*
X89471922Y-104222847D01*
X89474420Y-104112541D01*
X89469501Y-103954038D01*
G36*
X88365771Y-101226495D02*
G01*
X88360622Y-101158469D01*
X88334727Y-100963837D01*
X88293425Y-100791471D01*
X88236147Y-100640530D01*
X88162326Y-100510175D01*
X88071392Y-100399566D01*
X87962778Y-100307865D01*
X87835915Y-100234230D01*
X87698648Y-100180461D01*
X87654863Y-100166813D01*
X87613859Y-100154927D01*
X87573431Y-100144666D01*
X87531370Y-100135887D01*
X87485469Y-100128452D01*
X87433520Y-100122220D01*
X87373315Y-100117050D01*
X87302648Y-100112804D01*
X87219311Y-100109340D01*
X87121095Y-100106519D01*
X87005795Y-100104200D01*
X86871201Y-100102243D01*
X86715107Y-100100509D01*
X86535305Y-100098857D01*
X86394324Y-100097676D01*
X85426378Y-100089730D01*
X85333230Y-100038244D01*
X85288355Y-100013863D01*
X85253499Y-99995720D01*
X85234946Y-99987065D01*
X85233689Y-99986757D01*
X85232251Y-99999986D01*
X85230926Y-100037674D01*
X85229751Y-100096817D01*
X85228763Y-100174414D01*
X85228001Y-100267464D01*
X85227500Y-100372965D01*
X85227299Y-100487916D01*
X85227297Y-100501622D01*
X85227297Y-101016487D01*
X85344000Y-101016487D01*
X85396740Y-101017365D01*
X85437074Y-101019708D01*
X85458700Y-101023079D01*
X85460702Y-101024569D01*
X85452317Y-101038196D01*
X85430308Y-101066243D01*
X85399399Y-101102697D01*
X85398684Y-101103515D01*
X85349157Y-101170038D01*
X85299425Y-101254052D01*
X85254374Y-101346063D01*
X85218890Y-101436579D01*
X85206764Y-101476433D01*
X85191363Y-101555745D01*
X85181535Y-101653065D01*
X85177420Y-101759484D01*
X85179159Y-101866093D01*
X85186892Y-101963983D01*
X85198019Y-102032487D01*
X85247352Y-102200480D01*
X85317658Y-102351719D01*
X85408067Y-102485218D01*
X85517705Y-102599994D01*
X85645701Y-102695063D01*
X85791182Y-102769440D01*
X85879459Y-102801526D01*
X85965261Y-102821635D01*
X86068264Y-102834962D01*
X86178966Y-102841128D01*
X86195075Y-102840926D01*
X86195075Y-101912352D01*
X86112816Y-101904652D01*
X86044454Y-101879011D01*
X85981030Y-101831622D01*
X85962433Y-101813421D01*
X85912154Y-101748718D01*
X85879944Y-101673934D01*
X85864352Y-101584338D01*
X85863204Y-101489988D01*
X85870784Y-101400499D01*
X85885611Y-101331982D01*
X85896747Y-101302225D01*
X85927096Y-101248592D01*
X85969779Y-101191765D01*
X86017683Y-101139918D01*
X86063699Y-101101222D01*
X86080579Y-101090946D01*
X86104218Y-101082958D01*
X86141832Y-101077279D01*
X86197015Y-101073644D01*
X86273360Y-101071789D01*
X86346019Y-101071406D01*
X86430730Y-101071665D01*
X86491982Y-101072713D01*
X86533773Y-101074955D01*
X86560101Y-101078794D01*
X86574965Y-101084635D01*
X86582361Y-101092882D01*
X86583539Y-101095433D01*
X86587167Y-101117600D01*
X86590134Y-101161320D01*
X86592173Y-101220689D01*
X86593017Y-101289804D01*
X86593018Y-101304811D01*
X86591543Y-101397195D01*
X86587158Y-101468568D01*
X86579262Y-101525281D01*
X86567730Y-101572128D01*
X86523785Y-101688331D01*
X86469757Y-101779457D01*
X86404781Y-101846295D01*
X86327995Y-101889635D01*
X86238533Y-101910266D01*
X86195075Y-101912352D01*
X86195075Y-102840926D01*
X86287867Y-102839756D01*
X86385464Y-102830468D01*
X86424895Y-102823223D01*
X86571299Y-102776961D01*
X86706005Y-102706616D01*
X86827720Y-102613516D01*
X86935153Y-102498988D01*
X87027012Y-102364360D01*
X87102004Y-102210960D01*
X87147542Y-102080541D01*
X87171467Y-101993377D01*
X87190057Y-101910004D01*
X87203916Y-101825024D01*
X87213649Y-101733035D01*
X87219859Y-101628638D01*
X87223149Y-101506432D01*
X87224076Y-101395945D01*
X87224973Y-101068323D01*
X87323453Y-101074599D01*
X87430305Y-101092421D01*
X87522148Y-101130333D01*
X87596690Y-101186720D01*
X87651636Y-101259969D01*
X87678448Y-101324465D01*
X87695346Y-101416877D01*
X87697773Y-101526889D01*
X87686622Y-101649344D01*
X87662790Y-101779086D01*
X87627170Y-101910958D01*
X87580657Y-102039802D01*
X87538117Y-102133434D01*
X87516272Y-102178483D01*
X87501016Y-102212844D01*
X87495063Y-102230319D01*
X87495254Y-102231267D01*
X87508588Y-102237297D01*
X87543932Y-102252355D01*
X87597899Y-102275023D01*
X87667104Y-102303885D01*
X87748160Y-102337523D01*
X87830882Y-102371716D01*
X88162197Y-102508414D01*
X88178167Y-102411180D01*
X88186180Y-102369036D01*
X88199639Y-102305681D01*
X88217321Y-102226543D01*
X88238004Y-102137049D01*
X88260468Y-102042627D01*
X88269597Y-102005027D01*
X88307326Y-101842363D01*
X88335612Y-101699950D01*
X88355028Y-101572473D01*
X88366146Y-101454616D01*
X88369536Y-101341062D01*
X88365771Y-101226495D01*
G37*
X88365771Y-101226495D02*
X88360622Y-101158469D01*
X88334727Y-100963837D01*
X88293425Y-100791471D01*
X88236147Y-100640530D01*
X88162326Y-100510175D01*
X88071392Y-100399566D01*
X87962778Y-100307865D01*
X87835915Y-100234230D01*
X87698648Y-100180461D01*
X87654863Y-100166813D01*
X87613859Y-100154927D01*
X87573431Y-100144666D01*
X87531370Y-100135887D01*
X87485469Y-100128452D01*
X87433520Y-100122220D01*
X87373315Y-100117050D01*
X87302648Y-100112804D01*
X87219311Y-100109340D01*
X87121095Y-100106519D01*
X87005795Y-100104200D01*
X86871201Y-100102243D01*
X86715107Y-100100509D01*
X86535305Y-100098857D01*
X86394324Y-100097676D01*
X85426378Y-100089730D01*
X85333230Y-100038244D01*
X85288355Y-100013863D01*
X85253499Y-99995720D01*
X85234946Y-99987065D01*
X85233689Y-99986757D01*
X85232251Y-99999986D01*
X85230926Y-100037674D01*
X85229751Y-100096817D01*
X85228763Y-100174414D01*
X85228001Y-100267464D01*
X85227500Y-100372965D01*
X85227299Y-100487916D01*
X85227297Y-100501622D01*
X85227297Y-101016487D01*
X85344000Y-101016487D01*
X85396740Y-101017365D01*
X85437074Y-101019708D01*
X85458700Y-101023079D01*
X85460702Y-101024569D01*
X85452317Y-101038196D01*
X85430308Y-101066243D01*
X85399399Y-101102697D01*
X85398684Y-101103515D01*
X85349157Y-101170038D01*
X85299425Y-101254052D01*
X85254374Y-101346063D01*
X85218890Y-101436579D01*
X85206764Y-101476433D01*
X85191363Y-101555745D01*
X85181535Y-101653065D01*
X85177420Y-101759484D01*
X85179159Y-101866093D01*
X85186892Y-101963983D01*
X85198019Y-102032487D01*
X85247352Y-102200480D01*
X85317658Y-102351719D01*
X85408067Y-102485218D01*
X85517705Y-102599994D01*
X85645701Y-102695063D01*
X85791182Y-102769440D01*
X85879459Y-102801526D01*
X85965261Y-102821635D01*
X86068264Y-102834962D01*
X86178966Y-102841128D01*
X86195075Y-102840926D01*
X86195075Y-101912352D01*
X86112816Y-101904652D01*
X86044454Y-101879011D01*
X85981030Y-101831622D01*
X85962433Y-101813421D01*
X85912154Y-101748718D01*
X85879944Y-101673934D01*
X85864352Y-101584338D01*
X85863204Y-101489988D01*
X85870784Y-101400499D01*
X85885611Y-101331982D01*
X85896747Y-101302225D01*
X85927096Y-101248592D01*
X85969779Y-101191765D01*
X86017683Y-101139918D01*
X86063699Y-101101222D01*
X86080579Y-101090946D01*
X86104218Y-101082958D01*
X86141832Y-101077279D01*
X86197015Y-101073644D01*
X86273360Y-101071789D01*
X86346019Y-101071406D01*
X86430730Y-101071665D01*
X86491982Y-101072713D01*
X86533773Y-101074955D01*
X86560101Y-101078794D01*
X86574965Y-101084635D01*
X86582361Y-101092882D01*
X86583539Y-101095433D01*
X86587167Y-101117600D01*
X86590134Y-101161320D01*
X86592173Y-101220689D01*
X86593017Y-101289804D01*
X86593018Y-101304811D01*
X86591543Y-101397195D01*
X86587158Y-101468568D01*
X86579262Y-101525281D01*
X86567730Y-101572128D01*
X86523785Y-101688331D01*
X86469757Y-101779457D01*
X86404781Y-101846295D01*
X86327995Y-101889635D01*
X86238533Y-101910266D01*
X86195075Y-101912352D01*
X86195075Y-102840926D01*
X86287867Y-102839756D01*
X86385464Y-102830468D01*
X86424895Y-102823223D01*
X86571299Y-102776961D01*
X86706005Y-102706616D01*
X86827720Y-102613516D01*
X86935153Y-102498988D01*
X87027012Y-102364360D01*
X87102004Y-102210960D01*
X87147542Y-102080541D01*
X87171467Y-101993377D01*
X87190057Y-101910004D01*
X87203916Y-101825024D01*
X87213649Y-101733035D01*
X87219859Y-101628638D01*
X87223149Y-101506432D01*
X87224076Y-101395945D01*
X87224973Y-101068323D01*
X87323453Y-101074599D01*
X87430305Y-101092421D01*
X87522148Y-101130333D01*
X87596690Y-101186720D01*
X87651636Y-101259969D01*
X87678448Y-101324465D01*
X87695346Y-101416877D01*
X87697773Y-101526889D01*
X87686622Y-101649344D01*
X87662790Y-101779086D01*
X87627170Y-101910958D01*
X87580657Y-102039802D01*
X87538117Y-102133434D01*
X87516272Y-102178483D01*
X87501016Y-102212844D01*
X87495063Y-102230319D01*
X87495254Y-102231267D01*
X87508588Y-102237297D01*
X87543932Y-102252355D01*
X87597899Y-102275023D01*
X87667104Y-102303885D01*
X87748160Y-102337523D01*
X87830882Y-102371716D01*
X88162197Y-102508414D01*
X88178167Y-102411180D01*
X88186180Y-102369036D01*
X88199639Y-102305681D01*
X88217321Y-102226543D01*
X88238004Y-102137049D01*
X88260468Y-102042627D01*
X88269597Y-102005027D01*
X88307326Y-101842363D01*
X88335612Y-101699950D01*
X88355028Y-101572473D01*
X88366146Y-101454616D01*
X88369536Y-101341062D01*
X88365771Y-101226495D01*
G36*
X89673175Y-97551730D02*
G01*
X89672696Y-97434959D01*
X89672455Y-97395271D01*
X89668865Y-96849514D01*
X87575081Y-96842649D01*
X87291158Y-96841742D01*
X87033360Y-96840938D01*
X86800354Y-96840185D01*
X86590806Y-96839431D01*
X86403382Y-96838625D01*
X86236750Y-96837715D01*
X86089575Y-96836649D01*
X85960523Y-96835376D01*
X85848261Y-96833844D01*
X85751456Y-96832002D01*
X85668774Y-96829797D01*
X85598881Y-96827178D01*
X85540443Y-96824094D01*
X85492128Y-96820492D01*
X85452600Y-96816322D01*
X85420527Y-96811531D01*
X85394576Y-96806069D01*
X85373411Y-96799882D01*
X85355701Y-96792920D01*
X85340111Y-96785131D01*
X85325307Y-96776463D01*
X85309956Y-96766865D01*
X85292724Y-96756285D01*
X85289054Y-96754116D01*
X85226969Y-96717732D01*
X85230566Y-97243569D01*
X85234162Y-97769406D01*
X85349669Y-97776271D01*
X85405101Y-97780008D01*
X85437149Y-97783903D01*
X85449865Y-97789189D01*
X85447304Y-97797097D01*
X85439976Y-97803730D01*
X85413286Y-97832626D01*
X85378979Y-97879721D01*
X85341154Y-97938380D01*
X85303910Y-98001969D01*
X85271347Y-98063851D01*
X85249923Y-98111366D01*
X85214717Y-98222684D01*
X85189778Y-98350404D01*
X85176059Y-98485099D01*
X85174514Y-98617337D01*
X85186094Y-98737692D01*
X85186426Y-98739674D01*
X85227750Y-98904359D01*
X85293588Y-99058521D01*
X85382526Y-99200672D01*
X85493148Y-99329325D01*
X85624039Y-99442993D01*
X85773784Y-99540190D01*
X85940967Y-99619428D01*
X86064810Y-99662570D01*
X86168419Y-99691021D01*
X86268748Y-99712120D01*
X86371891Y-99726512D01*
X86483943Y-99734842D01*
X86610999Y-99737755D01*
X86714748Y-99736465D01*
X86714748Y-98723350D01*
X86540778Y-98718556D01*
X86391105Y-98703432D01*
X86264403Y-98677515D01*
X86159342Y-98640337D01*
X86074594Y-98591435D01*
X86008831Y-98530342D01*
X85962341Y-98459823D01*
X85944986Y-98423129D01*
X85934581Y-98391304D01*
X85929821Y-98355823D01*
X85929399Y-98308159D01*
X85931252Y-98256811D01*
X85940159Y-98155831D01*
X85957602Y-98075965D01*
X85966339Y-98050865D01*
X85992143Y-97993552D01*
X86024547Y-97933103D01*
X86040767Y-97906703D01*
X86085795Y-97838054D01*
X87513018Y-97838054D01*
X87558282Y-97913568D01*
X87609428Y-98018879D01*
X87639676Y-98126475D01*
X87649205Y-98232419D01*
X87638193Y-98332776D01*
X87606819Y-98423613D01*
X87555260Y-98500993D01*
X87530512Y-98525961D01*
X87449423Y-98586144D01*
X87351266Y-98634855D01*
X87234357Y-98672501D01*
X87097015Y-98699488D01*
X86937556Y-98716225D01*
X86754300Y-98723117D01*
X86714748Y-98723350D01*
X86714748Y-99736465D01*
X86757933Y-99735927D01*
X86983947Y-99724353D01*
X87187808Y-99701080D01*
X87372487Y-99665496D01*
X87540952Y-99616987D01*
X87696174Y-99554940D01*
X87742192Y-99532799D01*
X87892261Y-99443615D01*
X88025623Y-99335841D01*
X88140123Y-99212010D01*
X88233611Y-99074658D01*
X88303932Y-98926317D01*
X88332940Y-98837396D01*
X88350160Y-98750067D01*
X88360406Y-98644989D01*
X88363682Y-98530971D01*
X88359991Y-98416823D01*
X88349340Y-98311352D01*
X88332630Y-98226666D01*
X88299860Y-98125872D01*
X88257721Y-98028178D01*
X88210481Y-97942704D01*
X88178419Y-97897211D01*
X88154578Y-97865831D01*
X88140061Y-97843858D01*
X88138000Y-97838859D01*
X88151282Y-97837310D01*
X88189337Y-97835865D01*
X88249481Y-97834557D01*
X88329027Y-97833417D01*
X88425289Y-97832479D01*
X88535581Y-97831774D01*
X88657219Y-97831333D01*
X88781115Y-97831189D01*
X88939804Y-97831270D01*
X89073592Y-97831665D01*
X89185040Y-97832605D01*
X89276705Y-97834320D01*
X89351147Y-97837043D01*
X89410925Y-97841003D01*
X89458598Y-97846431D01*
X89496726Y-97853559D01*
X89527866Y-97862616D01*
X89554579Y-97873833D01*
X89579423Y-97887442D01*
X89604957Y-97903672D01*
X89608119Y-97905760D01*
X89641190Y-97926694D01*
X89663931Y-97939333D01*
X89668728Y-97941027D01*
X89670241Y-97927784D01*
X89671472Y-97889998D01*
X89672401Y-97830584D01*
X89673008Y-97752458D01*
X89673273Y-97658535D01*
X89673175Y-97551730D01*
G37*
X89673175Y-97551730D02*
X89672696Y-97434959D01*
X89672455Y-97395271D01*
X89668865Y-96849514D01*
X87575081Y-96842649D01*
X87291158Y-96841742D01*
X87033360Y-96840938D01*
X86800354Y-96840185D01*
X86590806Y-96839431D01*
X86403382Y-96838625D01*
X86236750Y-96837715D01*
X86089575Y-96836649D01*
X85960523Y-96835376D01*
X85848261Y-96833844D01*
X85751456Y-96832002D01*
X85668774Y-96829797D01*
X85598881Y-96827178D01*
X85540443Y-96824094D01*
X85492128Y-96820492D01*
X85452600Y-96816322D01*
X85420527Y-96811531D01*
X85394576Y-96806069D01*
X85373411Y-96799882D01*
X85355701Y-96792920D01*
X85340111Y-96785131D01*
X85325307Y-96776463D01*
X85309956Y-96766865D01*
X85292724Y-96756285D01*
X85289054Y-96754116D01*
X85226969Y-96717732D01*
X85230566Y-97243569D01*
X85234162Y-97769406D01*
X85349669Y-97776271D01*
X85405101Y-97780008D01*
X85437149Y-97783903D01*
X85449865Y-97789189D01*
X85447304Y-97797097D01*
X85439976Y-97803730D01*
X85413286Y-97832626D01*
X85378979Y-97879721D01*
X85341154Y-97938380D01*
X85303910Y-98001969D01*
X85271347Y-98063851D01*
X85249923Y-98111366D01*
X85214717Y-98222684D01*
X85189778Y-98350404D01*
X85176059Y-98485099D01*
X85174514Y-98617337D01*
X85186094Y-98737692D01*
X85186426Y-98739674D01*
X85227750Y-98904359D01*
X85293588Y-99058521D01*
X85382526Y-99200672D01*
X85493148Y-99329325D01*
X85624039Y-99442993D01*
X85773784Y-99540190D01*
X85940967Y-99619428D01*
X86064810Y-99662570D01*
X86168419Y-99691021D01*
X86268748Y-99712120D01*
X86371891Y-99726512D01*
X86483943Y-99734842D01*
X86610999Y-99737755D01*
X86714748Y-99736465D01*
X86714748Y-98723350D01*
X86540778Y-98718556D01*
X86391105Y-98703432D01*
X86264403Y-98677515D01*
X86159342Y-98640337D01*
X86074594Y-98591435D01*
X86008831Y-98530342D01*
X85962341Y-98459823D01*
X85944986Y-98423129D01*
X85934581Y-98391304D01*
X85929821Y-98355823D01*
X85929399Y-98308159D01*
X85931252Y-98256811D01*
X85940159Y-98155831D01*
X85957602Y-98075965D01*
X85966339Y-98050865D01*
X85992143Y-97993552D01*
X86024547Y-97933103D01*
X86040767Y-97906703D01*
X86085795Y-97838054D01*
X87513018Y-97838054D01*
X87558282Y-97913568D01*
X87609428Y-98018879D01*
X87639676Y-98126475D01*
X87649205Y-98232419D01*
X87638193Y-98332776D01*
X87606819Y-98423613D01*
X87555260Y-98500993D01*
X87530512Y-98525961D01*
X87449423Y-98586144D01*
X87351266Y-98634855D01*
X87234357Y-98672501D01*
X87097015Y-98699488D01*
X86937556Y-98716225D01*
X86754300Y-98723117D01*
X86714748Y-98723350D01*
X86714748Y-99736465D01*
X86757933Y-99735927D01*
X86983947Y-99724353D01*
X87187808Y-99701080D01*
X87372487Y-99665496D01*
X87540952Y-99616987D01*
X87696174Y-99554940D01*
X87742192Y-99532799D01*
X87892261Y-99443615D01*
X88025623Y-99335841D01*
X88140123Y-99212010D01*
X88233611Y-99074658D01*
X88303932Y-98926317D01*
X88332940Y-98837396D01*
X88350160Y-98750067D01*
X88360406Y-98644989D01*
X88363682Y-98530971D01*
X88359991Y-98416823D01*
X88349340Y-98311352D01*
X88332630Y-98226666D01*
X88299860Y-98125872D01*
X88257721Y-98028178D01*
X88210481Y-97942704D01*
X88178419Y-97897211D01*
X88154578Y-97865831D01*
X88140061Y-97843858D01*
X88138000Y-97838859D01*
X88151282Y-97837310D01*
X88189337Y-97835865D01*
X88249481Y-97834557D01*
X88329027Y-97833417D01*
X88425289Y-97832479D01*
X88535581Y-97831774D01*
X88657219Y-97831333D01*
X88781115Y-97831189D01*
X88939804Y-97831270D01*
X89073592Y-97831665D01*
X89185040Y-97832605D01*
X89276705Y-97834320D01*
X89351147Y-97837043D01*
X89410925Y-97841003D01*
X89458598Y-97846431D01*
X89496726Y-97853559D01*
X89527866Y-97862616D01*
X89554579Y-97873833D01*
X89579423Y-97887442D01*
X89604957Y-97903672D01*
X89608119Y-97905760D01*
X89641190Y-97926694D01*
X89663931Y-97939333D01*
X89668728Y-97941027D01*
X89670241Y-97927784D01*
X89671472Y-97889998D01*
X89672401Y-97830584D01*
X89673008Y-97752458D01*
X89673273Y-97658535D01*
X89673175Y-97551730D01*
G36*
X90593510Y-107120079D02*
G01*
X90557762Y-107016973D01*
X90501493Y-106920978D01*
X90424712Y-106835247D01*
X90327427Y-106762930D01*
X90266108Y-106730445D01*
X90180340Y-106702332D01*
X90081323Y-106688705D01*
X89979529Y-106690214D01*
X89887286Y-106706969D01*
X89774568Y-106752763D01*
X89676793Y-106819168D01*
X89595885Y-106902809D01*
X89533768Y-107000312D01*
X89492366Y-107108300D01*
X89473603Y-107223399D01*
X89479402Y-107342234D01*
X89491794Y-107400811D01*
X89536203Y-107514972D01*
X89603967Y-107616365D01*
X89692999Y-107702545D01*
X89801209Y-107771066D01*
X89813027Y-107776864D01*
X89857372Y-107796904D01*
X89894720Y-107809487D01*
X89934120Y-107816319D01*
X89984619Y-107819105D01*
X90039567Y-107819568D01*
X90105585Y-107818803D01*
X90153311Y-107815352D01*
X90191897Y-107807477D01*
X90230494Y-107793443D01*
X90268574Y-107776120D01*
X90376672Y-107711505D01*
X90464197Y-107631934D01*
X90531159Y-107540560D01*
X90577564Y-107440536D01*
X90603419Y-107335012D01*
X90608732Y-107227142D01*
X90593510Y-107120079D01*
G37*
X90593510Y-107120079D02*
X90557762Y-107016973D01*
X90501493Y-106920978D01*
X90424712Y-106835247D01*
X90327427Y-106762930D01*
X90266108Y-106730445D01*
X90180340Y-106702332D01*
X90081323Y-106688705D01*
X89979529Y-106690214D01*
X89887286Y-106706969D01*
X89774568Y-106752763D01*
X89676793Y-106819168D01*
X89595885Y-106902809D01*
X89533768Y-107000312D01*
X89492366Y-107108300D01*
X89473603Y-107223399D01*
X89479402Y-107342234D01*
X89491794Y-107400811D01*
X89536203Y-107514972D01*
X89603967Y-107616365D01*
X89692999Y-107702545D01*
X89801209Y-107771066D01*
X89813027Y-107776864D01*
X89857372Y-107796904D01*
X89894720Y-107809487D01*
X89934120Y-107816319D01*
X89984619Y-107819105D01*
X90039567Y-107819568D01*
X90105585Y-107818803D01*
X90153311Y-107815352D01*
X90191897Y-107807477D01*
X90230494Y-107793443D01*
X90268574Y-107776120D01*
X90376672Y-107711505D01*
X90464197Y-107631934D01*
X90531159Y-107540560D01*
X90577564Y-107440536D01*
X90603419Y-107335012D01*
X90608732Y-107227142D01*
X90593510Y-107120079D01*
%TD*%
M02*
