M48
; DRILL file {KiCad (5.1.6)-1} date 07/20/20 22:25:41
; FORMAT={-:-/ absolute / inch / decimal}
; #@! TF.CreationDate,2020-07-20T22:25:41-05:00
; #@! TF.GenerationSoftware,Kicad,Pcbnew,(5.1.6)-1
; #@! TF.FileFunction,Plated,1,2,PTH
FMAT,2
INCH
T1C0.0157
T2C0.0394
%
G90
G05
T1
X2.3712Y-4.0584
X2.4102Y-4.0358
X2.4788Y-4.0848
X2.4942Y-4.2585
X2.5206Y-4.1499
X2.5445Y-3.8771
X2.5645Y-4.083
X2.5675Y-4.123
X2.5728Y-4.2464
X2.641Y-4.4164
X2.7021Y-4.3071
X2.7357Y-4.3678
X2.7378Y-3.9873
X2.754Y-3.8618
X2.8139Y-4.1192
X2.9343Y-3.7876
X3.2186Y-3.9612
X3.2202Y-4.2556
X3.2395Y-4.0029
X3.3425Y-3.8054
X3.3728Y-4.0112
X3.4468Y-3.9796
T2
X2.615Y-3.585
X2.715Y-3.585
X2.815Y-3.585
X2.915Y-3.585
X2.15Y-4.165
X2.15Y-4.265
X2.15Y-4.365
X2.25Y-4.165
X2.25Y-4.265
X2.25Y-4.365
X2.15Y-3.77
X2.15Y-3.87
X2.61Y-4.57
X2.71Y-4.57
X2.81Y-4.57
X2.91Y-4.57
X3.01Y-4.57
X3.11Y-4.57
X3.21Y-4.57
X3.31Y-4.57
X3.41Y-4.57
X3.08Y-3.585
X3.18Y-3.585
X3.28Y-3.585
X3.38Y-3.585
T0
M30
