%TF.GenerationSoftware,KiCad,Pcbnew,(5.1.6)-1*%
%TF.CreationDate,2020-07-20T22:25:38-05:00*%
%TF.ProjectId,Project 3 - BACEE_2_layer,50726f6a-6563-4742-9033-202d20424143,1*%
%TF.SameCoordinates,Original*%
%TF.FileFunction,Copper,L2,Bot*%
%TF.FilePolarity,Positive*%
%FSLAX46Y46*%
G04 Gerber Fmt 4.6, Leading zero omitted, Abs format (unit mm)*
G04 Created by KiCad (PCBNEW (5.1.6)-1) date 2020-07-20 22:25:38*
%MOMM*%
%LPD*%
G01*
G04 APERTURE LIST*
%TA.AperFunction,ComponentPad*%
%ADD10R,1.700000X1.700000*%
%TD*%
%TA.AperFunction,ComponentPad*%
%ADD11O,1.700000X1.700000*%
%TD*%
%TA.AperFunction,ViaPad*%
%ADD12C,0.800000*%
%TD*%
%TA.AperFunction,Conductor*%
%ADD13C,0.300000*%
%TD*%
%TA.AperFunction,Conductor*%
%ADD14C,0.250000*%
%TD*%
%TA.AperFunction,Conductor*%
%ADD15C,0.254000*%
%TD*%
G04 APERTURE END LIST*
D10*
%TO.P,BT1,1*%
%TO.N,/VCC*%
X54610000Y-95758000D03*
D11*
%TO.P,BT1,2*%
%TO.N,GNDPWR*%
X54610000Y-98298000D03*
%TD*%
D10*
%TO.P,J1,1*%
%TO.N,/D2*%
X66294000Y-116078000D03*
D11*
%TO.P,J1,2*%
%TO.N,/D3*%
X68834000Y-116078000D03*
%TO.P,J1,3*%
%TO.N,/D4*%
X71374000Y-116078000D03*
%TO.P,J1,4*%
%TO.N,/D5*%
X73914000Y-116078000D03*
%TO.P,J1,5*%
%TO.N,/D6*%
X76454000Y-116078000D03*
%TO.P,J1,6*%
%TO.N,/D7*%
X78994000Y-116078000D03*
%TO.P,J1,7*%
%TO.N,/D8*%
X81534000Y-116078000D03*
%TO.P,J1,8*%
%TO.N,GNDPWR*%
X84074000Y-116078000D03*
%TO.P,J1,9*%
%TO.N,/VCC*%
X86614000Y-116078000D03*
%TD*%
%TO.P,Serial,4*%
%TO.N,/TX*%
X74041000Y-91059000D03*
%TO.P,Serial,3*%
%TO.N,/RX*%
X71501000Y-91059000D03*
%TO.P,Serial,2*%
%TO.N,/VCC*%
X68961000Y-91059000D03*
D10*
%TO.P,Serial,1*%
%TO.N,GNDPWR*%
X66421000Y-91059000D03*
%TD*%
%TO.P,J3,1*%
%TO.N,/MISO*%
X57150000Y-105791000D03*
D11*
%TO.P,J3,2*%
%TO.N,/VCC*%
X54610000Y-105791000D03*
%TO.P,J3,3*%
%TO.N,/SCK*%
X57150000Y-108331000D03*
%TO.P,J3,4*%
%TO.N,/MOSI*%
X54610000Y-108331000D03*
%TO.P,J3,5*%
%TO.N,/RESET*%
X57150000Y-110871000D03*
%TO.P,J3,6*%
%TO.N,GNDPWR*%
X54610000Y-110871000D03*
%TD*%
D10*
%TO.P,J4,1*%
%TO.N,GNDPWR*%
X78232000Y-91059000D03*
D11*
%TO.P,J4,2*%
%TO.N,/VCC*%
X80772000Y-91059000D03*
%TO.P,J4,3*%
%TO.N,/SDA*%
X83312000Y-91059000D03*
%TO.P,J4,4*%
%TO.N,/SCK*%
X85852000Y-91059000D03*
%TD*%
D12*
%TO.N,Net-(C1-Pad2)*%
X64630000Y-98478100D03*
X63352700Y-108166200D03*
%TO.N,Net-(C2-Pad2)*%
X65349400Y-107858300D03*
X69950500Y-98089100D03*
%TO.N,/SCK*%
X82283600Y-101674000D03*
%TO.N,/D2*%
X61218000Y-102510300D03*
%TO.N,/D3*%
X62961200Y-103753000D03*
%TO.N,/D4*%
X64023800Y-105406400D03*
%TO.N,/D7*%
X68634000Y-109400100D03*
%TO.N,/TX*%
X65213700Y-104723700D03*
%TO.N,/RX*%
X65137900Y-103707300D03*
%TO.N,/MISO*%
X69485600Y-110942700D03*
%TO.N,/MOSI*%
X67080500Y-112176100D03*
%TO.N,/RESET*%
X60227500Y-103084400D03*
%TO.N,/SDA*%
X69540200Y-101277700D03*
X81753100Y-100615100D03*
X87549200Y-101082800D03*
X81793000Y-108092800D03*
%TO.N,Net-(U1-Pad1)*%
X84898900Y-96658200D03*
X85669600Y-101884000D03*
%TO.N,/ADDS1*%
X74530200Y-96206300D03*
X71472000Y-104627500D03*
%TD*%
D13*
%TO.N,/VCC*%
X80772000Y-91059000D02*
X80772000Y-109035700D01*
X80772000Y-109035700D02*
X86614000Y-114877700D01*
X54610000Y-95758000D02*
X54610000Y-96958300D01*
X54610000Y-105791000D02*
X54610000Y-104590700D01*
X54610000Y-104590700D02*
X53409700Y-103390400D01*
X53409700Y-103390400D02*
X53409700Y-97783400D01*
X53409700Y-97783400D02*
X54234800Y-96958300D01*
X54234800Y-96958300D02*
X54610000Y-96958300D01*
X86614000Y-116078000D02*
X86614000Y-114877700D01*
%TO.N,GNDPWR*%
X84074000Y-116078000D02*
X84074000Y-114877700D01*
X78232000Y-91059000D02*
X78232000Y-92259300D01*
X78232000Y-92259300D02*
X78232000Y-109035700D01*
X78232000Y-109035700D02*
X84074000Y-114877700D01*
X55695700Y-100584000D02*
X54610000Y-99498300D01*
X54610000Y-109670700D02*
X54985100Y-109670700D01*
X54985100Y-109670700D02*
X55852200Y-108803600D01*
X55852200Y-108803600D02*
X55852200Y-100740500D01*
X55852200Y-100740500D02*
X55695700Y-100584000D01*
X65220700Y-91059000D02*
X55695700Y-100584000D01*
X66421000Y-91059000D02*
X65220700Y-91059000D01*
X54610000Y-98298000D02*
X54610000Y-99498300D01*
X54610000Y-110871000D02*
X54610000Y-109670700D01*
D14*
%TO.N,Net-(C1-Pad2)*%
X63352700Y-108166200D02*
X63292000Y-108105500D01*
X63292000Y-108105500D02*
X63292000Y-104852200D01*
X63292000Y-104852200D02*
X64208900Y-103935300D01*
X64208900Y-103935300D02*
X64208900Y-98899200D01*
X64208900Y-98899200D02*
X64630000Y-98478100D01*
%TO.N,Net-(C2-Pad2)*%
X69950500Y-98089100D02*
X68340600Y-99699000D01*
X68340600Y-99699000D02*
X68340600Y-104867100D01*
X68340600Y-104867100D02*
X65349400Y-107858300D01*
%TO.N,/SCK*%
X85852000Y-92234300D02*
X82650100Y-95436200D01*
X82650100Y-95436200D02*
X82650100Y-101307500D01*
X82650100Y-101307500D02*
X82283600Y-101674000D01*
X85852000Y-91059000D02*
X85852000Y-92234300D01*
%TO.N,/D2*%
X66294000Y-116078000D02*
X66294000Y-114902700D01*
X61218000Y-102510300D02*
X61218000Y-109826700D01*
X61218000Y-109826700D02*
X66294000Y-114902700D01*
%TO.N,/D3*%
X68834000Y-114902700D02*
X68834000Y-112860800D01*
X68834000Y-112860800D02*
X67424000Y-111450800D01*
X67424000Y-111450800D02*
X65565600Y-111450800D01*
X65565600Y-111450800D02*
X62621400Y-108506600D01*
X62621400Y-108506600D02*
X62621400Y-104092800D01*
X62621400Y-104092800D02*
X62961200Y-103753000D01*
X68834000Y-116078000D02*
X68834000Y-114902700D01*
%TO.N,/D4*%
X71374000Y-114902700D02*
X71374000Y-114656800D01*
X71374000Y-114656800D02*
X67716700Y-110999500D01*
X67716700Y-110999500D02*
X67393700Y-110999500D01*
X67393700Y-110999500D02*
X64023800Y-107629600D01*
X64023800Y-107629600D02*
X64023800Y-105406400D01*
X71374000Y-116078000D02*
X71374000Y-114902700D01*
%TO.N,/D7*%
X77818700Y-116078000D02*
X77818700Y-115710700D01*
X77818700Y-115710700D02*
X71508100Y-109400100D01*
X71508100Y-109400100D02*
X68634000Y-109400100D01*
X78994000Y-116078000D02*
X77818700Y-116078000D01*
%TO.N,/TX*%
X74041000Y-92234300D02*
X67890300Y-98385000D01*
X67890300Y-98385000D02*
X67890300Y-102047100D01*
X67890300Y-102047100D02*
X65213700Y-104723700D01*
X74041000Y-91059000D02*
X74041000Y-92234300D01*
%TO.N,/RX*%
X71501000Y-92234300D02*
X67369900Y-96365400D01*
X67369900Y-96365400D02*
X67369900Y-101475300D01*
X67369900Y-101475300D02*
X65137900Y-103707300D01*
X71501000Y-91059000D02*
X71501000Y-92234300D01*
%TO.N,/MISO*%
X57150000Y-105791000D02*
X57150000Y-104587600D01*
X57150000Y-104587600D02*
X70231000Y-91506600D01*
X70231000Y-91506600D02*
X70231000Y-90653700D01*
X70231000Y-90653700D02*
X71059800Y-89824900D01*
X71059800Y-89824900D02*
X74506600Y-89824900D01*
X74506600Y-89824900D02*
X75235900Y-90554200D01*
X75235900Y-90554200D02*
X75235900Y-92968900D01*
X75235900Y-92968900D02*
X70841100Y-97363700D01*
X70841100Y-97363700D02*
X70841100Y-98271900D01*
X70841100Y-98271900D02*
X68790900Y-100322100D01*
X68790900Y-100322100D02*
X68790900Y-105053700D01*
X68790900Y-105053700D02*
X67908600Y-105936000D01*
X67908600Y-105936000D02*
X67908600Y-109735500D01*
X67908600Y-109735500D02*
X69115800Y-110942700D01*
X69115800Y-110942700D02*
X69485600Y-110942700D01*
%TO.N,/MOSI*%
X67080500Y-112176100D02*
X67469400Y-112565000D01*
X67469400Y-112565000D02*
X67469400Y-117109100D01*
X67469400Y-117109100D02*
X67325100Y-117253400D01*
X67325100Y-117253400D02*
X59329200Y-117253400D01*
X59329200Y-117253400D02*
X53416700Y-111340900D01*
X53416700Y-111340900D02*
X53416700Y-109524300D01*
X53416700Y-109524300D02*
X54610000Y-108331000D01*
%TO.N,/RESET*%
X57150000Y-110871000D02*
X57150000Y-109695700D01*
X60227500Y-103084400D02*
X60227500Y-106985500D01*
X60227500Y-106985500D02*
X57517300Y-109695700D01*
X57517300Y-109695700D02*
X57150000Y-109695700D01*
%TO.N,/SDA*%
X69540200Y-101277700D02*
X71291400Y-99526500D01*
X71291400Y-99526500D02*
X71291400Y-97821700D01*
X71291400Y-97821700D02*
X76878700Y-92234400D01*
X76878700Y-92234400D02*
X76878700Y-90250900D01*
X76878700Y-90250900D02*
X77260800Y-89868800D01*
X77260800Y-89868800D02*
X81262900Y-89868800D01*
X81262900Y-89868800D02*
X82186800Y-90792700D01*
X82186800Y-90792700D02*
X82186800Y-91059000D01*
X82186800Y-91059000D02*
X82186800Y-100181400D01*
X82186800Y-100181400D02*
X81753100Y-100615100D01*
X81830100Y-102617500D02*
X81549300Y-102336700D01*
X81549300Y-102336700D02*
X81549300Y-100818900D01*
X81549300Y-100818900D02*
X81753100Y-100615100D01*
X81830100Y-102617500D02*
X81830100Y-108055700D01*
X81830100Y-108055700D02*
X81793000Y-108092800D01*
X87549200Y-101082800D02*
X86014500Y-102617500D01*
X86014500Y-102617500D02*
X81830100Y-102617500D01*
X83312000Y-91059000D02*
X82186800Y-91059000D01*
%TO.N,Net-(U1-Pad1)*%
X84898900Y-96658200D02*
X84898900Y-101113300D01*
X84898900Y-101113300D02*
X85669600Y-101884000D01*
%TO.N,/ADDS1*%
X71472000Y-104627500D02*
X74530200Y-101569300D01*
X74530200Y-101569300D02*
X74530200Y-96206300D01*
%TD*%
D15*
%TO.N,GNDPWR*%
G36*
X88483390Y-90869133D02*
G01*
X88557966Y-91244055D01*
X88704254Y-91597224D01*
X88916630Y-91915067D01*
X89186933Y-92185370D01*
X89504776Y-92397746D01*
X89857945Y-92544034D01*
X90232867Y-92618610D01*
X90615133Y-92618610D01*
X90990055Y-92544034D01*
X91343224Y-92397746D01*
X91542001Y-92264927D01*
X91542000Y-115253072D01*
X91343224Y-115120254D01*
X90990055Y-114973966D01*
X90615133Y-114899390D01*
X90232867Y-114899390D01*
X89857945Y-114973966D01*
X89504776Y-115120254D01*
X89186933Y-115332630D01*
X88916630Y-115602933D01*
X88704254Y-115920776D01*
X88557966Y-116273945D01*
X88483390Y-116648867D01*
X88483390Y-117031133D01*
X88557966Y-117406055D01*
X88704254Y-117759224D01*
X88837072Y-117958000D01*
X67619117Y-117958000D01*
X67749376Y-117888374D01*
X67865101Y-117793401D01*
X67888904Y-117764397D01*
X67980397Y-117672904D01*
X68009401Y-117649101D01*
X68104374Y-117533376D01*
X68170125Y-117410366D01*
X68400842Y-117505932D01*
X68687740Y-117563000D01*
X68980260Y-117563000D01*
X69267158Y-117505932D01*
X69537411Y-117393990D01*
X69780632Y-117231475D01*
X69987475Y-117024632D01*
X70104000Y-116850240D01*
X70220525Y-117024632D01*
X70427368Y-117231475D01*
X70670589Y-117393990D01*
X70940842Y-117505932D01*
X71227740Y-117563000D01*
X71520260Y-117563000D01*
X71807158Y-117505932D01*
X72077411Y-117393990D01*
X72320632Y-117231475D01*
X72527475Y-117024632D01*
X72644000Y-116850240D01*
X72760525Y-117024632D01*
X72967368Y-117231475D01*
X73210589Y-117393990D01*
X73480842Y-117505932D01*
X73767740Y-117563000D01*
X74060260Y-117563000D01*
X74347158Y-117505932D01*
X74617411Y-117393990D01*
X74860632Y-117231475D01*
X75067475Y-117024632D01*
X75184000Y-116850240D01*
X75300525Y-117024632D01*
X75507368Y-117231475D01*
X75750589Y-117393990D01*
X76020842Y-117505932D01*
X76307740Y-117563000D01*
X76600260Y-117563000D01*
X76887158Y-117505932D01*
X77157411Y-117393990D01*
X77400632Y-117231475D01*
X77607475Y-117024632D01*
X77724000Y-116850240D01*
X77840525Y-117024632D01*
X78047368Y-117231475D01*
X78290589Y-117393990D01*
X78560842Y-117505932D01*
X78847740Y-117563000D01*
X79140260Y-117563000D01*
X79427158Y-117505932D01*
X79697411Y-117393990D01*
X79940632Y-117231475D01*
X80147475Y-117024632D01*
X80264000Y-116850240D01*
X80380525Y-117024632D01*
X80587368Y-117231475D01*
X80830589Y-117393990D01*
X81100842Y-117505932D01*
X81387740Y-117563000D01*
X81680260Y-117563000D01*
X81967158Y-117505932D01*
X82237411Y-117393990D01*
X82480632Y-117231475D01*
X82687475Y-117024632D01*
X82809195Y-116842466D01*
X82878822Y-116959355D01*
X83073731Y-117175588D01*
X83307080Y-117349641D01*
X83569901Y-117474825D01*
X83717110Y-117519476D01*
X83947000Y-117398155D01*
X83947000Y-116205000D01*
X83927000Y-116205000D01*
X83927000Y-115951000D01*
X83947000Y-115951000D01*
X83947000Y-114757845D01*
X83717110Y-114636524D01*
X83569901Y-114681175D01*
X83307080Y-114806359D01*
X83073731Y-114980412D01*
X82878822Y-115196645D01*
X82809195Y-115313534D01*
X82687475Y-115131368D01*
X82480632Y-114924525D01*
X82237411Y-114762010D01*
X81967158Y-114650068D01*
X81680260Y-114593000D01*
X81387740Y-114593000D01*
X81100842Y-114650068D01*
X80830589Y-114762010D01*
X80587368Y-114924525D01*
X80380525Y-115131368D01*
X80264000Y-115305760D01*
X80147475Y-115131368D01*
X79940632Y-114924525D01*
X79697411Y-114762010D01*
X79427158Y-114650068D01*
X79140260Y-114593000D01*
X78847740Y-114593000D01*
X78560842Y-114650068D01*
X78290589Y-114762010D01*
X78083311Y-114900509D01*
X72071904Y-108889103D01*
X72048101Y-108860099D01*
X71932376Y-108765126D01*
X71800347Y-108694554D01*
X71657086Y-108651097D01*
X71545433Y-108640100D01*
X71545422Y-108640100D01*
X71508100Y-108636424D01*
X71470778Y-108640100D01*
X69337711Y-108640100D01*
X69293774Y-108596163D01*
X69124256Y-108482895D01*
X68935898Y-108404874D01*
X68735939Y-108365100D01*
X68668600Y-108365100D01*
X68668600Y-106250801D01*
X69301903Y-105617499D01*
X69330901Y-105593701D01*
X69425874Y-105477976D01*
X69496446Y-105345947D01*
X69539903Y-105202686D01*
X69550900Y-105091033D01*
X69554577Y-105053700D01*
X69550900Y-105016367D01*
X69550900Y-102312700D01*
X69642139Y-102312700D01*
X69842098Y-102272926D01*
X70030456Y-102194905D01*
X70199974Y-102081637D01*
X70344137Y-101937474D01*
X70457405Y-101767956D01*
X70535426Y-101579598D01*
X70575200Y-101379639D01*
X70575200Y-101317501D01*
X71802404Y-100090298D01*
X71831401Y-100066501D01*
X71926374Y-99950776D01*
X71996946Y-99818747D01*
X72040403Y-99675486D01*
X72051400Y-99563833D01*
X72051400Y-99563825D01*
X72055076Y-99526500D01*
X72051400Y-99489175D01*
X72051400Y-98136501D01*
X73577365Y-96610537D01*
X73612995Y-96696556D01*
X73726263Y-96866074D01*
X73770201Y-96910012D01*
X73770200Y-101254498D01*
X71432199Y-103592500D01*
X71370061Y-103592500D01*
X71170102Y-103632274D01*
X70981744Y-103710295D01*
X70812226Y-103823563D01*
X70668063Y-103967726D01*
X70554795Y-104137244D01*
X70476774Y-104325602D01*
X70437000Y-104525561D01*
X70437000Y-104729439D01*
X70476774Y-104929398D01*
X70554795Y-105117756D01*
X70668063Y-105287274D01*
X70812226Y-105431437D01*
X70981744Y-105544705D01*
X71170102Y-105622726D01*
X71370061Y-105662500D01*
X71573939Y-105662500D01*
X71773898Y-105622726D01*
X71962256Y-105544705D01*
X72131774Y-105431437D01*
X72275937Y-105287274D01*
X72389205Y-105117756D01*
X72467226Y-104929398D01*
X72507000Y-104729439D01*
X72507000Y-104667301D01*
X75041204Y-102133098D01*
X75070201Y-102109301D01*
X75113531Y-102056503D01*
X75165174Y-101993577D01*
X75235746Y-101861547D01*
X75249046Y-101817701D01*
X75279203Y-101718286D01*
X75290200Y-101606633D01*
X75290200Y-101606623D01*
X75293876Y-101569300D01*
X75290200Y-101531977D01*
X75290200Y-96910011D01*
X75334137Y-96866074D01*
X75447405Y-96696556D01*
X75525426Y-96508198D01*
X75565200Y-96308239D01*
X75565200Y-96104361D01*
X75525426Y-95904402D01*
X75447405Y-95716044D01*
X75334137Y-95546526D01*
X75189974Y-95402363D01*
X75020456Y-95289095D01*
X74934437Y-95253465D01*
X77389709Y-92798194D01*
X77418701Y-92774401D01*
X77442495Y-92745408D01*
X77442499Y-92745404D01*
X77513673Y-92658677D01*
X77513674Y-92658676D01*
X77573887Y-92546027D01*
X77946250Y-92544000D01*
X78105000Y-92385250D01*
X78105000Y-91186000D01*
X78085000Y-91186000D01*
X78085000Y-90932000D01*
X78105000Y-90932000D01*
X78105000Y-90912000D01*
X78359000Y-90912000D01*
X78359000Y-90932000D01*
X78379000Y-90932000D01*
X78379000Y-91186000D01*
X78359000Y-91186000D01*
X78359000Y-92385250D01*
X78517750Y-92544000D01*
X79082000Y-92547072D01*
X79206482Y-92534812D01*
X79326180Y-92498502D01*
X79436494Y-92439537D01*
X79533185Y-92360185D01*
X79612537Y-92263494D01*
X79671502Y-92153180D01*
X79693513Y-92080620D01*
X79825368Y-92212475D01*
X79987000Y-92320474D01*
X79987001Y-108997137D01*
X79983203Y-109035700D01*
X79998359Y-109189586D01*
X80043246Y-109337559D01*
X80043247Y-109337560D01*
X80116139Y-109473933D01*
X80156690Y-109523344D01*
X80189655Y-109563512D01*
X80189659Y-109563516D01*
X80214237Y-109593464D01*
X80244185Y-109618042D01*
X85609018Y-114982875D01*
X85460525Y-115131368D01*
X85338805Y-115313534D01*
X85269178Y-115196645D01*
X85074269Y-114980412D01*
X84840920Y-114806359D01*
X84578099Y-114681175D01*
X84430890Y-114636524D01*
X84201000Y-114757845D01*
X84201000Y-115951000D01*
X84221000Y-115951000D01*
X84221000Y-116205000D01*
X84201000Y-116205000D01*
X84201000Y-117398155D01*
X84430890Y-117519476D01*
X84578099Y-117474825D01*
X84840920Y-117349641D01*
X85074269Y-117175588D01*
X85269178Y-116959355D01*
X85338805Y-116842466D01*
X85460525Y-117024632D01*
X85667368Y-117231475D01*
X85910589Y-117393990D01*
X86180842Y-117505932D01*
X86467740Y-117563000D01*
X86760260Y-117563000D01*
X87047158Y-117505932D01*
X87317411Y-117393990D01*
X87560632Y-117231475D01*
X87767475Y-117024632D01*
X87929990Y-116781411D01*
X88041932Y-116511158D01*
X88099000Y-116224260D01*
X88099000Y-115931740D01*
X88041932Y-115644842D01*
X87929990Y-115374589D01*
X87767475Y-115131368D01*
X87560632Y-114924525D01*
X87396616Y-114814933D01*
X87395020Y-114798726D01*
X87387642Y-114723813D01*
X87342754Y-114575840D01*
X87306394Y-114507815D01*
X87269862Y-114439467D01*
X87171764Y-114319936D01*
X87141810Y-114295353D01*
X81961097Y-109114640D01*
X82094898Y-109088026D01*
X82283256Y-109010005D01*
X82452774Y-108896737D01*
X82596937Y-108752574D01*
X82710205Y-108583056D01*
X82788226Y-108394698D01*
X82828000Y-108194739D01*
X82828000Y-107990861D01*
X82788226Y-107790902D01*
X82710205Y-107602544D01*
X82596937Y-107433026D01*
X82590100Y-107426189D01*
X82590100Y-103377500D01*
X85977178Y-103377500D01*
X86014500Y-103381176D01*
X86051822Y-103377500D01*
X86051833Y-103377500D01*
X86163486Y-103366503D01*
X86306747Y-103323046D01*
X86438776Y-103252474D01*
X86554501Y-103157501D01*
X86578304Y-103128497D01*
X87589002Y-102117800D01*
X87651139Y-102117800D01*
X87851098Y-102078026D01*
X88039456Y-102000005D01*
X88208974Y-101886737D01*
X88353137Y-101742574D01*
X88466405Y-101573056D01*
X88544426Y-101384698D01*
X88584200Y-101184739D01*
X88584200Y-100980861D01*
X88544426Y-100780902D01*
X88466405Y-100592544D01*
X88353137Y-100423026D01*
X88208974Y-100278863D01*
X88039456Y-100165595D01*
X87851098Y-100087574D01*
X87651139Y-100047800D01*
X87447261Y-100047800D01*
X87247302Y-100087574D01*
X87058944Y-100165595D01*
X86889426Y-100278863D01*
X86745263Y-100423026D01*
X86631995Y-100592544D01*
X86553974Y-100780902D01*
X86514200Y-100980861D01*
X86514200Y-101042998D01*
X86403255Y-101153944D01*
X86329374Y-101080063D01*
X86159856Y-100966795D01*
X85971498Y-100888774D01*
X85771539Y-100849000D01*
X85709402Y-100849000D01*
X85658900Y-100798498D01*
X85658900Y-97361911D01*
X85702837Y-97317974D01*
X85816105Y-97148456D01*
X85894126Y-96960098D01*
X85933900Y-96760139D01*
X85933900Y-96556261D01*
X85894126Y-96356302D01*
X85816105Y-96167944D01*
X85702837Y-95998426D01*
X85558674Y-95854263D01*
X85389156Y-95740995D01*
X85200798Y-95662974D01*
X85000839Y-95623200D01*
X84796961Y-95623200D01*
X84597002Y-95662974D01*
X84408644Y-95740995D01*
X84239126Y-95854263D01*
X84094963Y-95998426D01*
X83981695Y-96167944D01*
X83903674Y-96356302D01*
X83863900Y-96556261D01*
X83863900Y-96760139D01*
X83903674Y-96960098D01*
X83981695Y-97148456D01*
X84094963Y-97317974D01*
X84138900Y-97361911D01*
X84138901Y-101075968D01*
X84135224Y-101113300D01*
X84138901Y-101150633D01*
X84149898Y-101262286D01*
X84154378Y-101277054D01*
X84193354Y-101405546D01*
X84263926Y-101537576D01*
X84323631Y-101610326D01*
X84358900Y-101653301D01*
X84387897Y-101677099D01*
X84568298Y-101857500D01*
X83302377Y-101857500D01*
X83318600Y-101775939D01*
X83318600Y-101669054D01*
X83355646Y-101599747D01*
X83399103Y-101456486D01*
X83410100Y-101344833D01*
X83410100Y-101344824D01*
X83413776Y-101307501D01*
X83410100Y-101270178D01*
X83410100Y-95751001D01*
X86363008Y-92798095D01*
X86392001Y-92774301D01*
X86415795Y-92745308D01*
X86415799Y-92745304D01*
X86486973Y-92658577D01*
X86486974Y-92658576D01*
X86557546Y-92526547D01*
X86601003Y-92383286D01*
X86605089Y-92341796D01*
X86798632Y-92212475D01*
X87005475Y-92005632D01*
X87167990Y-91762411D01*
X87279932Y-91492158D01*
X87337000Y-91205260D01*
X87337000Y-90912740D01*
X87279932Y-90625842D01*
X87248932Y-90551000D01*
X88483390Y-90551000D01*
X88483390Y-90869133D01*
G37*
X88483390Y-90869133D02*
X88557966Y-91244055D01*
X88704254Y-91597224D01*
X88916630Y-91915067D01*
X89186933Y-92185370D01*
X89504776Y-92397746D01*
X89857945Y-92544034D01*
X90232867Y-92618610D01*
X90615133Y-92618610D01*
X90990055Y-92544034D01*
X91343224Y-92397746D01*
X91542001Y-92264927D01*
X91542000Y-115253072D01*
X91343224Y-115120254D01*
X90990055Y-114973966D01*
X90615133Y-114899390D01*
X90232867Y-114899390D01*
X89857945Y-114973966D01*
X89504776Y-115120254D01*
X89186933Y-115332630D01*
X88916630Y-115602933D01*
X88704254Y-115920776D01*
X88557966Y-116273945D01*
X88483390Y-116648867D01*
X88483390Y-117031133D01*
X88557966Y-117406055D01*
X88704254Y-117759224D01*
X88837072Y-117958000D01*
X67619117Y-117958000D01*
X67749376Y-117888374D01*
X67865101Y-117793401D01*
X67888904Y-117764397D01*
X67980397Y-117672904D01*
X68009401Y-117649101D01*
X68104374Y-117533376D01*
X68170125Y-117410366D01*
X68400842Y-117505932D01*
X68687740Y-117563000D01*
X68980260Y-117563000D01*
X69267158Y-117505932D01*
X69537411Y-117393990D01*
X69780632Y-117231475D01*
X69987475Y-117024632D01*
X70104000Y-116850240D01*
X70220525Y-117024632D01*
X70427368Y-117231475D01*
X70670589Y-117393990D01*
X70940842Y-117505932D01*
X71227740Y-117563000D01*
X71520260Y-117563000D01*
X71807158Y-117505932D01*
X72077411Y-117393990D01*
X72320632Y-117231475D01*
X72527475Y-117024632D01*
X72644000Y-116850240D01*
X72760525Y-117024632D01*
X72967368Y-117231475D01*
X73210589Y-117393990D01*
X73480842Y-117505932D01*
X73767740Y-117563000D01*
X74060260Y-117563000D01*
X74347158Y-117505932D01*
X74617411Y-117393990D01*
X74860632Y-117231475D01*
X75067475Y-117024632D01*
X75184000Y-116850240D01*
X75300525Y-117024632D01*
X75507368Y-117231475D01*
X75750589Y-117393990D01*
X76020842Y-117505932D01*
X76307740Y-117563000D01*
X76600260Y-117563000D01*
X76887158Y-117505932D01*
X77157411Y-117393990D01*
X77400632Y-117231475D01*
X77607475Y-117024632D01*
X77724000Y-116850240D01*
X77840525Y-117024632D01*
X78047368Y-117231475D01*
X78290589Y-117393990D01*
X78560842Y-117505932D01*
X78847740Y-117563000D01*
X79140260Y-117563000D01*
X79427158Y-117505932D01*
X79697411Y-117393990D01*
X79940632Y-117231475D01*
X80147475Y-117024632D01*
X80264000Y-116850240D01*
X80380525Y-117024632D01*
X80587368Y-117231475D01*
X80830589Y-117393990D01*
X81100842Y-117505932D01*
X81387740Y-117563000D01*
X81680260Y-117563000D01*
X81967158Y-117505932D01*
X82237411Y-117393990D01*
X82480632Y-117231475D01*
X82687475Y-117024632D01*
X82809195Y-116842466D01*
X82878822Y-116959355D01*
X83073731Y-117175588D01*
X83307080Y-117349641D01*
X83569901Y-117474825D01*
X83717110Y-117519476D01*
X83947000Y-117398155D01*
X83947000Y-116205000D01*
X83927000Y-116205000D01*
X83927000Y-115951000D01*
X83947000Y-115951000D01*
X83947000Y-114757845D01*
X83717110Y-114636524D01*
X83569901Y-114681175D01*
X83307080Y-114806359D01*
X83073731Y-114980412D01*
X82878822Y-115196645D01*
X82809195Y-115313534D01*
X82687475Y-115131368D01*
X82480632Y-114924525D01*
X82237411Y-114762010D01*
X81967158Y-114650068D01*
X81680260Y-114593000D01*
X81387740Y-114593000D01*
X81100842Y-114650068D01*
X80830589Y-114762010D01*
X80587368Y-114924525D01*
X80380525Y-115131368D01*
X80264000Y-115305760D01*
X80147475Y-115131368D01*
X79940632Y-114924525D01*
X79697411Y-114762010D01*
X79427158Y-114650068D01*
X79140260Y-114593000D01*
X78847740Y-114593000D01*
X78560842Y-114650068D01*
X78290589Y-114762010D01*
X78083311Y-114900509D01*
X72071904Y-108889103D01*
X72048101Y-108860099D01*
X71932376Y-108765126D01*
X71800347Y-108694554D01*
X71657086Y-108651097D01*
X71545433Y-108640100D01*
X71545422Y-108640100D01*
X71508100Y-108636424D01*
X71470778Y-108640100D01*
X69337711Y-108640100D01*
X69293774Y-108596163D01*
X69124256Y-108482895D01*
X68935898Y-108404874D01*
X68735939Y-108365100D01*
X68668600Y-108365100D01*
X68668600Y-106250801D01*
X69301903Y-105617499D01*
X69330901Y-105593701D01*
X69425874Y-105477976D01*
X69496446Y-105345947D01*
X69539903Y-105202686D01*
X69550900Y-105091033D01*
X69554577Y-105053700D01*
X69550900Y-105016367D01*
X69550900Y-102312700D01*
X69642139Y-102312700D01*
X69842098Y-102272926D01*
X70030456Y-102194905D01*
X70199974Y-102081637D01*
X70344137Y-101937474D01*
X70457405Y-101767956D01*
X70535426Y-101579598D01*
X70575200Y-101379639D01*
X70575200Y-101317501D01*
X71802404Y-100090298D01*
X71831401Y-100066501D01*
X71926374Y-99950776D01*
X71996946Y-99818747D01*
X72040403Y-99675486D01*
X72051400Y-99563833D01*
X72051400Y-99563825D01*
X72055076Y-99526500D01*
X72051400Y-99489175D01*
X72051400Y-98136501D01*
X73577365Y-96610537D01*
X73612995Y-96696556D01*
X73726263Y-96866074D01*
X73770201Y-96910012D01*
X73770200Y-101254498D01*
X71432199Y-103592500D01*
X71370061Y-103592500D01*
X71170102Y-103632274D01*
X70981744Y-103710295D01*
X70812226Y-103823563D01*
X70668063Y-103967726D01*
X70554795Y-104137244D01*
X70476774Y-104325602D01*
X70437000Y-104525561D01*
X70437000Y-104729439D01*
X70476774Y-104929398D01*
X70554795Y-105117756D01*
X70668063Y-105287274D01*
X70812226Y-105431437D01*
X70981744Y-105544705D01*
X71170102Y-105622726D01*
X71370061Y-105662500D01*
X71573939Y-105662500D01*
X71773898Y-105622726D01*
X71962256Y-105544705D01*
X72131774Y-105431437D01*
X72275937Y-105287274D01*
X72389205Y-105117756D01*
X72467226Y-104929398D01*
X72507000Y-104729439D01*
X72507000Y-104667301D01*
X75041204Y-102133098D01*
X75070201Y-102109301D01*
X75113531Y-102056503D01*
X75165174Y-101993577D01*
X75235746Y-101861547D01*
X75249046Y-101817701D01*
X75279203Y-101718286D01*
X75290200Y-101606633D01*
X75290200Y-101606623D01*
X75293876Y-101569300D01*
X75290200Y-101531977D01*
X75290200Y-96910011D01*
X75334137Y-96866074D01*
X75447405Y-96696556D01*
X75525426Y-96508198D01*
X75565200Y-96308239D01*
X75565200Y-96104361D01*
X75525426Y-95904402D01*
X75447405Y-95716044D01*
X75334137Y-95546526D01*
X75189974Y-95402363D01*
X75020456Y-95289095D01*
X74934437Y-95253465D01*
X77389709Y-92798194D01*
X77418701Y-92774401D01*
X77442495Y-92745408D01*
X77442499Y-92745404D01*
X77513673Y-92658677D01*
X77513674Y-92658676D01*
X77573887Y-92546027D01*
X77946250Y-92544000D01*
X78105000Y-92385250D01*
X78105000Y-91186000D01*
X78085000Y-91186000D01*
X78085000Y-90932000D01*
X78105000Y-90932000D01*
X78105000Y-90912000D01*
X78359000Y-90912000D01*
X78359000Y-90932000D01*
X78379000Y-90932000D01*
X78379000Y-91186000D01*
X78359000Y-91186000D01*
X78359000Y-92385250D01*
X78517750Y-92544000D01*
X79082000Y-92547072D01*
X79206482Y-92534812D01*
X79326180Y-92498502D01*
X79436494Y-92439537D01*
X79533185Y-92360185D01*
X79612537Y-92263494D01*
X79671502Y-92153180D01*
X79693513Y-92080620D01*
X79825368Y-92212475D01*
X79987000Y-92320474D01*
X79987001Y-108997137D01*
X79983203Y-109035700D01*
X79998359Y-109189586D01*
X80043246Y-109337559D01*
X80043247Y-109337560D01*
X80116139Y-109473933D01*
X80156690Y-109523344D01*
X80189655Y-109563512D01*
X80189659Y-109563516D01*
X80214237Y-109593464D01*
X80244185Y-109618042D01*
X85609018Y-114982875D01*
X85460525Y-115131368D01*
X85338805Y-115313534D01*
X85269178Y-115196645D01*
X85074269Y-114980412D01*
X84840920Y-114806359D01*
X84578099Y-114681175D01*
X84430890Y-114636524D01*
X84201000Y-114757845D01*
X84201000Y-115951000D01*
X84221000Y-115951000D01*
X84221000Y-116205000D01*
X84201000Y-116205000D01*
X84201000Y-117398155D01*
X84430890Y-117519476D01*
X84578099Y-117474825D01*
X84840920Y-117349641D01*
X85074269Y-117175588D01*
X85269178Y-116959355D01*
X85338805Y-116842466D01*
X85460525Y-117024632D01*
X85667368Y-117231475D01*
X85910589Y-117393990D01*
X86180842Y-117505932D01*
X86467740Y-117563000D01*
X86760260Y-117563000D01*
X87047158Y-117505932D01*
X87317411Y-117393990D01*
X87560632Y-117231475D01*
X87767475Y-117024632D01*
X87929990Y-116781411D01*
X88041932Y-116511158D01*
X88099000Y-116224260D01*
X88099000Y-115931740D01*
X88041932Y-115644842D01*
X87929990Y-115374589D01*
X87767475Y-115131368D01*
X87560632Y-114924525D01*
X87396616Y-114814933D01*
X87395020Y-114798726D01*
X87387642Y-114723813D01*
X87342754Y-114575840D01*
X87306394Y-114507815D01*
X87269862Y-114439467D01*
X87171764Y-114319936D01*
X87141810Y-114295353D01*
X81961097Y-109114640D01*
X82094898Y-109088026D01*
X82283256Y-109010005D01*
X82452774Y-108896737D01*
X82596937Y-108752574D01*
X82710205Y-108583056D01*
X82788226Y-108394698D01*
X82828000Y-108194739D01*
X82828000Y-107990861D01*
X82788226Y-107790902D01*
X82710205Y-107602544D01*
X82596937Y-107433026D01*
X82590100Y-107426189D01*
X82590100Y-103377500D01*
X85977178Y-103377500D01*
X86014500Y-103381176D01*
X86051822Y-103377500D01*
X86051833Y-103377500D01*
X86163486Y-103366503D01*
X86306747Y-103323046D01*
X86438776Y-103252474D01*
X86554501Y-103157501D01*
X86578304Y-103128497D01*
X87589002Y-102117800D01*
X87651139Y-102117800D01*
X87851098Y-102078026D01*
X88039456Y-102000005D01*
X88208974Y-101886737D01*
X88353137Y-101742574D01*
X88466405Y-101573056D01*
X88544426Y-101384698D01*
X88584200Y-101184739D01*
X88584200Y-100980861D01*
X88544426Y-100780902D01*
X88466405Y-100592544D01*
X88353137Y-100423026D01*
X88208974Y-100278863D01*
X88039456Y-100165595D01*
X87851098Y-100087574D01*
X87651139Y-100047800D01*
X87447261Y-100047800D01*
X87247302Y-100087574D01*
X87058944Y-100165595D01*
X86889426Y-100278863D01*
X86745263Y-100423026D01*
X86631995Y-100592544D01*
X86553974Y-100780902D01*
X86514200Y-100980861D01*
X86514200Y-101042998D01*
X86403255Y-101153944D01*
X86329374Y-101080063D01*
X86159856Y-100966795D01*
X85971498Y-100888774D01*
X85771539Y-100849000D01*
X85709402Y-100849000D01*
X85658900Y-100798498D01*
X85658900Y-97361911D01*
X85702837Y-97317974D01*
X85816105Y-97148456D01*
X85894126Y-96960098D01*
X85933900Y-96760139D01*
X85933900Y-96556261D01*
X85894126Y-96356302D01*
X85816105Y-96167944D01*
X85702837Y-95998426D01*
X85558674Y-95854263D01*
X85389156Y-95740995D01*
X85200798Y-95662974D01*
X85000839Y-95623200D01*
X84796961Y-95623200D01*
X84597002Y-95662974D01*
X84408644Y-95740995D01*
X84239126Y-95854263D01*
X84094963Y-95998426D01*
X83981695Y-96167944D01*
X83903674Y-96356302D01*
X83863900Y-96556261D01*
X83863900Y-96760139D01*
X83903674Y-96960098D01*
X83981695Y-97148456D01*
X84094963Y-97317974D01*
X84138900Y-97361911D01*
X84138901Y-101075968D01*
X84135224Y-101113300D01*
X84138901Y-101150633D01*
X84149898Y-101262286D01*
X84154378Y-101277054D01*
X84193354Y-101405546D01*
X84263926Y-101537576D01*
X84323631Y-101610326D01*
X84358900Y-101653301D01*
X84387897Y-101677099D01*
X84568298Y-101857500D01*
X83302377Y-101857500D01*
X83318600Y-101775939D01*
X83318600Y-101669054D01*
X83355646Y-101599747D01*
X83399103Y-101456486D01*
X83410100Y-101344833D01*
X83410100Y-101344824D01*
X83413776Y-101307501D01*
X83410100Y-101270178D01*
X83410100Y-95751001D01*
X86363008Y-92798095D01*
X86392001Y-92774301D01*
X86415795Y-92745308D01*
X86415799Y-92745304D01*
X86486973Y-92658577D01*
X86486974Y-92658576D01*
X86557546Y-92526547D01*
X86601003Y-92383286D01*
X86605089Y-92341796D01*
X86798632Y-92212475D01*
X87005475Y-92005632D01*
X87167990Y-91762411D01*
X87279932Y-91492158D01*
X87337000Y-91205260D01*
X87337000Y-90912740D01*
X87279932Y-90625842D01*
X87248932Y-90551000D01*
X88483390Y-90551000D01*
X88483390Y-90869133D01*
G36*
X64936000Y-90773250D02*
G01*
X65094750Y-90932000D01*
X66294000Y-90932000D01*
X66294000Y-90912000D01*
X66548000Y-90912000D01*
X66548000Y-90932000D01*
X66568000Y-90932000D01*
X66568000Y-91186000D01*
X66548000Y-91186000D01*
X66548000Y-92385250D01*
X66706750Y-92544000D01*
X67271000Y-92547072D01*
X67395482Y-92534812D01*
X67515180Y-92498502D01*
X67625494Y-92439537D01*
X67722185Y-92360185D01*
X67801537Y-92263494D01*
X67860502Y-92153180D01*
X67882513Y-92080620D01*
X68014368Y-92212475D01*
X68257589Y-92374990D01*
X68278957Y-92383841D01*
X58493993Y-102168806D01*
X58493993Y-91909000D01*
X64932928Y-91909000D01*
X64945188Y-92033482D01*
X64981498Y-92153180D01*
X65040463Y-92263494D01*
X65119815Y-92360185D01*
X65216506Y-92439537D01*
X65326820Y-92498502D01*
X65446518Y-92534812D01*
X65571000Y-92547072D01*
X66135250Y-92544000D01*
X66294000Y-92385250D01*
X66294000Y-91186000D01*
X65094750Y-91186000D01*
X64936000Y-91344750D01*
X64932928Y-91909000D01*
X58493993Y-91909000D01*
X58493993Y-90551000D01*
X64934790Y-90551000D01*
X64936000Y-90773250D01*
G37*
X64936000Y-90773250D02*
X65094750Y-90932000D01*
X66294000Y-90932000D01*
X66294000Y-90912000D01*
X66548000Y-90912000D01*
X66548000Y-90932000D01*
X66568000Y-90932000D01*
X66568000Y-91186000D01*
X66548000Y-91186000D01*
X66548000Y-92385250D01*
X66706750Y-92544000D01*
X67271000Y-92547072D01*
X67395482Y-92534812D01*
X67515180Y-92498502D01*
X67625494Y-92439537D01*
X67722185Y-92360185D01*
X67801537Y-92263494D01*
X67860502Y-92153180D01*
X67882513Y-92080620D01*
X68014368Y-92212475D01*
X68257589Y-92374990D01*
X68278957Y-92383841D01*
X58493993Y-102168806D01*
X58493993Y-91909000D01*
X64932928Y-91909000D01*
X64945188Y-92033482D01*
X64981498Y-92153180D01*
X65040463Y-92263494D01*
X65119815Y-92360185D01*
X65216506Y-92439537D01*
X65326820Y-92498502D01*
X65446518Y-92534812D01*
X65571000Y-92547072D01*
X66135250Y-92544000D01*
X66294000Y-92385250D01*
X66294000Y-91186000D01*
X65094750Y-91186000D01*
X64936000Y-91344750D01*
X64932928Y-91909000D01*
X58493993Y-91909000D01*
X58493993Y-90551000D01*
X64934790Y-90551000D01*
X64936000Y-90773250D01*
%TD*%
M02*
